<svg xmlns="http://www.w3.org/2000/svg" xmlns:xlink="http://www.w3.org/1999/xlink" width="284" height="284" viewBox="0 0 284 284"><defs><path id="dmgra" d="M262 1805l-83.47-114.88A142 142 0 0 1 262 1663z"/><path id="dmgrb" d="M262 1805l-135.05-43.88a142 142 0 0 1 51.58-71z"/><path id="dmgrc" d="M262 1805l-135.05 43.88a142 142 0 0 1 0-87.76z"/><path id="dmgrd" d="M262 1805l83.47 114.88c-63.45 46.1-152.25 32.03-198.35-31.41a142 142 0 0 1-20.17-39.59z"/><path id="dmgre" d="M262 1805v-142c78.42 0 142 63.58 142 142a142 142 0 0 1-58.53 114.88z"/><path id="dmgrf" d="M205 1805a57 57 0 1 1 114 0 57 57 0 0 1-114 0z"/><path id="dmgrg" d="M217 1805a45 45 0 1 1 90 0 45 45 0 0 1-90 0z"/><path id="dmgrh" d="M261.9 1803.24c13.08-14.23 24.8-43.24 0-43.24s-44.9 20.25-44.9 45.24c0 24.98 31.83 12.22 44.9-2z"/><path id="dmgri" d="M243.4 1816.04a24 24 0 0 1 6.05-23.56 23.76 23.76 0 0 1 23.59-6.04 65.21 65.21 0 0 1-11 16.69c-4.61 5-11.57 9.84-18.64 12.9z"/></defs><g><g transform="translate(-120 -1663)"><g><g><use fill="#565861" xlink:href="#dmgra"/></g><g><use fill="#3f4147" xlink:href="#dmgrb"/></g><g><use fill="#313338" xlink:href="#dmgrc"/></g><g><use fill="#242529" xlink:href="#dmgrd"/></g><g><use fill="#151518" xlink:href="#dmgre"/></g></g><g><use fill="#fff" xlink:href="#dmgrf"/></g><g><g><use fill="#fff" fill-opacity="0" stroke="#201a2b" stroke-miterlimit="50" stroke-width="1.7" xlink:href="#dmgrg"/></g><g><use fill="#fff" fill-opacity="0" stroke="#201a2b" stroke-miterlimit="50" stroke-width=".85" xlink:href="#dmgrh"/></g><g><use fill="#201a2b" xlink:href="#dmgri"/><use fill="#fff" fill-opacity="0" stroke="#201a2b" stroke-miterlimit="50" stroke-width=".85" xlink:href="#dmgri"/></g></g></g></g></svg>