<svg xmlns="http://www.w3.org/2000/svg" xmlns:xlink="http://www.w3.org/1999/xlink" width="284" height="284" viewBox="0 0 284 284"><defs><path id="4le5a" d="M262 1805l-83.47-114.88A142 142 0 0 1 262 1663z"/><path id="4le5b" d="M262 1805l-135.05-43.88a142 142 0 0 1 51.58-71z"/><path id="4le5c" d="M262 1805l-135.05 43.88a142 142 0 0 1 0-87.76z"/><path id="4le5d" d="M262 1805l83.47 114.88c-63.45 46.1-152.25 32.03-198.35-31.41a142 142 0 0 1-20.17-39.59z"/><path id="4le5e" d="M262 1805v-142c78.42 0 142 63.58 142 142a142 142 0 0 1-58.53 114.88z"/><path id="4le5f" d="M205 1805a57 57 0 1 1 114 0 57 57 0 0 1-114 0z"/><path id="4le5g" d="M217 1805a45 45 0 1 1 90 0 45 45 0 0 1-90 0z"/><path id="4le5h" d="M261.9 1803.24c13.08-14.23 24.8-43.24 0-43.24s-44.9 20.25-44.9 45.24c0 24.98 31.83 12.22 44.9-2z"/><path id="4le5i" d="M243.4 1816.04a24 24 0 0 1 6.05-23.56 23.76 23.76 0 0 1 23.59-6.04 65.21 65.21 0 0 1-11 16.69c-4.61 5-11.57 9.84-18.64 12.9z"/></defs><g><g transform="translate(-120 -1663)"><g><g><use fill="#64a1c8" xlink:href="#4le5a"/></g><g><use fill="#949a4d" xlink:href="#4le5b"/></g><g><use fill="#9a4d8c" xlink:href="#4le5c"/></g><g><use fill="#d08c66" xlink:href="#4le5d"/></g><g><use fill="#151518" xlink:href="#4le5e"/></g></g><g><use fill="#fff" xlink:href="#4le5f"/></g><g><g><use fill="#fff" fill-opacity="0" stroke="#201a2b" stroke-miterlimit="50" stroke-width="1.7" xlink:href="#4le5g"/></g><g><use fill="#fff" fill-opacity="0" stroke="#201a2b" stroke-miterlimit="50" stroke-width=".85" xlink:href="#4le5h"/></g><g><use fill="#201a2b" xlink:href="#4le5i"/><use fill="#fff" fill-opacity="0" stroke="#201a2b" stroke-miterlimit="50" stroke-width=".85" xlink:href="#4le5i"/></g></g></g></g></svg>