<?xml version="1.0" encoding="UTF-8"?>
<svg width="169px" height="30px" viewBox="0 0 169 30" version="1.1" xmlns="http://www.w3.org/2000/svg" xmlns:xlink="http://www.w3.org/1999/xlink">
    <!-- Generator: Sketch 51.2 (57519) - http://www.bohemiancoding.com/sketch -->
    <title>icon/logo/BSCRmin</title>
    <desc>Created with Sketch.</desc>
    <defs>
        <path d="M51.2455,15.8745 C51.6705021,16.3788359 51.883,17.0276627 51.883,17.821 C51.883,18.8410051 51.5061704,19.6258306 50.7525,20.1755 C49.9988296,20.7251694 48.8853407,21 47.412,21 L41.938,21 L41.938,9.1 L47.072,9.1 C48.3980066,9.1 49.4264963,9.36633067 50.1575,9.899 C50.8885037,10.4316693 51.254,11.1853285 51.254,12.16 C51.254,12.8173366 51.0925016,13.3754977 50.7695,13.8345 C50.4464984,14.2935023 50.0016695,14.6363322 49.435,14.863 C50.2170039,15.0330008 50.8204979,15.3701641 51.2455,15.8745 Z M43.196,10.137 L43.196,14.455 L46.987,14.455 C47.9503382,14.455 48.6926641,14.2708352 49.214,13.9025 C49.7353359,13.5341648 49.996,12.9986702 49.996,12.296 C49.996,11.5933298 49.7353359,11.0578352 49.214,10.6895 C48.6926641,10.3211648 47.9503382,10.137 46.987,10.137 L43.196,10.137 Z M49.809,19.419 C50.3530027,19.0563315 50.625,18.4896705 50.625,17.719 C50.625,16.2343259 49.5483441,15.492 47.395,15.492 L43.196,15.492 L43.196,19.963 L47.395,19.963 C48.4603387,19.963 49.2649973,19.7816685 49.809,19.419 Z M66.673,17.821 L60.043,17.821 L58.615,21 L57.306,21 L62.746,9.1 L63.987,9.1 L69.427,21 L68.101,21 L66.673,17.821 Z M66.214,16.801 L63.358,10.409 L60.502,16.801 L66.214,16.801 Z M76.5925,20.677 C75.7821626,20.3936652 75.1560022,20.019669 74.714,19.555 L75.207,18.586 C75.6376688,19.0166688 76.2099964,19.3651653 76.924,19.6315 C77.6380036,19.8978347 78.3746629,20.031 79.134,20.031 C80.1993387,20.031 80.9983307,19.835502 81.531,19.4445 C82.0636693,19.053498 82.33,18.5463364 82.33,17.923 C82.33,17.4469976 82.1855014,17.0673348 81.8965,16.784 C81.6074986,16.5006652 81.2533354,16.2825008 80.834,16.1295 C80.4146646,15.9764992 79.8310037,15.8093342 79.083,15.628 C78.1876622,15.4013322 77.4736693,15.1831677 76.941,14.9735 C76.4083307,14.7638323 75.9521686,14.4436688 75.5725,14.013 C75.1928314,13.5823312 75.003,12.9986703 75.003,12.262 C75.003,11.6613303 75.1616651,11.1145025 75.479,10.6215 C75.7963349,10.1284975 76.2836634,9.73466814 76.941,9.44 C77.5983366,9.14533186 78.4143285,8.998 79.389,8.998 C80.0690034,8.998 80.7348301,9.09149906 81.3865,9.2785 C82.0381699,9.46550093 82.6019976,9.72333169 83.078,10.052 L82.653,11.055 C82.1543308,10.7263317 81.6216695,10.4798342 81.055,10.3155 C80.4883305,10.1511658 79.9330027,10.069 79.389,10.069 C78.3463281,10.069 77.5615026,10.2701647 77.0345,10.6725 C76.5074974,11.0748353 76.244,11.5933302 76.244,12.228 C76.244,12.7040024 76.3884986,13.0864986 76.6775,13.3755 C76.9665014,13.6645014 77.3291645,13.8854992 77.7655,14.0385 C78.2018355,14.1915008 78.7883297,14.3586658 79.525,14.54 C80.397671,14.7553344 81.103164,14.9678323 81.6415,15.1775 C82.179836,15.3871677 82.6359981,15.7044979 83.01,16.1295 C83.3840019,16.5545021 83.571,17.129663 83.571,17.855 C83.571,18.4556697 83.4095016,19.0024975 83.0865,19.4955 C82.7634984,19.9885025 82.26767,20.3794986 81.599,20.6685 C80.93033,20.9575014 80.1086715,21.102 79.134,21.102 C78.2499956,21.102 77.4028374,20.9603348 76.5925,20.677 Z M99.177,19.912 L99.177,21 L90.762,21 L90.762,9.1 L98.922,9.1 L98.922,10.188 L92.02,10.188 L92.02,14.421 L98.174,14.421 L98.174,15.492 L92.02,15.492 L92.02,19.912 L99.177,19.912 Z M108.5695,20.32 C107.623162,19.7986641 106.880836,19.0761713 106.3425,18.1525 C105.804164,17.2288287 105.535,16.1946724 105.535,15.05 C105.535,13.9053276 105.804164,12.8711713 106.3425,11.9475 C106.880836,11.0238287 107.625995,10.3013359 108.578,9.78 C109.530005,9.25866406 110.595327,8.998 111.774,8.998 C112.658004,8.998 113.473996,9.14533186 114.222,9.44 C114.970004,9.73466814 115.604664,10.1653305 116.126,10.732 L115.327,11.531 C114.397662,10.5903286 113.224674,10.12 111.808,10.12 C110.867329,10.12 110.011671,10.3353312 109.241,10.766 C108.470329,11.1966688 107.866836,11.7859963 107.4305,12.534 C106.994164,13.2820037 106.776,14.120662 106.776,15.05 C106.776,15.979338 106.994164,16.8179963 107.4305,17.566 C107.866836,18.3140037 108.470329,18.9033312 109.241,19.334 C110.011671,19.7646688 110.867329,19.98 111.808,19.98 C113.236007,19.98 114.408995,19.5040048 115.327,18.552 L116.126,19.351 C115.604664,19.9176695 114.96717,20.3511652 114.2135,20.6515 C113.45983,20.9518348 112.641004,21.102 111.757,21.102 C110.578327,21.102 109.515838,20.8413359 108.5695,20.32 Z M125.2635,20.3115 C124.305829,19.7844974 123.557836,19.0620046 123.0195,18.144 C122.481164,17.2259954 122.212,16.1946724 122.212,15.05 C122.212,13.9053276 122.481164,12.8740046 123.0195,11.956 C123.557836,11.0379954 124.305829,10.3155026 125.2635,9.7885 C126.221171,9.26149736 127.289327,8.998 128.468,8.998 C129.646673,8.998 130.709162,9.25866406 131.6555,9.78 C132.601838,10.3013359 133.346997,11.0238287 133.891,11.9475 C134.435003,12.8711713 134.707,13.9053276 134.707,15.05 C134.707,16.1946724 134.435003,17.2288287 133.891,18.1525 C133.346997,19.0761713 132.601838,19.7986641 131.6555,20.32 C130.709162,20.8413359 129.646673,21.102 128.468,21.102 C127.289327,21.102 126.221171,20.8385026 125.2635,20.3115 Z M131.018,19.3425 C131.777337,18.9174979 132.372331,18.3281704 132.803,17.5745 C133.233669,16.8208296 133.449,15.979338 133.449,15.05 C133.449,14.120662 133.233669,13.2791704 132.803,12.5255 C132.372331,11.7718296 131.777337,11.1825021 131.018,10.7575 C130.258663,10.3324979 129.408671,10.12 128.468,10.12 C127.527329,10.12 126.674504,10.3324979 125.9095,10.7575 C125.144496,11.1825021 124.543836,11.7718296 124.1075,12.5255 C123.671164,13.2791704 123.453,14.120662 123.453,15.05 C123.453,15.979338 123.671164,16.8208296 124.1075,17.5745 C124.543836,18.3281704 125.144496,18.9174979 125.9095,19.3425 C126.674504,19.7675021 127.527329,19.98 128.468,19.98 C129.408671,19.98 130.258663,19.7675021 131.018,19.3425 Z M150.109,21 L147.389,17.175 C147.082998,17.2090002 146.765668,17.226 146.437,17.226 L143.241,17.226 L143.241,21 L141.983,21 L141.983,9.1 L146.437,9.1 C147.955674,9.1 149.145662,9.46266304 150.007,10.188 C150.868338,10.913337 151.299,11.9106603 151.299,13.18 C151.299,14.109338 151.063836,14.8941635 150.5935,15.5345 C150.123164,16.1748365 149.451671,16.6366653 148.579,16.92 L151.486,21 L150.109,21 Z M149.106,15.373 C149.729336,14.8516641 150.041,14.1206714 150.041,13.18 C150.041,12.2166618 149.729336,11.4771692 149.106,10.9615 C148.482664,10.4458308 147.581673,10.188 146.403,10.188 L143.241,10.188 L143.241,16.155 L146.403,16.155 C147.581673,16.155 148.482664,15.8943359 149.106,15.373 Z M167.143,19.912 L167.143,21 L158.728,21 L158.728,9.1 L166.888,9.1 L166.888,10.188 L159.986,10.188 L159.986,14.421 L166.14,14.421 L166.14,15.492 L159.986,15.492 L159.986,19.912 L167.143,19.912 Z" id="path-1"></path>
    </defs>
    <g id="icon/logo/BSCRmin" stroke="none" stroke-width="1" fill="none" fill-rule="evenodd">
        <g id="Group" stroke="#0195A1">
            <circle id="Oval" stroke-width="0.566037736" cx="15" cy="15" r="15"></circle>
            <path d="M14.96838,14.4120032 C19.3267105,9.66907079 23.2351879,0 14.96838,0 C6.70157199,0 0,6.7509193 0,15.0786003 C0,23.4062812 10.6100494,19.1549356 14.96838,14.4120032 Z" id="Mask" stroke-width="0.5"></path>
            <path d="M8.80031566,18.6792453 C8.02784162,15.9806527 8.70020262,12.9531578 10.8173987,10.827118 C12.9457318,8.68989462 15.9812397,8.0188457 18.6792453,8.81397127 C17.7570544,10.853523 16.4095305,12.8645069 15.0162439,14.3759483 C13.4757867,16.0470408 11.1579027,17.6571958 8.80031566,18.6792453 Z" id="path-1" stroke-width="0.5" fill="#0195A1" fill-rule="nonzero"></path>
        </g>
        <g id="B-A-S-E-C-O-R-E">
            <use fill="#000000" xlink:href="#path-1"></use>
            <use fill="#0195A1" xlink:href="#path-1"></use>
        </g>
    </g>
</svg>