<?xml version="1.0" encoding="UTF-8"?>
<svg width="171px" height="32px" viewBox="0 0 171 32" version="1.1" xmlns="http://www.w3.org/2000/svg" xmlns:xlink="http://www.w3.org/1999/xlink">
    <!-- Generator: Sketch 51.1 (57501) - http://www.bohemiancoding.com/sketch -->
    <title>icon/logo/BSCRmin</title>
    <desc>Created with Sketch.</desc>
    <defs>
        <path d="M52.2922607,16.8174157 C52.716567,17.3174182 52.9287169,17.9606702 52.9287169,18.747191 C52.9287169,19.758432 52.5525043,20.5365141 51.8000679,21.0814607 C51.0476314,21.6264072 49.9359657,21.8988764 48.4650373,21.8988764 L43,21.8988764 L43,10.1011236 L48.125594,10.1011236 C49.4494296,10.1011236 50.4762353,10.3651659 51.2060421,10.8932584 C51.9358489,11.421351 52.3007468,12.1685345 52.3007468,13.1348315 C52.3007468,13.7865201 52.1395128,14.3398854 51.8170401,14.7949438 C51.4945673,15.2500023 51.0504667,15.5898865 50.4847251,15.8146067 C51.2654486,15.9831469 51.8679544,16.3174132 52.2922607,16.8174157 Z M44.2559403,11.1292135 L44.2559403,15.4101124 L48.0407332,15.4101124 C49.0024941,15.4101124 49.7436045,15.2275299 50.2640869,14.8623596 C50.7845692,14.4971892 51.0448065,13.9662956 51.0448065,13.2696629 C51.0448065,12.5730302 50.7845692,12.0421367 50.2640869,11.6769663 C49.7436045,11.3117959 49.0024941,11.1292135 48.0407332,11.1292135 L44.2559403,11.1292135 Z M50.8581127,20.3314607 C51.4012247,19.9719083 51.6727766,19.4101162 51.6727766,18.6460674 C51.6727766,17.1741499 50.5978836,16.4382022 48.4480652,16.4382022 L44.2559403,16.4382022 L44.2559403,20.8707865 L48.4480652,20.8707865 C49.5116595,20.8707865 50.3150007,20.691013 50.8581127,20.3314607 Z M67.694501,18.747191 L61.0753564,18.747191 L59.6496945,21.8988764 L58.3428377,21.8988764 L63.7739308,10.1011236 L65.0128988,10.1011236 L70.4439919,21.8988764 L69.1201629,21.8988764 L67.694501,18.747191 Z M67.2362525,17.7359551 L64.3849287,11.3988764 L61.5336049,17.7359551 L67.2362525,17.7359551 Z M77.5977597,21.5786517 C76.7887491,21.2977514 76.1636139,20.9269686 75.7223354,20.4662921 L76.2145282,19.505618 C76.6444919,19.9325864 77.2158824,20.2780886 77.9287169,20.5421348 C78.6415514,20.8061811 79.3770046,20.9382022 80.1350984,20.9382022 C81.1986928,20.9382022 81.9963766,20.744384 82.5281738,20.3567416 C83.059971,19.9690992 83.3258656,19.4662952 83.3258656,18.8483146 C83.3258656,18.3764021 83.1816036,18.0000014 82.8930754,17.7191011 C82.6045471,17.4382008 82.2509638,17.2219109 81.832315,17.0702247 C81.4136662,16.9185386 80.830961,16.7528099 80.0841819,16.5730337 C79.1903101,16.3483135 78.4774863,16.1320235 77.9456891,15.9241573 C77.4138919,15.7162911 76.9584767,15.3988785 76.5794297,14.9719101 C76.2003828,14.5449417 76.0108622,13.9662958 76.0108622,13.2359551 C76.0108622,12.6404465 76.1692675,12.0983171 76.4860828,11.6095506 C76.8028982,11.1207841 77.2894287,10.7303385 77.9456891,10.4382022 C78.6019494,10.146066 79.4166052,10 80.3896809,10 C81.0685709,10 81.7333075,10.0926957 82.3839104,10.2780899 C83.0345133,10.4634841 83.5974179,10.7190995 84.0726409,11.0449438 L83.6483367,12.0393258 C83.150484,11.7134815 82.6186948,11.4691019 82.0529532,11.3061798 C81.4872115,11.1432576 80.9327929,11.0617978 80.3896809,11.0617978 C79.3487162,11.0617978 78.5651757,11.261234 78.039036,11.6601124 C77.5128962,12.0589908 77.2498303,12.5730306 77.2498303,13.2022472 C77.2498303,13.6741597 77.3940922,14.0533694 77.6826205,14.3398876 C77.9711488,14.6264059 78.333218,14.8455049 78.7688391,14.997191 C79.2044602,15.1488772 79.7899941,15.3146058 80.5254582,15.494382 C81.3967004,15.7078662 82.1010383,15.9185383 82.6384929,16.1264045 C83.1759475,16.3342707 83.6313627,16.6488743 84.0047522,17.0702247 C84.3781417,17.4915751 84.5648337,18.0617942 84.5648337,18.7808989 C84.5648337,19.3764075 84.4035997,19.9185369 84.081127,20.4073034 C83.7586542,20.8960699 83.2636376,21.2837064 82.5960625,21.5702247 C81.9284873,21.856743 81.1081741,22 80.1350984,22 C79.2525414,22 78.4067703,21.859552 77.5977597,21.5786517 Z M100.145282,20.8202247 L100.145282,21.8988764 L91.7440597,21.8988764 L91.7440597,10.1011236 L99.8906993,10.1011236 L99.8906993,11.1797753 L93,11.1797753 L93,15.3764045 L99.143924,15.3764045 L99.143924,16.4382022 L93,16.4382022 L93,20.8202247 L100.145282,20.8202247 Z M109.522403,21.2247191 C108.577615,20.7078626 107.836504,19.9915776 107.29905,19.0758427 C106.761595,18.1601078 106.492872,17.1348371 106.492872,16 C106.492872,14.8651629 106.761595,13.8398922 107.29905,12.9241573 C107.836504,12.0084224 108.580443,11.2921374 109.530889,10.7752809 C110.481335,10.2584244 111.544914,10 112.721656,10 C113.604214,10 114.418869,10.146066 115.165648,10.4382022 C115.912427,10.7303385 116.546049,11.1573006 117.066531,11.7191011 L116.268839,12.511236 C115.341023,11.578647 114.169955,11.1123596 112.755601,11.1123596 C111.81647,11.1123596 110.962212,11.3258406 110.192804,11.752809 C109.423395,12.1797774 108.820889,12.7640412 108.385268,13.505618 C107.949647,14.2471947 107.73184,15.0786471 107.73184,16 C107.73184,16.9213529 107.949647,17.7528053 108.385268,18.494382 C108.820889,19.2359588 109.423395,19.8202226 110.192804,20.247191 C110.962212,20.6741594 111.81647,20.8876404 112.755601,20.8876404 C114.18127,20.8876404 115.352338,20.4157351 116.268839,19.4719101 L117.066531,20.2640449 C116.546049,20.8258455 115.909599,21.2556165 115.157162,21.5533708 C114.404726,21.8511251 113.587241,22 112.704684,22 C111.527942,22 110.467192,21.7415756 109.522403,21.2247191 Z M126.18907,21.2162921 C125.232966,20.6938176 124.486199,19.9775326 123.948744,19.0674157 C123.411289,18.1572988 123.142566,17.1348371 123.142566,16 C123.142566,14.8651629 123.411289,13.8427012 123.948744,12.9325843 C124.486199,12.0224674 125.232966,11.3061824 126.18907,10.7837079 C127.145173,10.2612333 128.21158,10 129.388323,10 C130.565066,10 131.625816,10.2584244 132.570604,10.7752809 C133.515393,11.2921374 134.259332,12.0084224 134.802444,12.9241573 C135.345556,13.8398922 135.617108,14.8651629 135.617108,16 C135.617108,17.1348371 135.345556,18.1601078 134.802444,19.0758427 C134.259332,19.9915776 133.515393,20.7078626 132.570604,21.2247191 C131.625816,21.7415756 130.565066,22 129.388323,22 C128.21158,22 127.145173,21.7387667 126.18907,21.2162921 Z M131.934148,20.255618 C132.692242,19.8342676 133.286262,19.2500037 133.716225,18.502809 C134.146189,17.7556142 134.361168,16.9213529 134.361168,16 C134.361168,15.0786471 134.146189,14.2443858 133.716225,13.497191 C133.286262,12.7499963 132.692242,12.1657324 131.934148,11.744382 C131.176054,11.3230316 130.327454,11.1123596 129.388323,11.1123596 C128.449192,11.1123596 127.597763,11.3230316 126.834012,11.744382 C126.070261,12.1657324 125.470584,12.7499963 125.034963,13.497191 C124.599342,14.2443858 124.381534,15.0786471 124.381534,16 C124.381534,16.9213529 124.599342,17.7556142 125.034963,18.502809 C125.470584,19.2500037 126.070261,19.8342676 126.834012,20.255618 C127.597763,20.6769684 128.449192,20.8876404 129.388323,20.8876404 C130.327454,20.8876404 131.176054,20.6769684 131.934148,20.255618 Z M150.99389,21.8988764 L148.278344,18.1067416 C147.972843,18.1404496 147.656032,18.1573034 147.327902,18.1573034 L144.137135,18.1573034 L144.137135,21.8988764 L142.881195,21.8988764 L142.881195,10.1011236 L147.327902,10.1011236 C148.84409,10.1011236 150.03213,10.4606706 150.892057,11.1797753 C151.751984,11.89888 152.181942,12.8876342 152.181942,14.1460674 C152.181942,15.0674203 151.947162,15.8455024 151.477597,16.4803371 C151.008031,17.1151717 150.337637,17.5730323 149.466395,17.8539326 L152.368635,21.8988764 L150.99389,21.8988764 Z M149.992532,16.3202247 C150.614848,15.8033682 150.926001,15.0786563 150.926001,14.1460674 C150.926001,13.1910065 150.614848,12.4578677 149.992532,11.9466292 C149.370216,11.4353907 148.470701,11.1797753 147.293958,11.1797753 L144.137135,11.1797753 L144.137135,17.0955056 L147.293958,17.0955056 C148.470701,17.0955056 149.370216,16.8370812 149.992532,16.3202247 Z M168,20.8202247 L168,21.8988764 L159.598778,21.8988764 L159.598778,10.1011236 L167.745418,10.1011236 L167.745418,11.1797753 L160.854718,11.1797753 L160.854718,15.3764045 L166.998642,15.3764045 L166.998642,16.4382022 L160.854718,16.4382022 L160.854718,20.8202247 L168,20.8202247 Z" id="path-1"></path>
    </defs>
    <g id="icon/logo/BSCRmin" stroke="none" stroke-width="1" fill="none" fill-rule="evenodd">
        <g id="Group" transform="translate(1.000000, 1.000000)" stroke="#0195A1">
            <circle id="Oval" stroke-width="0.566037736" cx="15" cy="15" r="15"></circle>
            <path d="M14.96838,14.4120032 C19.3267105,9.66907079 23.2351879,0 14.96838,0 C6.70157199,0 0,6.7509193 0,15.0786003 C0,23.4062812 10.6100494,19.1549356 14.96838,14.4120032 Z" id="Mask" stroke-width="0.5"></path>
            <path d="M8.80031566,18.6792453 C8.02784162,15.9806527 8.70020262,12.9531578 10.8173987,10.827118 C12.9457318,8.68989462 15.9812397,8.0188457 18.6792453,8.81397127 C17.7570544,10.853523 16.4095305,12.8645069 15.0162439,14.3759483 C13.4757867,16.0470408 11.1579027,17.6571958 8.80031566,18.6792453 Z" id="path-1" stroke-width="0.5" fill="#0195A1" fill-rule="nonzero"></path>
        </g>
        <g id="B-A-S-E-C-O-R-E">
            <use fill="#000000" xlink:href="#path-1"></use>
            <use fill="#0195A1" xlink:href="#path-1"></use>
        </g>
    </g>
</svg>