<svg xmlns="http://www.w3.org/2000/svg" xmlns:xlink="http://www.w3.org/1999/xlink" width="24" height="322" viewBox="0 0 24 322"><defs><path id="cdx8a" d="M1025.99 5378.03a5.03 5.03 0 0 0-5.02-5.02h-5.94a5.03 5.03 0 0 0-5.02 5.02v5.94a5.03 5.03 0 0 0 5.02 5.02h5.94a5.03 5.03 0 0 0 5.02-5.02z"/><path id="cdx8b" d="M1023.3 5383.68a2.62 2.62 0 0 1-2.62 2.62h-5.36a2.62 2.62 0 0 1-2.62-2.62v-5.36a2.62 2.62 0 0 1 2.62-2.62h5.36a2.62 2.62 0 0 1 2.62 2.62v5.36zm-2.63-9.31h-5.35a3.95 3.95 0 0 0-3.95 3.95v5.35a3.95 3.95 0 0 0 3.95 3.95h5.35a3.95 3.95 0 0 0 3.95-3.95v-5.35a3.95 3.95 0 0 0-3.95-3.95z"/><path id="cdx8c" d="M1018 5383.1a2.1 2.1 0 1 1 0-4.2 2.1 2.1 0 0 1 0 4.2zm0-5.53a3.43 3.43 0 1 0 0 6.86 3.43 3.43 0 0 0 0-6.86z"/><path id="cdx8d" d="M1022.25 5377.6a.82.82 0 1 1-1.64 0 .82.82 0 0 1 1.64 0z"/><path id="cdx8e" d="M1014.75 5346.02v7.6h-2.37v-7.6zm6.62-.2c1.05.07 2.22.89 2.25 2.8.03 1.58.02 4.09.02 5h-2.38l.01-4.26c0-.63-.28-1.47-1.28-1.47-1.1 0-1.38 1.03-1.38 1.47v4.27h-2.38l.02-7.64h2.26v1.08a2.64 2.64 0 0 1 1.82-1.25 9.06 9.06 0 0 1 1.04 0zm-6.43-2.25a1.39 1.39 0 1 1-2.77 0 1.39 1.39 0 0 1 2.77 0zm-4.94-2.44v13.74c0 .63.5 1.13 1.13 1.13h13.74c.63 0 1.13-.5 1.13-1.13v-13.74c0-.63-.5-1.13-1.13-1.13h-13.74c-.63 0-1.13.5-1.13 1.13z"/><path id="cdx8f" d="M1021.33 5306h-6.7a4.63 4.63 0 0 0-4.63 4.63v6.7a4.63 4.63 0 0 0 4.63 4.63h3.52v-5.93h-2.01v-2.52h2v-1.5c0-2.07 1.18-3.52 3.02-3.52h2.01v2.51h-1c-1 0-1.5.5-1.5 1.5v1.01h2.5l-.5 2.52h-2v5.93h.66a4.63 4.63 0 0 0 4.63-4.63v-6.7a4.63 4.63 0 0 0-4.63-4.63z"/><path id="cdx8g" d="M1020.01 5277.54c4.13 0 7.5 2.06 7.5 4.62 0 2.54-3.37 4.6-7.5 4.6-4.14 0-7.51-2.06-7.51-4.6 0-2.56 3.37-4.62 7.51-4.62z"/><path id="cdx8h" d="M1025.62 5274.16c0-.52.43-.92.94-.92.52 0 .94.4.94.92a.94.94 0 0 1-1.88 0zm-13.94 6.15a1.2 1.2 0 0 1-.42-.92c0-.68.56-1.24 1.24-1.24.3 0 .56.1.76.26a5.9 5.9 0 0 0-1.58 1.9zm15.06-1.9a1.24 1.24 0 0 1 2 .98c0 .37-.16.7-.42.92a5.9 5.9 0 0 0-1.58-1.9zm-6.1-2.09l1.02-2.94 2.72.78c0 1.19.98 2.15 2.18 2.15 1.2 0 2.2-.96 2.2-2.15 0-1.2-1-2.16-2.2-2.16-.76 0-1.43.4-1.82.98l-3.31-.94a.6.6 0 0 0-.77.38l-1.32 3.9c-1.9.1-3.64.6-5.02 1.38a2.5 2.5 0 0 0-1.82-.77c-1.38 0-2.5 1.1-2.5 2.46 0 .92.53 1.73 1.3 2.14-.04.21-.06.42-.06.63 0 3.23 3.93 5.84 8.77 5.84 4.82 0 8.75-2.61 8.75-5.84 0-.2-.02-.42-.05-.63a2.42 2.42 0 0 0 1.29-2.14 2.48 2.48 0 0 0-2.5-2.46c-.72 0-1.36.3-1.82.77a11.52 11.52 0 0 0-5.03-1.38z"/><path id="cdx8i" d="M1016.5 5284.42a.59.59 0 0 1-.1-.85c.2-.28.6-.31.86-.1a4.9 4.9 0 0 0 5.5 0c.26-.21.65-.18.86.1a.6.6 0 0 1-.1.85 6.11 6.11 0 0 1-7.02 0z"/><path id="cdx8j" d="M1023.12 5280c-.69 0-1.24.56-1.24 1.24 0 .68.55 1.22 1.24 1.22.7 0 1.26-.54 1.26-1.22 0-.68-.57-1.24-1.26-1.24zm-6.25 0c.7 0 1.26.56 1.26 1.24 0 .68-.57 1.22-1.26 1.22-.7 0-1.24-.54-1.24-1.22 0-.68.55-1.24 1.24-1.24z"/><path id="cdx8k" d="M1018.4 5249.36c-.25.3-.54.5-.89.6-.34.09-.78.14-1.3.14h-.9c-.31 0-.5-.02-.56-.05a.29.29 0 0 1-.15-.17 3.05 3.05 0 0 1-.04-.65v-2.6h1.6c.7 0 1.23.06 1.57.19.34.12.6.31.77.56.17.25.25.55.25.9 0 .42-.12.78-.36 1.08zm-2.48-7.44c.8 0 1.34.05 1.65.15.31.1.55.25.71.47.16.23.25.5.25.81 0 .31-.1.58-.26.81-.18.24-.43.41-.77.52-.34.12-.87.18-1.58.18h-1.36v-2.94zm5.68 5.23a2.72 2.72 0 0 0-1.06-1.02c-.31-.17-.75-.33-1.34-.47.54-.18.98-.4 1.31-.68.33-.27.58-.59.76-.94a2.56 2.56 0 0 0-.23-2.64c-.34-.46-.81-.81-1.43-1.05-.35-.15-.8-.24-1.31-.3v-1.77l-1.74-.28v1.98h-1.11v-1.77l-1.74-.21v1.98h-3.69v1.67h.49c.32 0 .54.03.66.08.12.06.2.14.25.23.05.1.07.33.07.69v6.71c0 .35-.03.58-.07.68a.5.5 0 0 1-.25.23c-.11.06-.34.08-.66.08h-.49v1.67h3.69v1.66l1.73.32v-1.98h1.12v1.7l1.74.28v-2.08a6.12 6.12 0 0 0 1.4-.32 3.7 3.7 0 0 0 1.7-1.23 2.9 2.9 0 0 0 .2-3.22z"/><path id="cdx8l" d="M1010.55 5206.51c.37-.95 1-1.42 1.94-1.83.92-.41 4.96-.66 9.02-.68 4.06.02 8.08.27 9 .68.94.41 1.57.88 1.94 1.83.37.93.55 3.21.55 5.5s-.18 4.55-.55 5.48c-.37.95-1 1.42-1.94 1.85-.92.41-4.94.64-9 .66-4.06-.02-8.1-.25-9.02-.66-.94-.43-1.57-.9-1.94-1.85-.37-.93-.55-3.2-.55-5.48 0-2.29.18-4.57.55-5.5z"/><path id="cdx8m" d="M1018.63 5206.92v9.43l7.94-4.34z"/><path id="cdx8n" d="M1030.01 5170.9c-.74.32-1.53.53-2.36.63.85-.5 1.5-1.3 1.81-2.23-.8.46-1.67.8-2.6.98a4.13 4.13 0 0 0-7.1 2.76c0 .31.03.62.1.92a11.74 11.74 0 0 1-8.47-4.22 3.97 3.97 0 0 0 1.27 5.4c-.67-.03-1.3-.21-1.85-.51v.05c0 1.96 1.4 3.59 3.29 3.96a4.26 4.26 0 0 1-1.86.07 4.1 4.1 0 0 0 3.84 2.8 8.32 8.32 0 0 1-6.08 1.68 11.76 11.76 0 0 0 6.3 1.81 11.5 11.5 0 0 0 11.66-12.01c.8-.58 1.5-1.29 2.05-2.1z"/><path id="cdx8o" d="M1017.47 5149.45h.05l.02-.13c.1-.98.19-1.96.27-2.95.02-.21.1-.37.26-.52l3.9-3.52 4.33-3.9c.1-.09.13-.22.2-.34-.15 0-.29-.06-.41-.03-.17.04-.33.14-.48.23l-9.55 6.02c-.18.11-.21.2-.14.4l.67 2.04.88 2.7zm3.18-1.3l-2.28 2.21c-.26.26-.55.4-.93.38-.26 0-.4-.12-.49-.36l-1.73-5.37a.42.42 0 0 0-.32-.32c-1.35-.4-2.71-.83-4.06-1.26-.21-.07-.42-.15-.6-.28-.29-.19-.32-.5-.07-.72.23-.2.5-.38.8-.5 1.65-.65 3.32-1.29 5-1.93l12.68-4.9c.81-.31 1.43.13 1.34 1-.05.56-.2 1.1-.31 1.66l-2.76 13.02c-.22 1.03-.95 1.3-1.8.67l-4.25-3.14-.22-.17z"/><path id="cdx8p" d="M1019.32 5114.06l-.01.6v3.12c0 .16-.03.22-.2.22h-3.72c-.16 0-.21-.05-.2-.21v-1.73c0-.05.06-.15-.08-.16h-.08c-.05-.02-.1-.01-.13.05-.5.05-1 .09-1.5-.04a2.74 2.74 0 0 1-1.89-1.6 7 7 0 0 0-.96-1.53c-.12-.15-.31-.2-.44-.36-.05-.05-.13-.1-.1-.18.02-.1.12-.09.2-.1.8-.07 1.38.33 1.77 1 .37.62.85 1.08 1.54 1.26.5.13.98.1 1.47-.05.1-.04.17-.08.18-.22.04-.52.14-1 .49-1.44l-.35-.07a4.93 4.93 0 0 1-2.33-.97 3.64 3.64 0 0 1-1.4-2.39 9.43 9.43 0 0 1 .03-2.58c.08-.67.27-1.3.73-1.79.17-.17.18-.31.1-.53a3.56 3.56 0 0 1 .05-2.2c.04-.14.1-.18.25-.14.54.13.96.46 1.34.85.18.2.34.4.5.62.04.06.07.1.14.03.3-.23.64-.3 1-.36 1-.15 2.03-.15 3.04 0 .34.05.68.1.96.33.13.1.19.04.26-.07.27-.4.6-.75.99-1.03.24-.18.51-.3.81-.38.13-.03.18 0 .22.13.28.79.32 1.58.01 2.37-.03.1-.06.17.03.25.5.48.73 1.09.82 1.76.12.82.19 1.63.1 2.46a3.8 3.8 0 0 1-2.05 3.07c-.04 0-.08 0-.1.05l-.09.05a.4.4 0 0 0-.26.12l-.1.03c-.05-.01-.08 0-.1.05l-.07.02c-.16.02-.32.04-.46.14l-.06.01c-.12 0-.23 0-.33.08l-.27.04c-.06 0-.14 0-.2.02-.07.03-.04.07.02.09 0 .06.04.1.09.12l.1.19c0 .09.02.17.1.23l.01.1c.02.12.02.23.09.34l.01.07c-.02.05-.01.1.03.13v.13z"/><path id="cdx8q" d="M1029.92 5070.08l-6.03-3.01a.63.63 0 0 0-.29-.07c-.26 0-.46.1-.58.31l-3.62 5.88 4.35 7.08 3.36-5.45c1.9-3.1 2.86-4.65 2.86-4.68 0-.03-.02-.05-.05-.06zm-5.95 11.19l4.92 2.45c.17.1.35.15.53.15.18 0 .32-.06.42-.18.11-.1.16-.26.16-.45v-11.76zm-6.6-3.29l5.97 2.96-5.97-9.66zm-.73-7.88l-5.7-2.86a1.29 1.29 0 0 0-.5-.16c-.15 0-.25.05-.33.15a.64.64 0 0 0-.11.38v12.72c0 .18.06.35.17.53.1.17.24.3.4.37l5.18 2.6c.12.06.24.09.37.09.17 0 .31-.06.4-.2.1-.13.14-.28.14-.47v-13.1l-.02-.05z"/></defs><g><g transform="translate(-1009 -5067)"><g><use fill="#201a2b" xlink:href="#cdx8a"/></g><g><use fill="#fefefe" xlink:href="#cdx8b"/></g><g><use fill="#fefefe" xlink:href="#cdx8c"/></g><g><use fill="#fefefe" xlink:href="#cdx8d"/></g></g><g transform="translate(-1009 -5067)"><use fill="#201a2b" xlink:href="#cdx8e"/></g><g transform="translate(-1009 -5067)"><use fill="#201a2b" xlink:href="#cdx8f"/></g><g transform="translate(-1009 -5067)"><g><use fill="#201a2b" xlink:href="#cdx8g"/></g><g><use fill="#201a2b" xlink:href="#cdx8h"/></g><g><use fill="#fefefe" xlink:href="#cdx8i"/></g><g><use fill="#fefefe" xlink:href="#cdx8j"/></g></g><g transform="translate(-1009 -5067)"><g><use fill="#201a2b" xlink:href="#cdx8k"/></g></g><g transform="translate(-1009 -5067)"><g><use fill="#201a2b" xlink:href="#cdx8l"/></g><g><use fill="#fff" xlink:href="#cdx8m"/></g></g><g transform="translate(-1009 -5067)"><use fill="#201a2b" xlink:href="#cdx8n"/><use fill="#fff" fill-opacity="0" stroke="#201a2b" stroke-miterlimit="50" xlink:href="#cdx8n"/></g><g transform="translate(-1009 -5067)"><use fill="#201a2b" xlink:href="#cdx8o"/></g><g transform="translate(-1009 -5067)"><use fill="#201a2b" xlink:href="#cdx8p"/><use fill="#fff" fill-opacity="0" stroke="#201a2b" stroke-miterlimit="50" xlink:href="#cdx8p"/></g><g transform="translate(-1009 -5067)"><use fill="#201a2b" xlink:href="#cdx8q"/></g></g></svg>