<svg id="Слой_1" data-name="Слой 1" xmlns="http://www.w3.org/2000/svg" xmlns:xlink="http://www.w3.org/1999/xlink" viewBox="0 0 1440 1024"><defs><style>.cls-1{fill:none;}.cls-2{fill:#fff;}.cls-3{fill:#0195a1;}.cls-4{isolation:isolate;}.cls-5{clip-path:url(#clip-path);}.cls-6{clip-path:url(#clip-path-2);}.cls-7{clip-path:url(#clip-path-3);}.cls-8{fill:url(#Безымянный_градиент_14);}</style><clipPath id="clip-path"><polygon class="cls-1" points="1108.39 328.58 1154.06 302.03 1200.04 328.58 1154.36 355.13 1108.39 328.58"/></clipPath><clipPath id="clip-path-2"><polygon class="cls-1" points="356.17 542.51 401.77 516.04 447.74 542.51 402.07 569.06 356.17 542.51"/></clipPath><clipPath id="clip-path-3"><polygon class="cls-1" points="546.79 179.68 592.46 153.13 638.36 179.68 592.76 206.23 546.79 179.68"/></clipPath><radialGradient id="Безымянный_градиент_14" cx="720" cy="1834" r="584.15" gradientTransform="matrix(1, 0, 0, -0.52, 0, 1362.25)" gradientUnits="userSpaceOnUse"><stop offset="0" stop-color="#fff" stop-opacity="0"/><stop offset="1" stop-color="#fff"/></radialGradient></defs><title>home (1)</title><g id="landing_mainPage_home" data-name="landing/mainPage/home"><g id="BG_mainBG" data-name="BG/mainBG"><rect id="Rectangle-Copy" class="cls-2" y="2" width="1440" height="1024"/></g><g id="background"><g id="Background-2" data-name="Background"><path class="cls-3" d="M1206.67,302a9.85,9.85,0,0,0,8.92,0h0l141,81.38,1-.6-141.15-81.45c1.5-1.43,1.2-3.3-.9-4.5a9.85,9.85,0,0,0-8.92,0C1204.19,298.3,1204.19,300.62,1206.67,302Z"/><path class="cls-3" d="M1034.36,163.41a9.85,9.85,0,0,1,8.92,0h0l141-81.37,1,.6-141.15,81.45c1.5,1.43,1.2,3.3-.9,4.5a9.85,9.85,0,0,1-8.92,0C1031.89,167.16,1031.89,164.84,1034.36,163.41Z"/><path class="cls-3" d="M769.64,129.61a9.85,9.85,0,0,1,8.92,0h0l141-81.38,1,.6L779.46,130.29c1.5,1.43,1.2,3.3-.9,4.5a9.85,9.85,0,0,1-8.92,0C767.16,133.29,767.16,131,769.64,129.61Z"/><path class="cls-3" d="M377.45,199.67a9.85,9.85,0,0,0-8.93,0h0l-141-81.37-1.05.6,141.15,81.45c-1.5,1.43-1.2,3.3.9,4.5a9.85,9.85,0,0,0,8.93,0C379.92,203.42,379.92,201.09,377.45,199.67Z"/><path class="cls-3" d="M268.47,388.59a9.85,9.85,0,0,0-8.93,0h0l-141-81.37-1.05.6,141.15,81.45c-1.5,1.43-1.2,3.3.9,4.5a9.85,9.85,0,0,0,8.93,0C270.95,392.34,270.95,390,268.47,388.59Z"/><path class="cls-3" d="M257.54,298.42a9.85,9.85,0,0,1-8.93,0h0l-141,81.38-1.05-.6,141.15-81.45c-1.5-1.43-1.2-3.3.9-4.5a9.85,9.85,0,0,1,8.93,0C260,294.67,260,297,257.54,298.42Z"/><path class="cls-3" d="M307.43,507.15a9.85,9.85,0,0,1-8.93,0h0l-141,81.38-1.05-.6,141.15-81.45c-1.5-1.43-1.2-3.3.9-4.5a9.85,9.85,0,0,1,8.93,0C309.91,503.4,309.91,505.72,307.43,507.15Z"/><path class="cls-3" d="M1142.22,519a9.85,9.85,0,0,0,8.92,0h0l141,81.38,1-.6L1152,518.36c1.5-1.43,1.2-3.3-.9-4.5a9.85,9.85,0,0,0-8.92,0C1139.74,515.29,1139.74,517.61,1142.22,519Z"/><path class="cls-3" d="M1134.57,472.76a9.85,9.85,0,0,0,8.92,0h0l141,81.38,1-.6-141.15-81.45c1.5-1.43,1.2-3.3-.9-4.5a9.85,9.85,0,0,0-8.92,0C1132.09,469,1132.09,471.34,1134.57,472.76Z"/><g class="cls-4"><g class="cls-5"><path class="cls-3" d="M1113.11,330.68c-2-1.12-2-3.07,0-4.2l37.35-21.75a8.26,8.26,0,0,1,7.27,0l37.65,21.75c2,1.13,2,3.07,0,4.2L1158,352.43a8.26,8.26,0,0,1-7.27,0l-37.65-21.75m82.72-4.5-37.65-21.75a9.06,9.06,0,0,0-8.32,0l-37.35,21.75c-2.25,1.35-2.25,3.45,0,4.8l37.65,21.75a9.06,9.06,0,0,0,8.32,0L1195.84,331c2.33-1.35,2.33-3.53,0-4.8"/></g></g><g class="cls-4"><g class="cls-6"><path class="cls-3" d="M360.82,544.61c-2-1.12-2-3.07,0-4.2l37.35-21.75a8.26,8.26,0,0,1,7.28,0l37.65,21.75c2,1.13,2,3.07,0,4.2l-37.35,21.75a8.26,8.26,0,0,1-7.28,0l-37.65-21.75m82.8-4.5L406,518.36a9.06,9.06,0,0,0-8.32,0l-37.35,21.75c-2.25,1.35-2.25,3.45,0,4.8l37.65,21.75a9.06,9.06,0,0,0,8.33,0l37.35-21.75c2.32-1.28,2.25-3.45,0-4.8"/></g></g><g class="cls-4"><g class="cls-7"><path class="cls-3" d="M551.44,181.78c-2-1.12-2-3.07,0-4.2l37.35-21.75a8.26,8.26,0,0,1,7.28,0l37.65,21.75c2,1.13,2,3.07,0,4.2l-37.35,21.75a8.26,8.26,0,0,1-7.28,0l-37.65-21.75m82.8-4.5-37.65-21.75a9.06,9.06,0,0,0-8.33,0l-37.35,21.75c-2.25,1.35-2.25,3.45,0,4.8l37.65,21.75a9.06,9.06,0,0,0,8.33,0l37.35-21.75c2.33-1.35,2.25-3.45,0-4.8"/></g></g><rect class="cls-8" y="-1.01" width="1440" height="810"/></g></g></g></svg>