<svg xmlns="http://www.w3.org/2000/svg" xmlns:xlink="http://www.w3.org/1999/xlink" width="23" height="20" viewBox="0 0 23 20"><defs><path id="rbeka" d="M130.1 6525.66c0-.84.69-1.53 1.53-1.53h17.46c.84 0 1.53.69 1.53 1.53v14.86c0 .84-.69 1.53-1.53 1.53h-17.46c-.84 0-1.53-.69-1.53-1.53z"/><path id="rbekb" d="M150 6526.69l-7.53 6.41-.9.77c-.7.57-1.7.57-2.4 0l-.9-.77-7.54-6.41c-1.1-.95-.34-2.59 1.21-2.59h16.84c1.55 0 2.32 1.64 1.22 2.59z"/><path id="rbekc" d="M148.78 6542.1h-16.84c-1.55 0-2.32-1.64-1.2-2.59l7.51-6.41.9.77c.7.57 1.71.57 2.41 0l.9-.77 7.54 6.41c1.1.95.33 2.59-1.22 2.59z"/></defs><g><g transform="translate(-129 -6523)"><g><use fill="#fff" fill-opacity="0" stroke="#201a2b" stroke-miterlimit="50" stroke-width=".5" xlink:href="#rbeka"/></g><g><use fill="#fff" fill-opacity="0" stroke="#201a2b" stroke-miterlimit="50" stroke-width=".5" xlink:href="#rbekb"/></g><g><use fill="#fff" fill-opacity="0" stroke="#201a2b" stroke-miterlimit="50" stroke-width=".5" xlink:href="#rbekc"/></g></g></g></svg>