<svg xmlns="http://www.w3.org/2000/svg" xmlns:xlink="http://www.w3.org/1999/xlink" width="148" height="18" viewBox="0 0 148 18"><defs><path id="ns71a" d="M1319.92 30.08l-6.03-3.01a.63.63 0 0 0-.29-.07c-.26 0-.46.1-.58.31l-3.62 5.88 4.35 7.08 3.36-5.44c1.9-3.1 2.86-4.66 2.86-4.69 0-.03-.02-.05-.05-.06zm-5.94 11.19l4.9 2.45c.17.1.35.15.53.15.18 0 .32-.06.42-.18.11-.1.16-.26.16-.45V31.48zm-6.6-3.29l5.96 2.96-5.96-9.66zm-.74-7.88l-5.7-2.86a1.29 1.29 0 0 0-.5-.16c-.15 0-.25.05-.33.15a.64.64 0 0 0-.11.38v12.72c0 .18.06.35.17.53.1.17.24.3.4.37l5.18 2.6c.12.06.24.09.37.09.17 0 .31-.06.4-.2.1-.13.14-.28.14-.47v-13.1l-.02-.05z"/><path id="ns71b" d="M1271.32 39.06l-.01.6v3.12c0 .16-.03.22-.2.22h-3.72c-.16 0-.21-.05-.2-.21v-1.73c0-.05.06-.15-.08-.16h-.08c-.05-.02-.1-.01-.13.05-.5.05-1 .09-1.5-.04a2.74 2.74 0 0 1-1.89-1.6 7 7 0 0 0-.96-1.53c-.12-.15-.31-.2-.44-.36-.05-.05-.13-.1-.1-.18.02-.1.12-.09.2-.1.8-.07 1.38.33 1.77 1 .37.62.85 1.08 1.54 1.26.5.13.98.1 1.47-.05.1-.04.17-.08.18-.22.04-.52.14-1 .49-1.44l-.35-.07a4.93 4.93 0 0 1-2.33-.97 3.64 3.64 0 0 1-1.4-2.39 9.43 9.43 0 0 1 .03-2.58c.08-.67.27-1.3.73-1.79.17-.17.18-.31.1-.53a3.56 3.56 0 0 1 .05-2.2c.04-.14.1-.18.25-.14.54.13.96.46 1.34.85.18.2.34.4.5.62.04.06.07.1.14.03.3-.23.64-.3 1-.36 1-.15 2.03-.15 3.04 0 .34.05.68.1.96.33.13.1.19.04.26-.07.27-.4.6-.75.99-1.03.24-.18.51-.3.81-.38.13-.03.18 0 .22.12.28.8.32 1.59.01 2.38-.03.1-.06.17.03.25.5.48.73 1.09.82 1.76.12.82.19 1.63.1 2.46a3.8 3.8 0 0 1-2.05 3.07c-.04 0-.08 0-.1.05l-.09.05a.4.4 0 0 0-.26.12l-.1.03c-.05-.01-.08 0-.1.05l-.07.02c-.16.02-.32.04-.46.14l-.06.01c-.12 0-.23 0-.33.08l-.27.04c-.06 0-.14 0-.2.02-.07.03-.04.07.02.09 0 .06.04.1.09.12l.1.19c0 .09.02.17.1.23l.01.1c.02.12.02.23.09.34l.01.07c-.02.05-.01.1.03.13v.13z"/><path id="ns71c" d="M1224.47 41.45h.05l.02-.13c.1-.98.19-1.96.27-2.95.02-.21.1-.37.26-.52l3.9-3.52 4.33-3.9c.1-.09.13-.22.2-.34-.15 0-.29-.06-.41-.03-.17.04-.33.14-.48.23l-9.55 6.02c-.18.11-.21.2-.14.4l.67 2.04.88 2.7zm3.18-1.3l-2.28 2.21c-.26.26-.55.4-.93.38-.26 0-.4-.12-.49-.36l-1.73-5.37a.42.42 0 0 0-.32-.32c-1.35-.4-2.71-.83-4.06-1.26-.21-.07-.42-.15-.6-.28-.29-.19-.32-.5-.07-.72.23-.2.5-.38.8-.5 1.65-.65 3.32-1.29 5-1.93l12.68-4.9c.81-.31 1.43.13 1.34 1-.05.56-.2 1.1-.31 1.66l-2.76 13.02c-.22 1.03-.95 1.3-1.8.67l-4.25-3.14-.22-.17z"/><path id="ns71d" d="M1192 28.9c-.74.32-1.53.53-2.36.63.85-.5 1.5-1.3 1.8-2.23-.78.46-1.66.8-2.6.97a4.13 4.13 0 0 0-7.1 2.77c0 .31.04.62.1.92a11.73 11.73 0 0 1-8.45-4.22 3.97 3.97 0 0 0 1.27 5.4c-.67-.03-1.3-.21-1.86-.51v.05c0 1.96 1.42 3.59 3.3 3.96a4.26 4.26 0 0 1-1.86.07 4.1 4.1 0 0 0 3.83 2.8 8.32 8.32 0 0 1-6.07 1.68 11.75 11.75 0 0 0 6.3 1.81A11.5 11.5 0 0 0 1189.94 31c.8-.58 1.5-1.29 2.05-2.1z"/></defs><g><g transform="translate(-1172 -26)"><use fill="#473d53" xlink:href="#ns71a"/></g><g transform="translate(-1172 -26)"><use fill="#473d53" xlink:href="#ns71b"/><use fill="#fff" fill-opacity="0" stroke="#473d53" stroke-miterlimit="50" xlink:href="#ns71b"/></g><g transform="translate(-1172 -26)"><use fill="#473d53" xlink:href="#ns71c"/></g><g transform="translate(-1172 -26)"><use fill="#473d53" xlink:href="#ns71d"/><use fill="#fff" fill-opacity="0" stroke="#473d53" stroke-miterlimit="50" xlink:href="#ns71d"/></g></g></svg>