<?xml version="1.0" encoding="UTF-8"?>
<svg width="35px" height="35px" viewBox="0 0 35 35" version="1.1" xmlns="http://www.w3.org/2000/svg" xmlns:xlink="http://www.w3.org/1999/xlink">
    <!-- Generator: Sketch 51.1 (57501) - http://www.bohemiancoding.com/sketch -->
    <title>if_telegram_3069742</title>
    <desc>Created with Sketch.</desc>
    <defs></defs>
    <g id="Symbols" stroke="none" stroke-width="1" fill="none" fill-rule="evenodd">
        <g id="popUp/telegramChat/default" transform="translate(-140.000000, -5.000000)" fill-rule="nonzero">
            <g id="Group-2" transform="translate(130.000000, 0.000000)">
                <g id="if_telegram_3069742" transform="translate(10.000000, 5.000000)">
                    <circle id="ellipse" fill="#FFFFFF" cx="17.5" cy="17.5" r="17.5"></circle>
                    <path d="M16.84375,23.7021484 C16.0029297,24.515625 15.1757812,25.3222656 14.3486328,26.1289063 C14.0615234,26.4091797 13.7402344,26.5664063 13.3232422,26.5458984 C13.0429687,26.5322266 12.8857422,26.4091797 12.796875,26.1425781 C12.1679687,24.1875 11.5253906,22.2324219 10.8964844,20.2705078 C10.8349609,20.0791016 10.7460937,19.9902344 10.5546875,19.9287109 C9.07128906,19.4775391 7.58105469,19.0126953 6.10449219,18.5410156 C5.87890625,18.4658203 5.64648437,18.3769531 5.44824219,18.2402344 C5.140625,18.0351563 5.09960937,17.7001953 5.37304687,17.4541016 C5.62597656,17.2285156 5.92675781,17.0371094 6.24121094,16.9140625 C8.05957031,16.1962891 9.88476562,15.4990234 11.7099609,14.7949219 C16.3378906,13.0107422 20.9658203,11.2197266 25.59375,9.43554688 C26.4755859,9.09375 27.1523437,9.57226563 27.0566406,10.5292969 C26.9951172,11.1376953 26.8378906,11.7392578 26.7148437,12.3408203 C25.7099609,17.0849609 24.7050781,21.8359375 23.6933594,26.5800781 C23.4541016,27.7080078 22.6611328,28.0019531 21.7382812,27.3183594 C20.1865234,26.1767578 18.6347656,25.0283203 17.0830078,23.8798828 C17.0078125,23.8183594 16.9326172,23.7636719 16.84375,23.7021484 Z M13.3574219,25.1445312 C13.3779297,25.1376953 13.3916016,25.1376953 13.4121094,25.1308594 C13.4189453,25.0830078 13.4326172,25.0419922 13.4394531,25.0009766 C13.5419922,23.9277344 13.6445313,22.8476563 13.7333984,21.7744141 C13.7539063,21.5351563 13.8359375,21.3642578 14.0136719,21.2001953 C15.4423828,19.921875 16.8710938,18.6298828 18.2929688,17.3447266 C19.8720703,15.9228516 21.4511719,14.5009766 23.0234375,13.0722656 C23.1191406,12.9833984 23.1601563,12.8330078 23.2285156,12.7099609 C23.078125,12.6962891 22.9208984,12.6347656 22.7841797,12.6689453 C22.5996094,12.7167969 22.4287109,12.8261719 22.2646484,12.9287109 C18.7851563,15.1230469 15.2988281,17.3173828 11.8193359,19.5117188 C11.6210937,19.6347656 11.5869141,19.7373047 11.6621094,19.9560547 C11.921875,20.6943359 12.1542969,21.4394531 12.3935547,22.1845703 C12.7148438,23.1689453 13.0361328,24.1601563 13.3574219,25.1445312 Z" id="logo" fill="#858FA6"></path>
                </g>
            </g>
        </g>
    </g>
</svg>