<svg xmlns="http://www.w3.org/2000/svg" xmlns:xlink="http://www.w3.org/1999/xlink" width="700" height="522" viewBox="0 0 700 522"><defs><path id="1w47a" d="M1057.21 384.45L749.35 206.6c-16.88-9.75-44.2-9.75-60.95 0L382.52 384.45c-16.75 9.75-16.7 25.6.17 35.34l307.85 177.86c16.87 9.74 44.24 9.74 61 0l305.87-177.86c16.75-9.74 16.65-25.6-.22-35.34"/><path id="1w47b" d="M1068.85 398.6v-.8-.8-.78-.8-.79-.79-.8-.78-.8-.79-.79-.79-.8-.78-.8-.79-.79-.79-.8-.78-.8-.79-.79-.8-.78-.8-.79-.79-.79-.8-.78-.8-.79-.79-.79-.8-.78-.8-.79-.79-.79-.8-.78-.8-.79-.79-.79-.8-.67c.2-5.63-2.84-11.27-8.47-15.87l-1.2-.94-.58-.47-.67-.44-2.7-1.74-5.52-3.2-11.03-6.42-22.08-12.84-88.32-51.37-176.94-102.49c-7.81-4.46-18.32-7.3-29.23-7.81-10.9-.52-22.06 1.25-30.92 4.93l-1.64.7-.83.36-.75.4c-1 .53-2.05 1.06-3 1.6l-5.5 3.22-10.98 6.36-21.95 12.81-87.92 51.27-175.44 102.69c-7.48 4.4-12.18 10.33-13 16.5-.13.87-.17 1.76-.14 2.65V399.16c-.18 5.63 2.9 11.27 8.58 15.83l1.19.93.58.46.67.43c.9.58 1.78 1.16 2.69 1.7l5.56 3.19 11.11 6.35 22.25 12.83 88.84 51 177.43 102.23c6.27 3.62 13.93 5.94 21.94 6.93 1.92.25 3.86.42 5.82.52 10.4.58 21.04-1.15 29.5-4.67 4.31-1.73 7.78-4 11.49-6.1l11-6.38 22.04-12.78 88.13-51.1 176.6-102.04c7.51-4.37 12.33-10.3 13.22-16.49.14-.93.19-1.87.15-2.8l.02-.6z"/><path id="1w47c" d="M1057.21 339.95L749.35 162.1c-16.88-9.75-44.2-9.75-60.95 0L382.52 339.96c-16.75 9.74-16.7 25.6.17 35.34l307.85 177.85c16.87 9.74 44.24 9.74 61 0l305.87-177.85c16.75-9.75 16.65-25.6-.22-35.34"/><path id="1w47d" d="M668.9 227.58a244.66 244.66 0 0 1 68.97-4.84c3.79.36 4.78 1.08 5.03 1.37l5.24 8.14c-.36.43-.7.85-4.98.58-29.85-2.1-60.45-.03-89 6.24-2.72.58-3.27.53-3.89.46l.13-.4 12.7-9.42c1.81-1 3.76-1.72 5.78-2.14m74.14 4.97c3.1.17 3.3-.07 3.62-.43l-4.99-8.12c-.35-.26-1.08-.78-3.66-1a246.6 246.6 0 0 0-69.52 4.88c-2.7.65-3.83 1.3-4.2 1.56l-12.42 9.34c.66.42.66.42 2.75 0 28.37-6.24 58.78-8.3 88.45-6.2"/><path id="1w47e" d="M588.35 263.74l29.54-17.04 1.84-1.05a169.41 169.41 0 0 1 32.7-13.78 8.77 8.77 0 0 1 2.31-.48l.18.31c-4.24 3.37-10.44 7.1-14.92 10.14-1.39.82-3.56 1.69-7.05 2.8a218.64 218.64 0 0 0-44.6 19.1m.8-.47c15.81-8.42 21.72-11.56 44.33-19 1.77-.5 3.49-1.18 5.12-2.03l14.89-9.99.3-.29c-.61-.1-.61-.1-1.89.26-14.96 5.05-20.38 7.02-34.82 14.92l-27.92 16.13"/><path id="1w47f" d="M719.24 227.47c5.36.04 7.88 1.05 7.26 1.73-1.36 1.5-14.92 1.3-14.66-.22.12-.7 3.2-1.5 7.4-1.52m0 2.6c5.08-.06 6.97-.75 6.21-1.4-1.76-1.51-12.34-1.26-12.57.3-.1.64 2.64 1.14 6.36 1.1"/><path id="1w47g" d="M700.36 228.25c4.78-.28 6.64.44 6.14 1.06-1.16 1.47-13.8 2.35-13.65.95.08-.7 3.37-1.73 7.51-2.01"/><path id="1w47h" d="M681.61 230.18c4.5-.58 5.93 0 5.51.54-1.08 1.49-13.68 3.47-13.62 2.12.03-.69 3.86-2.08 8.09-2.66"/><path id="1w47i" d="M719.29 223.97c4.62.03 6.7.97 6.17 1.61-1.1 1.35-12.03 1.28-12.45-.07-.23-.78 2.82-1.52 6.27-1.53"/><path id="1w47j" d="M702.13 224.5c4.66-.26 6.46.52 5.96 1.19-1.16 1.54-12.9 2.48-13.37 1.06-.27-.83 3.54-1.98 7.41-2.25m-1.26 2.66c4.82-.38 7-1.3 6.24-1.92-1.6-1.36-11.26-.28-11.47 1.27-.08.58 2.07.87 5.23.65"/><path id="1w47k" d="M685.06 226.35c4.08-.51 5.33.05 4.91.62-1.04 1.42-11.97 3.24-12.44 2.06-.26-.67 3.4-2.11 7.51-2.68"/><path id="1w47l" d="M755.07 224.56c22.7 3.25 44.27 9.72 62.52 19.4 1.66.9 2.82 1.53 6.39 3.57l23.54 13.42.52.3c-.43-.2-.43-.2-1.94-1.01-23.56-12.5-51.4-20.85-80.68-25.04-4.87-.74-6.04-1.51-6.48-1.8l-7.25-8.37.24-.5c1.04-.2 2.1-.2 3.15 0m90.25 35.25l1.55.82-.5-.3-23.33-13.3c-2.8-1.59-3.92-2.19-4.66-2.58-18.4-9.76-40.13-16.29-63-19.56a6.3 6.3 0 0 0-2.32 0l-.16.36 7.5 8.4c.64.36 1.35.78 4.71 1.31 29.12 4.17 56.78 12.47 80.19 24.88"/><path id="1w47m" d="M634.74 239.66h.07c3.29-1.2 5.1-1.64 5.56-1.31.18 1.46-19.51 9.2-20.99 9.08.05-.22.06-.28 1.39-1.07 1.22-.54 2.46-1.06 3.7-1.58-.27.15-.52.33-.75.54l.08.1c1.52-.17 11.58-4.2 12.35-5.32l-.05-.11c-.53-.1-1.95.4-3.27.88h-.04c.57-.36 1.34-.9 1.95-1.2"/><path id="1w47n" d="M598.14 258.08c2.45-1.4 6.68-3.6 10.08-5.37 4.38-2.28 9.35-4.86 10.27-5.7-.17-.07-.38-.15-4.23 1.87l-.07.03-2.44 1.42h.04c1.74-.92 2.31-1.2 2.56-1.21-.5.46-1.6 1.05-12.25 6.7.26-.17 4.62-2.68 5.88-3.39h-.02l-9.82 5.67"/><path id="1w47o" d="M796.38 235.37a177.53 177.53 0 0 1 18.61 7.51c1.16.58 2.63 1.34 3 1.6a2.08 2.08 0 0 1-.51-.22 181.03 181.03 0 0 0-20.21-8.18 8.22 8.22 0 0 1-1.91-.88c.15-.1.18-.12 1.03.16"/><path id="1w47p" d="M796.37 235.37a177.51 177.51 0 0 1 18.61 7.51c1.19.58 2.66 1.36 3.03 1.6a2.12 2.12 0 0 1-.52-.21 181.05 181.05 0 0 0-20.21-8.18 8.32 8.32 0 0 1-1.93-.9c.15-.1.18-.11 1.03.17m21.1 8.92l.45.2c-.96-.58-1.94-1.1-2.94-1.58a177.52 177.52 0 0 0-18.61-7.51 3.33 3.33 0 0 0-1.01-.25c.07.3 1.21.73 1.89.97 6.9 2.32 13.64 5.05 20.21 8.18"/><path id="1w47q" d="M763.9 227.13a229.64 229.64 0 0 1 19.17 4.21c.76.2 1.5.5 2.2.87l.2.13.08.1c-.15.03-.18.04-.66-.08a229.44 229.44 0 0 0-20.72-4.55c-.46-.06-.91-.2-1.32-.43l-.13-.13-.06-.1c.15-.09.3-.17 1.22 0"/><path id="1w47r" d="M763.86 227.15a229.64 229.64 0 0 1 19.17 4.21c.78.19 1.53.47 2.24.83l.2.14.08.09c-.14.03-.18.05-.66-.08a231.44 231.44 0 0 0-20.72-4.55c-.47-.06-.93-.2-1.34-.44l-.13-.12-.06-.11c.15-.09.3-.17 1.24 0m20.98 5.22c.2.07.4.1.61.1l-.04-.11-.2-.14c-.7-.37-1.43-.66-2.2-.86a226.67 226.67 0 0 0-19.16-4.22c-.9-.14-1.07-.07-1.21 0l.04.14.13.12c.4.23.86.38 1.32.43a231.25 231.25 0 0 1 20.71 4.55"/><path id="1w47s" d="M799 237.07a184.18 184.18 0 0 1 19.8 8c.98.47 1.92.98 2.43 1.26l.27.16.11.06a1.07 1.07 0 0 1-.38-.13 187.64 187.64 0 0 0-21.29-8.61 9.08 9.08 0 0 1-1.5-.65l-.21-.14-.13-.08.1-.1c.27.05.54.12.8.22"/><path id="1w47t" d="M798.97 237.07a184.15 184.15 0 0 1 19.8 8c.98.47 1.93.98 2.44 1.27l.28.15.11.07a1.09 1.09 0 0 1-.4-.15 187.68 187.68 0 0 0-21.27-8.6 8.76 8.76 0 0 1-1.53-.66l-.21-.14-.13-.08.1-.1c.27.05.54.13.8.23m22.27 9.36l.44.2c-.05-.05-.1-.1-.16-.13l-.28-.15c-.5-.3-1.45-.8-2.42-1.26a184.18 184.18 0 0 0-19.8-8.01 4.2 4.2 0 0 0-.87-.23v.15l.07.04.21.14c.48.26.99.47 1.5.64 7.27 2.44 14.38 5.31 21.29 8.61"/><path id="1w47u" d="M766.79 229.98a240.53 240.53 0 0 1 23.9 5.39c.8.22 1.57.53 2.3.92l.21.13-.1.1a244.95 244.95 0 0 0-26.1-5.9c-.48-.04-.96-.19-1.39-.43l-.13-.12v-.12c.43-.08.86-.06 1.28.05"/><path id="1w47v" d="M766.78 229.97a240.36 240.36 0 0 1 23.89 5.39c.81.22 1.6.53 2.34.93l.21.13-.1.11a4.78 4.78 0 0 1-.52-.12 244.81 244.81 0 0 0-25.57-5.78c-.5-.04-.98-.2-1.41-.44l-.13-.12v-.13a3 3 0 0 1 1.29.05m25.81 6.42c.22.08.45.12.68.12l-.07-.1-.2-.14c-.74-.4-1.51-.7-2.31-.92-7.88-2.2-15.86-4-23.91-5.4-1.1-.17-1.23-.06-1.34.03l.05.08.13.12c.43.24.9.39 1.4.44 8.62 1.47 17.16 3.4 25.58 5.78"/><path id="1w47w" d="M804.87 239.88c5.96 2.13 11.73 4.5 17.26 7.13 1.27.58 2.77 1.4 3.12 1.64-.2-.06-.4-.14-.58-.24a192.12 192.12 0 0 0-18.91-7.81 9.24 9.24 0 0 1-2-.93l.08-.08c.35.06.7.16 1.03.3"/><path id="1w47x" d="M804.87 239.9c5.96 2.14 11.73 4.51 17.26 7.14 1.27.6 2.8 1.41 3.14 1.65-.2-.06-.4-.15-.58-.25a192.14 192.14 0 0 0-18.9-7.81 9.64 9.64 0 0 1-2.03-.94l.08-.08c.36.06.7.16 1.04.3m19.8 8.52l.48.23c-.97-.6-1.99-1.13-3.02-1.62-5.53-2.62-11.3-5-17.26-7.13-.95-.33-1.02-.3-1.16-.25.63.41 1.3.74 2.02.97a192.12 192.12 0 0 1 18.93 7.8"/><path id="1w47y" d="M765.45 228.57a230.9 230.9 0 0 1 24.33 5.6c.96.26 1.88.64 2.75 1.12l-.13.1c-.2-.04-.39-.08-.58-.14a235.3 235.3 0 0 0-26.22-6.03c-1.26-.24-1.52-.46-1.65-.58l.1-.16c.46-.07.94-.05 1.4.07"/><path id="1w47z" d="M765.44 228.6a230.9 230.9 0 0 1 24.34 5.59c.87.26 2.42.82 2.83 1.2-.26.04-.26.04-.79-.1a235.32 235.32 0 0 0-26.23-6.04c-1.27-.24-1.53-.46-1.66-.58l.03-.14c.5-.1 1-.08 1.48.05m26.37 6.68c.24.08.49.13.74.14-.22-.45-2.75-1.22-2.77-1.23-8-2.3-16.13-4.17-24.34-5.6-1.1-.17-1.31-.09-1.5 0 .04.12.11.4 1.65.68a235.3 235.3 0 0 1 26.22 6.03"/><path id="1w47A" d="M805 240.7c7.05 2.4 13.96 5.19 20.7 8.37 1.37.66 2.61 1.33 3.07 1.6-.14 0-.14 0-.53-.2-7.29-3.47-14.78-6.5-22.44-9.08a9.57 9.57 0 0 1-1.98-.88l.07-.11c.38.06.75.16 1.1.3"/><path id="1w47B" d="M805 240.7c7.05 2.4 13.96 5.19 20.7 8.37 1.31.63 2.6 1.32 3.1 1.62-.15 0-.15 0-.54-.2-7.29-3.48-14.79-6.51-22.45-9.08a9.68 9.68 0 0 1-2-.9l.07-.11c.38.06.75.16 1.1.3m23.28 9.78l.52.24c-1-.6-2.03-1.15-3.09-1.65a197.46 197.46 0 0 0-20.7-8.36 4.62 4.62 0 0 0-1.15-.3c.03.11.1.35 1.97.99 7.66 2.57 15.15 5.6 22.44 9.08"/><path id="1w47C" d="M824.88 249.1c1.48.66 2.94 1.33 4.4 2.02a42.2 42.2 0 0 1 3.22 1.69c-.07 0-.1 0-.64-.27-1.93-.92-3.88-1.82-5.86-2.68-.75-.32-1.49-.7-2.19-1.13l.03-.03a6 6 0 0 1 1.04.4"/><path id="1w47D" d="M824.87 249.1c1.48.65 2.95 1.33 4.4 2.02 1.32.63 2.99 1.52 3.24 1.7-.08 0-.1 0-.65-.28-1.92-.92-3.87-1.81-5.85-2.68-.76-.32-1.5-.7-2.2-1.13l.03-.03c.36.1.7.24 1.04.4m6.98 3.44c.2.1.41.2.63.28a34.72 34.72 0 0 0-3.21-1.7 218.1 218.1 0 0 0-4.4-2.02c-.34-.19-.7-.32-1.08-.4.14.24 2.19 1.16 2.2 1.16 1.98.86 3.93 1.76 5.86 2.68"/><path id="1w47E" d="M813.63 244.52c1.92.72 3.82 1.46 5.7 2.22 1.09.43 2.14.95 3.16 1.54-.11 0-.14 0-.72-.23-2.38-.98-4.8-1.92-7.23-2.82a10.4 10.4 0 0 1-2.13-1.01c.05-.04.14-.1 1.22.3"/><path id="1w47F" d="M813.61 244.52c1.93.72 3.83 1.46 5.7 2.22 1.1.43 2.16.95 3.18 1.54-.11 0-.14 0-.73-.23-2.38-.98-4.8-1.92-7.23-2.82-.75-.26-1.47-.6-2.14-1.02.05-.04.13-.1 1.22.3m8.15 3.54c.23.1.46.2.7.25-.12-.2-2.11-1.16-3.14-1.56-1.88-.77-3.78-1.51-5.7-2.22a3.4 3.4 0 0 0-1.2-.34c.03.27 2.02 1.02 2.1 1.05 2.44.9 4.85 1.84 7.23 2.82"/><path id="1w47G" d="M810.14 244.03c2.02.69 4.02 1.4 6.01 2.14 1.1.38 2.17.88 3.18 1.47-.08 0-.14.03-.81-.22-2.52-.94-5.06-1.84-7.63-2.7-.19-.07-1.83-.63-2.11-.96l.03-.05c.46.03.9.14 1.33.32"/><path id="1w47H" d="M810.14 244.03c2.02.69 4.03 1.4 6.02 2.13 1.1.39 2.18.88 3.2 1.48-.1 0-.14 0-.83-.22-2.5-.94-5.05-1.83-7.62-2.7-.19-.06-1.84-.62-2.13-.96l.03-.04c.46.02.91.13 1.33.32m8.38 3.38c.25.1.5.19.77.24v-.06a20.5 20.5 0 0 0-3.13-1.43c-1.99-.74-4-1.45-6.02-2.14-1.07-.35-1.25-.33-1.34-.31v.05c.66.4 1.36.72 2.1.95 2.58.86 5.12 1.76 7.63 2.7"/><path id="1w47I" d="M770.4 232.96a259.3 259.3 0 0 1 23.86 5.33c.85.24 2.7.86 2.97 1.23a2.3 2.3 0 0 1-.91-.15 262.4 262.4 0 0 0-25.85-5.78c-1.37-.25-1.68-.5-1.78-.58l.06-.13c.55-.09 1.11-.06 1.65.08"/><path id="1w47J" d="M770.4 233c8.14 1.43 16.11 3.2 23.87 5.33.58.15 2.7.82 3 1.24-.32 0-.63-.04-.92-.16a262.6 262.6 0 0 0-25.86-5.78c-.61-.06-1.2-.25-1.74-.54v-.16c.2-.05.5-.15 1.74.06m25.83 6.38c.28.1.56.15.85.17-.3-.5-2.48-1.13-2.89-1.25a257.4 257.4 0 0 0-23.86-5.32c-1.35-.23-1.56-.11-1.73 0 .08.12.23.38 1.79.66a262.4 262.4 0 0 1 25.85 5.78"/><path id="1w47K" d="M821.65 248.29c3.93 1.58 7.77 3.26 11.52 5.04 1.38.66 2.81 1.44 3.24 1.7-.1 0-.1 0-.63-.26a211.93 211.93 0 0 0-13.16-5.78 12.3 12.3 0 0 1-2.19-1.08c.11 0 .2-.04 1.21.36"/><path id="1w47L" d="M821.65 248.28c3.93 1.58 7.77 3.26 11.52 5.05 1.39.66 2.84 1.44 3.26 1.7-.1 0-.1 0-.64-.26a211.94 211.94 0 0 0-13.15-5.78c-.77-.29-1.51-.65-2.21-1.08.12 0 .2-.05 1.22.35m14.13 6.53l.57.28c-.2-.24-2.88-1.56-3.2-1.74a200.78 200.78 0 0 0-11.53-5.04c-.37-.17-.76-.3-1.16-.39.06.23 1.2.73 2.14 1.1 4.5 1.8 8.89 3.72 13.16 5.78"/><path id="1w47M" d="M772.06 234.42c9.4 1.63 18.69 3.77 27.85 6.4 1.05.3 2.06.7 3.02 1.2-.25.1-.25.1-.89-.08a268.6 268.6 0 0 0-29.93-6.89c-1.62-.3-1.74-.52-1.84-.67.15-.07.4-.2 1.79.04"/><path id="1w47N" d="M772.02 234.43a264.19 264.19 0 0 1 27.85 6.4c1.05.3 2.07.7 3.03 1.22-.24.09-.24.09-.9-.1a268.61 268.61 0 0 0-29.93-6.88c-1.45-.27-1.73-.49-1.85-.57.14-.15.28-.3 1.8-.05m30.02 7.5c.28.1.57.16.86.19-.33-.49-2.55-1.16-3-1.3a264.21 264.21 0 0 0-27.85-6.4 4.24 4.24 0 0 0-1.73-.1l-.03.18c.55.3 1.16.48 1.78.54a268.6 268.6 0 0 1 29.94 6.88"/><path id="1w47O" d="M768.75 231.5c8.8 1.53 17.5 3.53 26.1 6 1 .27 1.97.66 2.88 1.16-.2.1-.2.1-.8-.07a251.94 251.94 0 0 0-28.08-6.45c-1.34-.26-1.6-.48-1.73-.58.12-.15.23-.3 1.64-.06"/><path id="1w47P" d="M768.74 231.5c8.8 1.54 17.5 3.54 26.09 6 1 .28 1.97.67 2.89 1.16-.2.1-.2.1-.81-.07a251.96 251.96 0 0 0-28.09-6.45c-1.35-.26-1.63-.48-1.73-.58.12-.15.23-.3 1.65-.06m28.18 7.11c.26.09.53.15.8.17-.38-.5-2.47-1.16-2.89-1.27a247.57 247.57 0 0 0-26.1-6c-1.15-.2-1.42-.1-1.62-.04l.03.15c.53.29 1.1.47 1.7.53a251.94 251.94 0 0 1 28.08 6.46"/><path id="1w47Q" d="M581.2 422.24c-73.53-44.28-71-114.86 5.63-157.63 76.64-42.76 198.38-41.52 271.9 2.75 73.54 44.28 71.02 114.84-5.62 157.6-76.65 42.77-198.37 41.56-271.91-2.72z"/><path id="1w47R" d="M564.06 282.1l28.6-17.33a49.92 49.92 0 0 0 6.04-4.43 116.67 116.67 0 0 1 19.18-13.64l-29.56 17.04a150.57 150.57 0 0 0-24.76 17.63 6.6 6.6 0 0 0-1.16 1.24c.58.1.58.1 1.63-.54m.82-.74c-.77.44-.77.44-1.2.5.21-.4.21-.4.87-1.01 11.79-9.62 12.5-10.2 24.63-17.56l27.92-16.13c-8.27 5.2-15.5 11.84-23.77 17.01l-28.45 17.18"/><path id="1w47S" d="M575.3 308.98c-.76-13.5 4.05-27.07 14.45-39.46.19-.26.35-.54.49-.83-.58-.1-.68-.1-2.21.82l-29.64 18.39a32.13 32.13 0 0 0-6.35 5.32c-13.4 16-19.64 33.52-18.64 50.93.58 2.56 3.33.62 4.5-.33l33.41-28.67c2.78-2.49 4.04-4.94 4-6.17m-22.26-16.4c1.36-1.5 2.91-2.8 4.62-3.89l29.77-18.52c.43-.3.9-.53 1.4-.7l.1.4-.24.3c-10.45 12.5-15.32 26.18-14.55 39.78-.17 1.86-2.1 3.76-2.93 4.49l-33.43 28.5c-1.8 1.47-3.07 1.56-3.25.24-.98-17.3 5.2-34.71 18.52-50.61"/><path id="1w47T" d="M604.6 356.82c-14.84-11.29-24.04-24.27-27.64-37.62-.9-1.73-3.4 0-4.81 1.24l-33.22 29.86c-1.43 1.34-3.76 4.04-3.4 7.04 4.62 17.25 16.52 33.98 35.68 48.54 2.22 1.46 4.97.58 7-2.28l25.98-39.66c2.4-3.92 1.32-6.36.41-7.13m-67.94-.53c-.19-1.6.62-3.27 2.46-5.12l33.19-30.02c2.65-2.2 3.2-1.36 3.5-.9 3.63 13.47 12.9 26.53 27.87 37.92 1.58 1.67.31 4.18-.31 5.2l-26.18 39.53c-.7.97-2.57 3.06-5.07 1.66-19.06-14.49-30.84-31.11-35.46-48.26"/><path id="1w47U" d="M591.27 263.75c-.48 0-.95.18-1.3.5-.52.35-5.1 3.47-5.99 3.57v-.08c.4-.58 2.9-2.44 7.6-5.36l1.37-1.03c-8.9 5.43-12.95 8.55-13.01 9.25.21.1 1.66-.06 11.35-6.83"/><path id="1w47V" d="M573.5 330.13l-.3-.74c-.57-1.2-2.25-.77-4.36 1.15l-25.1 23.74c-2.09 2.09-3.09 4.43-2.6 6.12l.35.9c.73 1.5 2.56 1.16 4.66-.79l24.75-24.63c2.3-2.4 2.96-4.66 2.6-5.73"/><path id="1w47W" d="M573.73 344.76l-.43-.74c-.88-1.2-2.7-.68-4.76 1.36l-19.7 20.52c-2.01 2.23-2.76 4.63-1.95 6.3l.53.87c1.06 1.44 3.05 1.01 5.09-1.1l19.25-21.25c2.2-2.56 2.57-4.9 1.97-5.98"/><path id="1w47X" d="M575.99 360.19l-.63-.74c-1.15-1.2-3.14-.58-5.13 1.6l-13.96 16.17c-1.91 2.36-2.4 4.82-1.25 6.43l.72.84c1.37 1.37 3.52.81 5.46-1.43l13.53-16.68c2.08-2.7 2.1-5.1 1.26-6.19"/><path id="1w47Y" d="M580.23 376.76l-.82-.73c-1.4-1.16-3.73-.4-5.5 1.84l-7.83 10.2c-1.73 2.37-1.96 5.1-.5 6.53l.9.8c1.58 1.3 4.04.54 5.78-1.78l7.5-10.48c1.64-2.37 1.83-5.11.46-6.36"/><path id="1w47Z" d="M566.95 298.14a66.33 66.33 0 0 1 9.72-18.44.98.98 0 0 0 .1-.23c-.18-.04-.18-.04-.57.2l-.83.54a6.5 6.5 0 0 0-1.44 1.26 67.33 67.33 0 0 0-10.1 19.39.49.49 0 0 0 0 .24c.67.15 2.76-1.96 3.12-2.97m6.99-16.65c.4-.48.88-.9 1.42-1.24l.83-.53c.15-.12.34-.2.53-.24l.04.1-.09.16a66.36 66.36 0 0 0-9.72 18.44c-.4 1.03-2.44 3.08-3.1 2.93a.48.48 0 0 1 0-.23 67.34 67.34 0 0 1 10.1-19.39"/><path id="1w47aa" d="M566.25 291.3a74.83 74.83 0 0 1 5.3-8.26c.12-.18.12-.19.1-.28-.03-.08-.22 0-.58.23l-.83.54c-.55.35-1.04.78-1.46 1.28a75.84 75.84 0 0 0-5.73 9c-.09.19-.06.22-.03.28.5.14 2.65-1.8 3.21-2.8m2.56-6.5c.42-.49.9-.92 1.44-1.26l.83-.54c.35-.2.45-.24.58-.23.14.01.04.1-.09.28a74.83 74.83 0 0 0-5.3 8.26c-.68 1.15-2.9 3.02-3.23 2.76 0-.1 0-.1.05-.25a75.83 75.83 0 0 1 5.74-9"/><path id="1w47ab" d="M558.2 300.23a74.2 74.2 0 0 1 8.17-13.9l.12-.21-.04-.09c-.2.03-.38.12-.53.24l-.83.53c-.56.36-1.05.8-1.48 1.3a75.19 75.19 0 0 0-8.58 14.8.8.8 0 0 0-.04.23c.43.4 2.7-1.76 3.22-2.89m5.42-12.15c.42-.5.91-.93 1.46-1.29l.83-.53c.14-.1.3-.18.48-.23l.08.05a1.2 1.2 0 0 1-.12.25c-3.21 4.33-5.95 9-8.15 13.92-.55 1.12-2.64 3.12-3.18 2.9a.66.66 0 0 1 0-.26 75.2 75.2 0 0 1 8.58-14.8"/><path id="1w47ac" d="M558.89 293.01a78.18 78.18 0 0 1 2.36-3.36c.15-.21.13-.25.1-.3-.02-.06-.14-.03-.54.21l-.83.54c-.56.36-1.06.8-1.49 1.32a83.02 83.02 0 0 0-2.8 4.05c-.14.22-.12.25-.08.3.5.09 2.61-1.77 3.29-2.77m-.42-1.6a6.6 6.6 0 0 1 1.48-1.3l.83-.54c.44-.28.5-.23.57-.2.08.04 0 .1-.12.29a85.69 85.69 0 0 0-2.36 3.36c-.76 1.12-2.94 2.93-3.28 2.74 0-.08 0-.1.09-.3.88-1.35 1.82-2.7 2.8-4.04"/><path id="1w47ad" d="M554.56 300.33c.72-1.39 1.49-2.77 2.31-4.15.1-.18.1-.2.08-.29-.03-.08-.16-.07-.63.23l-.85.58c-.56.37-1.04.84-1.43 1.38a75.59 75.59 0 0 0-2.67 4.86c-.17.36 0 .36.2.3a8.67 8.67 0 0 0 3-2.9m-.52-2.27c.38-.54.86-1 1.41-1.37l.86-.58c.46-.3.54-.25.61-.22.08.03.03.1-.07.29a79.19 79.19 0 0 0-2.31 4.15c-.7 1.32-3.03 3.25-3.24 2.85-.03-.07 0-.2.06-.26a75.59 75.59 0 0 1 2.67-4.87"/><path id="1w47ae" d="M550.97 300.78a83.62 83.62 0 0 1 5.3-8.05.66.66 0 0 0 .13-.28l-.04-.06c-.18.02-.36.1-.51.22l-.83.53a6.8 6.8 0 0 0-1.5 1.35 84.6 84.6 0 0 0-5.78 8.85c-.15.28-.1.39.15.31a9.24 9.24 0 0 0 3.07-2.89m2.55-6.27c.42-.51.92-.96 1.49-1.33l.83-.53c.33-.21.44-.23.53-.21.1.02 0 .12-.13.32a83.62 83.62 0 0 0-5.3 8.05c-.69 1.15-2.88 3.06-3.26 2.85 0-.06-.03-.11.07-.3a84.6 84.6 0 0 1 5.78-8.85"/><path id="1w47af" d="M581.33 276.42l-.83.53c-.53.34-1 .74-1.4 1.22-7.97 10.8-12.08 22.35-12.31 33.91l.08.2c.98.12 2.84-2.25 2.88-3.18.36-11.15 4.38-22.27 12.06-32.7l.1-.18c-.22-.04-.22-.04-.58.2z"/><path id="1w47ag" d="M563.86 301.1c.67.15 2.74-1.93 3.1-2.94a66.34 66.34 0 0 1 9.72-18.44.96.96 0 0 0 .1-.22c-.18-.04-.19-.04-.58.2l-.83.53c-.53.34-1.01.76-1.42 1.24a67.32 67.32 0 0 0-10.1 19.4c-.02.07-.01.15.01.23z"/><path id="1w47ah" d="M564.72 293.95c-.21 0-.26 0-.67.27l-.87.57c-.53.36-.98.82-1.33 1.36a59.97 59.97 0 0 0-6.14 22.27c.06.73 1.28-.23 2.08-1.21.45-.5.77-1.11.93-1.77.65-7.4 2.68-14.6 5.99-21.25a.51.51 0 0 0 .01-.24z"/><path id="1w47ai" d="M563.03 294.09c.5.14 2.63-1.8 3.2-2.78a74.81 74.81 0 0 1 5.3-8.26c.12-.17.11-.19.09-.28-.03-.08-.22 0-.58.23l-.83.54c-.54.34-1.03.77-1.44 1.26a75.85 75.85 0 0 0-5.73 9.01c-.06.16-.04.2-.01.28z"/><path id="1w47aj" d="M565.21 301.25l-.9.66c-.51.35-.93.84-1.2 1.42a54.93 54.93 0 0 0-1.94 13.3c.12.75 1.45-.36 2.26-1.46.37-.44.62-.98.73-1.55.13-4.21.77-8.4 1.88-12.47a.52.52 0 0 0 0-.2c-.11-.04-.25-.1-.83.3z"/><path id="1w47ak" d="M555.02 303.12c.4.39 2.7-1.78 3.2-2.86a74.23 74.23 0 0 1 8.15-13.92l.11-.2-.04-.09c-.2.03-.37.11-.52.23l-.83.53c-.55.36-1.04.8-1.46 1.3a75.18 75.18 0 0 0-8.58 14.8.79.79 0 0 0-.03.21z"/><path id="1w47al" d="M555.6 295.77c.5.08 2.6-1.77 3.27-2.76a78.2 78.2 0 0 1 2.36-3.37c.15-.21.14-.25.1-.3-.02-.06-.14-.03-.54.2l-.83.54a6.6 6.6 0 0 0-1.48 1.32 83.02 83.02 0 0 0-2.8 4.04c-.14.24-.12.27-.08.33z"/><path id="1w47am" d="M556.93 295.91c-.07-.03-.15-.07-.62.22l-.85.58c-.55.37-1.03.83-1.42 1.37a75.6 75.6 0 0 0-2.67 4.87c-.17.37.05.34.2.29a8.67 8.67 0 0 0 2.98-2.9c.72-1.38 1.49-2.77 2.31-4.14.1-.18.1-.21.07-.29z"/><path id="1w47an" d="M553.14 303.08c-.1-.06-.2-.1-.7.23l-.87.57c-.55.37-1 .86-1.34 1.43a66.58 66.58 0 0 0-3.96 11.15c-.1.51.44.27.74.06.78-.53 2.07-1.87 2.37-2.89a65.64 65.64 0 0 1 3.7-10.3c.09-.13.08-.16.06-.25z"/><path id="1w47ao" d="M547.88 303.65a9.19 9.19 0 0 0 3.05-2.89 83.65 83.65 0 0 1 5.3-8.05.66.66 0 0 0 .14-.27l-.04-.06c-.19.02-.36.1-.51.22l-.83.53c-.56.37-1.06.82-1.5 1.34a84.57 84.57 0 0 0-5.77 8.84c-.13.31-.08.41.16.34z"/><path id="1w47ap" d="M549.33 303.58c-.14-.06-.21-.09-.66.2l-.87.58a5 5 0 0 0-1.38 1.42 68.88 68.88 0 0 0-6.42 17.98c-.04.52.46.39 1.27-.33a6.11 6.11 0 0 0 1.82-2.58 67.97 67.97 0 0 1 6.18-17.01.9.9 0 0 0 .06-.26z"/><path id="1w47aq" d="M556.94 303.2c-.09-.07-.2-.16-.76.23l-.88.62a4.1 4.1 0 0 0-1.29 1.43c-1.54 4-2.65 8.15-3.33 12.39 0 .53.58.3 1.5-.58a5.53 5.53 0 0 0 1.57-2.34 60.67 60.67 0 0 1 3.17-11.56.71.71 0 0 0 .02-.19z"/><path id="1w47ar" d="M621.07 354.7c-52.33-31.52-50.53-81.74 4.01-112.18 54.55-30.43 141.2-29.55 193.52 1.96 52.34 31.52 50.54 81.74-4 112.17-54.55 30.44-141.2 29.56-193.53-1.96z"/><path id="1w47as" d="M777.5 382.73c-21.78 5.52-45.37 7.78-68.6 6.8-3.67.34-4.61 3.71-4.82 5.69l-3.47 46.72c-.09 3.46 1.96 5.87 5.2 6.18 29.98 1.26 60.42-1.66 88.52-8.78 3.01-.95 4.38-3.73 3.46-7.08l-14.4-44.94c-1.36-3.76-3.95-5.02-5.91-4.59M705.9 446.5c-2.49-.38-3.73-1.85-3.8-4.5l3.2-46.72c.38-2.6 1.53-3.96 3.52-4.14 23.4.99 47.19-1.3 69.13-6.86 1.92-.2 3.33.89 4.31 3.36l14.14 45c.58 2.6-.26 4.28-2.53 5.13-27.92 7.08-58.18 9.98-87.97 8.73"/><path id="1w47at" d="M844.87 347.9c-6.63 6.6-14.92 12.77-24.88 18.33a164.71 164.71 0 0 1-26.36 11.69c-3.09 1.59-2.5 5.02-1.89 6.93l16.28 44.38c1.35 3.22 4.15 4.75 7.15 3.9a212.58 212.58 0 0 0 34.02-15.09c12.85-7.17 23.56-15.14 32.1-23.65 2.1-2.8.36-5.95-.87-7.57l-29.6-36.58c-2.56-3-4.88-3.3-5.95-2.31m-30.3 83.7c-2.3.52-4.04-.4-5.2-2.84l-16.52-44.3c-.78-2.3-.23-4.36 1.37-5.04a166.03 166.03 0 0 0 26.56-11.78c10.04-5.6 18.4-11.82 25.08-18.49 1.15-.8 2.6-.25 4.34 1.7l29.45 36.73c1.52 2.03 1.74 4.19.63 5.5-8.48 8.46-19.12 16.38-31.9 23.49a211.27 211.27 0 0 1-33.8 15.03"/><path id="1w47au" d="M864.01 298.8c1.9 13.46-1.8 27.16-11.06 39.75-1.2 2.48 1.03 5.62 2.04 6.86l30.54 35.5c1.09 1.18 3.87 3.7 6.2 1.4 11.94-16.28 16.72-33.93 14.27-51.3-.74-2.94-3.3-5.3-4.77-6.45l-33.42-25.13c-2.37-1.74-3.06-1.53-3.62-1.37-.11.23-.17.48-.18.74m26.66 82.31c-1.68 1.65-3.7-.16-4.5-1.02l-30.65-35.34c-.74-.9-2.37-3.2-1.5-5 9.33-12.7 13.06-26.5 11.15-40.07l.06-.45c.57-.25.88-.39 2.72.9l33.46 25.3c2.72 2.22 3.32 4.04 3.46 4.7 2.43 17.25-2.3 34.8-14.18 50.98"/><path id="1w47av" d="M830.44 251.68c16 10.94 26.33 23.7 31.06 36.95 1.16 2.48 3.89 4.7 5.01 5.54l33.11 23.95c2.02 1.39 2.62 1.2 3.02 1.07.3-.58.3-.58.1-1.3-6.1-17.13-19.45-33.57-40.09-47.69a126.82 126.82 0 0 0-7.15-4.45l-25.01-14.3-.98-.55c.27.3.58.55.9.78m71.22 65.4c.06.29.06.58 0 .86-.54.26-.9.2-2.27-.7l-33.06-23.77c-1.73-1.3-3.19-2.9-3.66-4.05-4.77-13.38-15.2-26.22-31.32-37.24l-.78-.58c.3.1.58.23.85.37l25.22 14.45a97.44 97.44 0 0 1 5.2 3.24c20.5 14.04 33.77 30.38 39.85 47.4"/><path id="1w47aw" d="M728.72 421.28c-7.35.66-9.14 10.5-4.24 14.76 5.06 4.4 12.42.19 11.94-6.82-.32-4.5-3.77-8.06-7.7-7.94m.61 15.4c-6.74-.15-8.66-8.35-4.45-12.53 4.2-4.18 10.7-.53 10.54 5.86-.1 3.64-2.77 6.57-6.1 6.68"/><path id="1w47ax" d="M747.6 420.65c-6.76 1.07-7.67 10.31-2.8 13.97 5 3.75 11.48-.58 10.51-7.06-.62-4.17-4.07-7.27-7.7-6.94"/><path id="1w47ay" d="M766.2 418.16c-6.6 1.5-6.74 10.79-1.63 14.12 5.23 3.4 11.29-1.36 9.82-7.74-.95-4.11-4.62-6.97-8.17-6.36"/><path id="1w47az" d="M727.9 400.63c-6.74.65-7.82 10.48-3.04 14.17 4.62 3.57 10.5-1.08 9.52-7.51-.57-3.82-3.42-6.74-6.47-6.64"/><path id="1w47aA" d="M744.99 398.94c-7.15 1.16-7.45 11.77-2.03 15.38 5.26 3.5 11.12-1.88 9.5-8.73-.95-4.05-4.23-6.97-7.47-6.66m1.85 15.32c-6.36.23-8.67-8.55-4.7-12.68 3.74-3.87 9.79.14 9.66 6.4-.07 3.36-2.15 6-4.96 6.28"/><path id="1w47aB" d="M761.95 397.28c-6.5 1.52-5.97 11.4-.7 14.44 4.8 2.76 9.68-1.91 8.29-7.93-.95-4.12-4.36-7.03-7.6-6.48"/><path id="1w47aC" d="M691.55 388.17c-22.9-2.59-44.9-8.42-63.8-17.45-3.18-.97-5.33 1.81-6.35 3.56l-22.11 42.03c-1.5 3.16-.8 6.13 1.77 7.56 24.4 11.66 52.77 19.18 82.34 22.54 3.26.2 5.73-1.88 6.3-5.3l5.48-46.56c.31-3.95-1.61-6.03-3.65-6.35m-89.72 34.19c-1.9-1.22-2.3-3.01-1.3-5.5l21.88-42.08c1.39-2.28 2.89-3.13 4.62-2.6 19.06 9.1 41.22 14.98 64.3 17.6 1.92.47 2.79 1.99 2.66 4.62l-5.77 46.54c-.58 2.6-2.07 3.85-4.58 3.84-29.36-3.35-57.57-10.81-81.8-22.42"/><path id="1w47aD" d="M811.62 389.21h-.06c-8.56 3.94-5.98 19.47 3.83 23.08 8.66 3.2 14.95-5.62 10.64-14.99-.08-.17-.2-.39-.27-.57a177.5 177.5 0 0 1-3.57 1.67c3 6.84-2.01 10.98-6.48 9.07-5.15-2.2-7.26-10.98-2-13.6l-2.11-4.68"/><path id="1w47aE" d="M811.66 389.19l-.1.04c-8.6 3.95-6.01 19.55 3.85 23.17 8.74 3.21 15.02-5.66 10.67-15.07l-.28-.58c-1.2.58-2.41 1.16-3.63 1.73 3 6.81-1.98 10.92-6.43 9.03-5.12-2.18-7.22-10.9-2-13.51h.06l-2.14-4.78m10.44 23.07c-10.1 3.9-18.67-9.41-14.71-18.68a7.85 7.85 0 0 1 4.17-4.37h.05l2.11 4.68c-5.65 2.83-2.94 12.08 2.62 13.82 4.33 1.36 8.78-2.64 5.87-9.3 1.2-.54 2.39-1.1 3.57-1.67 3.52 7.28.9 13.62-3.65 15.54"/><path id="1w47aF" d="M831.5 379.28h-.04c-7.81 4.96-2.98 20.71 6.98 22.77 8.71 1.8 12.8-8.2 6.94-16.97-1.16-1.77-3.77-4.94-7.82-6.28.06 1.39.16 3.23.2 4.62 6.25 2.16 8.56 11.43 3.38 13.6-5.17 2.17-11.34-5.58-8.88-11.22.36-.86.99-1.58 1.78-2.08l-2.57-4.46"/><path id="1w47aG" d="M853.09 367.12c.26 1.36.63 3.17.88 4.53 5.86 1.66 9.3 10.92 4.9 13.22-1 .52-2.7.8-5.16-.78l-1.11 3.92c7.89 5.14 13.6-.3 11.94-7.97-1.27-5.86-6.3-11.56-11.46-12.92"/><path id="1w47aH" d="M853.04 367.07c.27 1.39.65 3.23.9 4.62 5.88 1.62 9.3 10.82 4.9 13.13-.99.52-2.69.8-5.13-.78l-1.16 3.99c7.95 5.2 13.7-.26 12.02-7.97-1.27-5.9-6.35-11.6-11.51-12.98m6.38 17.4c3.77-3.59-.31-11.38-5.47-12.84-.26-1.36-.58-3.17-.88-4.53 10.04 2.7 15.89 18.26 8.34 22.2-1.73.9-4.66 1.41-8.83-1.3l1.11-3.92c3.17 2.04 5.06.96 5.73.4"/><path id="1w47aI" d="M864.41 286.57l.36.74c.71 1.39 2.5 3.22 4.53 4.69l24.95 17.33c2.83 1.9 2.57.43 2.52.26a3.4 3.4 0 0 0-.17-.5l-.43-.9c-.86-1.6-2.72-3.54-4.86-5.02l-24.53-16.45c-2.34-1.53-2.58-.99-2.51-.53.03.14.08.27.14.4"/><path id="1w47aJ" d="M863.28 279.92l.52.73a21.24 21.24 0 0 0 4.91 4.47l19.46 12.67c1.44.9 1.73.84 2.02.77.12-.23.18-.36-.35-1.16l-.6-.87a22.26 22.26 0 0 0-5.27-4.71L865 279.84c-1.4-.86-1.68-.84-1.97-.83l-.1.12c.03.3.16.57.35.8"/><path id="1w47aK" d="M860.06 273.28l.7.73c1.6 1.6 3.37 3 5.27 4.22l13.7 8.44c1.35.8 1.52.72 1.69.63 0-.24-.04-.37-.74-1.16l-.8-.83a33.34 33.34 0 0 0-5.61-4.37l-13.23-7.95c-1.3-.77-1.45-.71-1.62-.67 0 .17 0 .3.64.96"/><path id="1w47aL" d="M854.76 266.87l.9.71a56.68 56.68 0 0 0 5.64 3.97l7.6 4.49c.39.27.82.46 1.27.58l.07-.06c-.07-.15-.16-.33-1.16-1.16l-.97-.78a59.39 59.39 0 0 0-5.94-4.05l-7.27-4.21c-.98-.58-1.1-.58-1.21-.58 0 .1.05.2 1.07 1.02"/><path id="1w47aM" d="M869.93 307.47c.58 11.15-2.5 22.35-9.24 32.94-.15.5.04 1.05.58 1.67l.85.93c.92.9 1.26.54 1.37.43 7-10.98 10.15-22.61 9.42-34.18-.35-1.35-2.6-2.68-2.92-2a.53.53 0 0 0 0 .22"/><path id="1w47aN" d="M874.07 327.46a62.26 62.26 0 0 1-8.13 18.64c-.25.62.24 1.33.58 1.69l.85.93c.34.35.96.85 1.39.4 3.9-6 6.75-12.63 8.42-19.6.1-1.21-2.3-3.05-3-2.31a.62.62 0 0 0-.1.21"/><path id="1w47aO" d="M881.25 319.11c0 7.34-1.43 14.6-4.19 21.39-.14.64.4 1.31.74 1.66l.89.87c.57.54 1.1.65 1.28.29a57.88 57.88 0 0 0 4.26-22.4c-.19-1.29-2.44-2.71-2.89-2.1-.05.09-.08.2-.08.31"/><path id="1w47aP" d="M875.8 343.43a69.6 69.6 0 0 1-4.58 8.37c-.21.42 0 1.09.54 1.73l.86.93c.58.58 1.15.75 1.4.39a70.56 70.56 0 0 0 4.94-9.13c.39-1.12-1.92-3.15-2.89-2.56a.7.7 0 0 0-.26.29"/><path id="1w47aQ" d="M875.56 311.93c.21 4.2-.07 8.39-.84 12.51.09.62.4 1.19.9 1.58l.9.8c.36.3.98.72 1.16.23a54 54 0 0 0 .82-13.35c-.25-1.26-2.49-2.66-2.9-2.07-.04.1-.07.2-.06.3"/><path id="1w47aR" d="M883.44 343.41a69.3 69.3 0 0 1-6.93 14.1c-.28.66.22 1.37.54 1.73l.85.93c.34.35.96.85 1.42.36a70.24 70.24 0 0 0 7.27-15c.23-1.32-2.16-3.01-2.92-2.46a.7.7 0 0 0-.23.3"/><path id="1w47aS" d="M883.84 359.79a68.6 68.6 0 0 1-2.06 3.41c-.23.44-.02 1.16.52 1.77l.85.93c.58.58 1.16.72 1.44.34a76.04 76.04 0 0 0 2.45-4.11c.5-1.11-1.57-3.13-2.77-2.7a.8.8 0 0 0-.43.37"/><path id="1w47aT" d="M887.5 352.36c-.6 1.4-1.25 2.8-1.95 4.2-.18.45.06 1.16.63 1.73l.87.9c.58.58 1.15.68 1.37.28a73.8 73.8 0 0 0 2.25-4.92c.36-1.16-1.86-3.12-2.89-2.55a.74.74 0 0 0-.3.35"/><path id="1w47aU" d="M891.53 338.94a62.66 62.66 0 0 1-2.84 10.4 2 2 0 0 0 .73 1.71l.9.86c.57.54 1.1.63 1.29.23a63.6 63.6 0 0 0 3.03-11.24c.12-1.2-2.21-3.01-2.93-2.31a.68.68 0 0 0-.16.33"/><path id="1w47aV" d="M891.5 360.96a77.7 77.7 0 0 1-4.59 8.17c-.24.45-.04 1.15.5 1.78l.85.93c.58.58 1.16.72 1.45.32a78.6 78.6 0 0 0 4.98-8.97c.44-1.15-1.66-3.11-2.8-2.62a.8.8 0 0 0-.4.39"/><path id="1w47aW" d="M897.64 340.73a64.86 64.86 0 0 1-4.73 17.14c-.07.66.19 1.3.68 1.73l.89.88c.34.32.97.78 1.33.23a65.78 65.78 0 0 0 4.9-18.11c0-1.43-2.32-2.9-2.93-2.22a.72.72 0 0 0-.14.35"/><path id="1w47aX" d="M886.67 328.63a58.54 58.54 0 0 1-2.19 11.6c0 .64.3 1.26.8 1.66l.91.83c.35.3.98.74 1.24.22a59.47 59.47 0 0 0 2.31-12.45c0-1.15-2.3-2.88-2.92-2.2a.62.62 0 0 0-.12.34"/><path id="1w47aY" d="M649.92 387.55a187.84 187.84 0 0 1-19.11-6.94c-1.81-.62-3.43 2-2.8 3.17.1.18.24.32.42.4 6.78 2.9 13.72 5.41 20.8 7.51 1.5.34 2.35-2.05 1.56-3.46-.18-.35-.48-.6-.85-.72"/><path id="1w47aZ" d="M682.98 394.83a235.13 235.13 0 0 1-19.44-3.64c-.92-.15-1.77.53-2.16 1.73l-.17.62c-.25.61.03 1.3.63 1.57a236.67 236.67 0 0 0 21.02 3.93 1.32 1.32 0 0 0 1.28-1.2l.1-.63c.2-1.44-.5-2.22-1.26-2.36"/><path id="1w47ba" d="M647.57 395.1c-6.9-2.08-13.7-4.54-20.33-7.37-.87-.3-1.82.24-2.4 1.37l-.26.54c-.3.74-.17 1.41.35 1.68a198.56 198.56 0 0 0 21.86 7.94c.67.09 1.3-.35 1.47-1.01l.2-.58c.42-1.42-.14-2.31-.89-2.56"/><path id="1w47bb" d="M680.66 410.36a244.75 244.75 0 0 1-24.26-4.67c-.98-.18-1.87.47-2.28 1.66l-.18.62c-.18.82.05 1.34.68 1.58 8.56 2.12 17.22 3.8 25.96 5.01.7 0 1.15-.37 1.35-1.19l.11-.64c.18-1.44-.58-2.22-1.39-2.36"/><path id="1w47bc" d="M641.9 401.6a199.82 199.82 0 0 1-17.73-6.56c-1.82-.63-3.47 1.8-2.94 3.02.1.24.28.43.52.53a203.42 203.42 0 0 0 19.43 7.2c1.6.38 2.49-2 1.64-3.43-.2-.35-.53-.62-.91-.74"/><path id="1w47bd" d="M641.91 401.57a199.8 199.8 0 0 1-17.73-6.55c-1.84-.65-3.52 1.8-2.97 3.04.1.24.3.43.53.54a203.44 203.44 0 0 0 19.43 7.19c1.61.4 2.52-2.01 1.66-3.47-.2-.36-.53-.62-.92-.75m-20.16-2.98c-1.4-.72-.36-3.05 1.24-3.57.37-.14.78-.14 1.16 0 5.7 2.43 11.63 4.62 17.73 6.57 1.85.72 1.37 3.58.06 4.12-.25.1-.53.12-.78.04a203.43 203.43 0 0 1-19.43-7.19"/><path id="1w47be" d="M681.7 402.59a239.67 239.67 0 0 1-24.7-4.88c-1.94-.35-3.25 2.27-2.5 3.4.13.2.33.36.57.44a244.22 244.22 0 0 0 26.64 5.23c1.9 0 1.99-2.73.87-3.77a1.73 1.73 0 0 0-.9-.44"/><path id="1w47bf" d="M642.1 409.94a208.92 208.92 0 0 1-21.25-7.69c-1.88-.66-3.56 1.74-2.98 3 .1.24.3.43.54.53 7.51 3.23 15.2 6.02 23.04 8.35 1.67.4 2.53-2 1.61-3.43a1.73 1.73 0 0 0-.96-.76"/><path id="1w47bg" d="M622.07 411.33c-1.54-.6-3.05-1.23-4.54-1.87-1.8-.7-3.71 1.59-3.03 2.98.11.26.32.47.58.58 1.99.86 4 1.69 6.03 2.49 1.65.53 2.69-1.81 1.87-3.33-.2-.38-.51-.67-.9-.82"/><path id="1w47bh" d="M633.62 415.55c-1.97-.66-3.92-1.34-5.84-2.04-1.88-.62-3.7 1.74-2.93 3.12.13.23.33.42.58.52 2.45.9 4.92 1.77 7.42 2.6 1.65.42 2.59-1.84 1.76-3.33-.22-.4-.58-.71-1.02-.86"/><path id="1w47bi" d="M637.53 425.06c-2.07-.62-4.12-1.26-6.15-1.94-1.87-.57-3.66 1.67-2.97 3.05.15.3.4.53.72.64 2.58.86 5.18 1.68 7.81 2.46 1.73.4 2.6-1.88 1.69-3.36a1.95 1.95 0 0 0-1.1-.85"/><path id="1w47bj" d="M637.54 425.1c-2.07-.62-4.12-1.27-6.15-1.94-1.88-.58-3.68 1.67-2.98 3.07.14.3.4.53.72.64 2.58.86 5.18 1.68 7.81 2.47 1.74.4 2.63-1.9 1.7-3.38a1.96 1.96 0 0 0-1.1-.86m-8.4 1.72c-1.58-.63-.88-2.85.72-3.58a2.06 2.06 0 0 1 1.52-.1c2.03.67 4.09 1.32 6.15 1.94 1.87.62 1.87 3.4.4 4.12-.3.15-.65.18-.99.1-2.63-.78-5.23-1.6-7.8-2.47"/><path id="1w47bk" d="M677.6 425.8a255.43 255.43 0 0 1-24.2-4.63c-2.09-.37-3.43 2.05-2.7 3.27.17.28.45.5.77.58a274.08 274.08 0 0 0 26.22 5c1.74.15 2.26-2.1 1.22-3.47-.32-.41-.79-.69-1.3-.77"/><path id="1w47bl" d="M625.73 421.19c-4.03-1.45-7.99-3-11.86-4.66-2-.72-3.71 1.69-3.07 2.95.11.26.32.47.57.58 4.4 1.9 8.92 3.68 13.54 5.32 1.73.5 2.7-1.86 1.8-3.35a1.9 1.9 0 0 0-.98-.82"/><path id="1w47bm" d="M676.24 433.53a274.24 274.24 0 0 1-28.26-5.57c-2.14-.42-3.54 1.99-2.78 3.22.17.28.45.49.78.57a278.78 278.78 0 0 0 30.38 6c2.01.06 2.22-2.47 1.08-3.62a2.11 2.11 0 0 0-1.2-.6"/><path id="1w47bn" d="M679 418.06c-8.92-1.27-17.76-3-26.5-5.2-2-.38-3.36 2.03-2.67 3.25.15.28.42.5.73.58a261.5 261.5 0 0 0 28.5 5.62c1.9.05 2.11-2.48 1.05-3.62a1.9 1.9 0 0 0-1.12-.58"/><path id="1w47bo" d="M817.2 243.43c-13.08-7.56-28.3-13.41-45.3-17.4a230.84 230.84 0 0 0-102.8 0c-16.93 3.99-32.1 9.83-45.1 17.4-13 7.57-23.08 16.38-29.91 26.2-6.58 9.49-9.9 19.51-9.82 29.8.08 10.29 3.47 20.31 10.17 29.8 6.93 9.83 17.07 18.64 30.16 26.2 13.09 7.56 28.3 13.41 45.3 17.4a225.47 225.47 0 0 0 51.45 5.77c17.3.06 34.55-1.88 51.4-5.78 16.93-3.98 32.1-9.82 45.1-17.4 13-7.56 23.05-16.36 29.87-26.19 6.58-9.49 9.9-19.51 9.82-29.8-.08-10.29-3.47-20.31-10.17-29.8-6.93-9.82-17.08-18.63-30.17-26.2"/><path id="1w47bp" d="M818.12 242.9c-13.22-7.63-28.6-13.53-45.72-17.58a233.03 233.03 0 0 0-103.8 0c-17.1 4.05-32.4 9.93-45.54 17.57-13.12 7.63-23.27 16.52-30.15 26.44-6.64 9.58-9.99 19.7-9.93 30.08.06 10.38 3.52 20.5 10.27 30.09 7 9.91 17.24 18.81 30.45 26.44 13.2 7.63 28.6 13.54 45.73 17.56a227.67 227.67 0 0 0 51.94 5.86c17.46.05 34.86-1.92 51.87-5.86 17.09-4.04 32.4-9.93 45.53-17.56 13.13-7.63 23.27-16.53 30.16-26.45 6.65-9.58 9.98-19.7 9.93-30.08-.05-10.38-3.51-20.5-10.27-30.09-6.99-9.91-17.24-18.81-30.45-26.44M624.61 355.43c-13.1-7.56-23.24-16.37-30.16-26.2-6.71-9.48-10.12-19.53-10.18-29.8-.05-10.26 3.26-20.31 9.82-29.8 6.82-9.82 16.87-18.64 29.87-26.2 13-7.55 28.17-13.4 45.1-17.4a230.84 230.84 0 0 1 102.8 0c16.97 4 32.22 9.83 45.3 17.4 13.1 7.57 23.24 16.38 30.17 26.2 6.7 9.49 10.11 19.52 10.17 29.8.06 10.28-3.25 20.31-9.82 29.8-6.82 9.82-16.86 18.64-29.86 26.2-13 7.55-28.18 13.4-45.1 17.39a224.63 224.63 0 0 1-51.4 5.78 225.47 225.47 0 0 1-51.46-5.78c-16.97-3.98-32.2-9.82-45.3-17.4"/><path id="1w47bq" d="M748.88 118.89c-8.5-4.63-18.59-6.59-29.41-5.06-30.41 4.28-55.1 34.36-55.17 67.2-.04 21.15 10.15 38.28 25.54 46.66l5.64 3.07c-15.39-8.38-25.58-25.51-25.54-46.66.06-32.84 24.76-62.92 55.17-67.2 10.82-1.52 20.9.43 29.4 5.06z"/><path id="1w47br" d="M725.1 116.9c-30.4 4.27-55.1 34.36-55.16 67.2-.06 32.83 24.54 55.99 54.94 51.71 30.4-4.28 55.11-34.36 55.18-67.2.07-32.84-24.54-55.98-54.95-51.71z"/><path id="1w47bs" d="M725.09 126.96c-25.26 3.56-45.78 28.55-45.83 55.83-.05 27.28 20.38 46.51 45.63 42.96 25.24-3.55 45.77-28.55 45.83-55.83.05-27.27-20.37-46.51-45.63-42.96z"/><path id="1w47bt" d="M725.04 144.54c7.85-1.12 15.24 1.17 20.8 6.39 5.55 5.22 8.58 12.78 8.58 21.28a37.67 37.67 0 0 1-8.66 23.7c-5.58 6.79-13 11.12-20.85 12.24-7.85 1.13-15.24-1.16-20.8-6.39-5.55-5.22-8.58-12.78-8.58-21.28a37.67 37.67 0 0 1 8.66-23.7c5.58-6.79 12.99-11.14 20.85-12.24m-20.96 55.5l-.38.48.18.18a23.75 23.75 0 0 0 9.52 5.92 25.27 25.27 0 0 0 11.55.96c7.72-1.08 15-5.36 20.46-12.02a37 37 0 0 0 8.51-23.25c.04-4.17-.76-8.3-2.37-12.14a25.62 25.62 0 0 0-6.7-9.36l-.2-.16-.38.47c-5.24-4.5-12.02-6.41-19.2-5.4-7.59 1.06-14.71 5.25-20.09 11.8a36.27 36.27 0 0 0-8.35 22.82c-.04 7.77 2.63 14.71 7.47 19.7m40.56-48.58a24.5 24.5 0 0 1 .44.4l-.44-.4m-40.19 48.9a23.7 23.7 0 0 0 .42.4l-.43-.4M724.6 207"/><path id="1w47bu" d="M727.2 161.9c-4.26.7-8.12 2.96-10.8 6.36-4.94 6.01-5.81 14.18-2.62 20l20.8-25.34a13.28 13.28 0 0 0-7.38-1"/><path id="1w47bv" d="M744.66 150.64l-.38.47-9.7 11.8-20.79 25.33-9.68 11.8-.39.47.18.18a23.75 23.75 0 0 0 9.52 5.92 25.27 25.27 0 0 0 11.55.96c7.73-1.09 15.02-5.36 20.47-12.02a37 37 0 0 0 8.5-23.27c.05-4.17-.76-8.3-2.36-12.14a25.62 25.62 0 0 0-6.74-9.33l-.2-.16m.01.81a24.48 24.48 0 0 1 3.38 3.71 26.01 26.01 0 0 1 3 5.3 29.06 29.06 0 0 1 2.09 7.88v.16c.13 1.09.2 2.18.21 3.28v1.32a36.34 36.34 0 0 1-8.33 22.06c-5.37 6.54-12.5 10.73-20.08 11.8h-.56c-.87.1-1.75.16-2.62.18h-.14c-2.7.08-5.38-.3-7.95-1.1a23.21 23.21 0 0 1-5.25-2.5c-1.4-.9-2.7-1.93-3.88-3.1l40.13-48.99"/><path id="1w47bw" d="M773.6 273.01c-28.54-16.48-74.82-16.48-103.17 0-28.36 16.48-28.2 43.31.33 59.8 28.54 16.49 74.82 16.49 103.18 0 28.36-16.49 28.2-43.31-.33-59.8"/><path id="1w47bx" d="M775.24 272.06c-29.46-17.01-77.2-17.01-106.45 0-29.25 17-29.1 44.68.35 61.7 29.44 17 77.2 17 106.44 0 29.26-17.02 29.1-44.7-.34-61.7M670.76 332.8c-28.54-16.48-28.69-43.3-.33-59.8 28.36-16.48 74.64-16.48 103.18 0 28.54 16.5 28.7 43.32.33 59.8-28.35 16.5-74.63 16.5-103.18 0"/><path id="1w47by" d="M795.74 82v220.9c.06 10.99-7.1 21.97-21.5 30.32-28.8 16.76-75.66 16.76-104.61 0-14.5-8.37-21.78-19.34-21.84-30.31V82z"/><linearGradient id="1w47bz" x1="721.76" x2="721.76" y1="82" y2="345.78" gradientUnits="userSpaceOnUse"><stop offset="0" stop-color="#fff" stop-opacity="0"/><stop offset=".27" stop-color="#f0f6f7" stop-opacity=".03"/><stop offset=".52" stop-color="#c1dcdf" stop-opacity=".12"/><stop offset=".76" stop-color="#74b1b5" stop-opacity=".27"/><stop offset=".99" stop-color="#07737c" stop-opacity=".49"/><stop offset="1" stop-color="#017079" stop-opacity=".5"/></linearGradient></defs><g><g transform="translate(-370 -83)"><g><use fill="#017079" xlink:href="#1w47a"/></g><g><use fill="#fff" xlink:href="#1w47b"/></g><g opacity=".1"><use fill="#017079" xlink:href="#1w47b"/></g><g><use fill="#fff" xlink:href="#1w47c"/></g><g><g><g><use fill="#0195a1" xlink:href="#1w47d"/></g><g><use fill="#0195a1" xlink:href="#1w47e"/></g><g><use fill="#0195a1" xlink:href="#1w47f"/></g><g><use fill="#0195a1" xlink:href="#1w47g"/></g><g><use fill="#0195a1" xlink:href="#1w47h"/></g><g><use fill="#0195a1" xlink:href="#1w47i"/></g><g><use fill="#0195a1" xlink:href="#1w47j"/></g><g><use fill="#0195a1" xlink:href="#1w47k"/></g><g><use fill="#0195a1" xlink:href="#1w47l"/></g><g><use fill="#0195a1" xlink:href="#1w47m"/></g><g><use fill="#0195a1" xlink:href="#1w47n"/></g><g><use fill="#0195a1" xlink:href="#1w47o"/></g><g><use fill="#0195a1" xlink:href="#1w47p"/></g><g><use fill="#0195a1" xlink:href="#1w47q"/></g><g><use fill="#0195a1" xlink:href="#1w47r"/></g><g><use fill="#0195a1" xlink:href="#1w47s"/></g><g><use fill="#0195a1" xlink:href="#1w47t"/></g><g><use fill="#0195a1" xlink:href="#1w47u"/></g><g><use fill="#0195a1" xlink:href="#1w47v"/></g><g><use fill="#0195a1" xlink:href="#1w47w"/></g><g><use fill="#0195a1" xlink:href="#1w47x"/></g><g><use fill="#0195a1" xlink:href="#1w47y"/></g><g><use fill="#0195a1" xlink:href="#1w47z"/></g><g><use fill="#0195a1" xlink:href="#1w47A"/></g><g><use fill="#0195a1" xlink:href="#1w47B"/></g><g><use fill="#0195a1" xlink:href="#1w47C"/></g><g><use fill="#0195a1" xlink:href="#1w47D"/></g><g><use fill="#0195a1" xlink:href="#1w47E"/></g><g><use fill="#0195a1" xlink:href="#1w47F"/></g><g><use fill="#0195a1" xlink:href="#1w47G"/></g><g><use fill="#0195a1" xlink:href="#1w47H"/></g><g><use fill="#0195a1" xlink:href="#1w47I"/></g><g><use fill="#0195a1" xlink:href="#1w47J"/></g><g><use fill="#0195a1" xlink:href="#1w47K"/></g><g><use fill="#0195a1" xlink:href="#1w47L"/></g><g><use fill="#0195a1" xlink:href="#1w47M"/></g><g><use fill="#0195a1" xlink:href="#1w47N"/></g><g><use fill="#0195a1" xlink:href="#1w47O"/></g><g><use fill="#0195a1" xlink:href="#1w47P"/></g></g><g><use fill="#242c47" xlink:href="#1w47Q"/><use fill="#fff" fill-opacity="0" stroke="#0195a1" stroke-miterlimit="50" stroke-width="2.31" xlink:href="#1w47Q"/></g><g><g><use fill="#0195a1" xlink:href="#1w47R"/></g><g><use fill="#0195a1" xlink:href="#1w47S"/></g><g><use fill="#0195a1" xlink:href="#1w47T"/></g><g><use fill="#0195a1" xlink:href="#1w47U"/></g><g><use fill="#0195a1" xlink:href="#1w47V"/></g><g><use fill="#d08c66" xlink:href="#1w47W"/></g><g><use fill="#9a4d8c" xlink:href="#1w47X"/></g><g><use fill="#949a4d" xlink:href="#1w47Y"/></g><g><use fill="#0195a1" xlink:href="#1w47Z"/></g><g><use fill="#0195a1" xlink:href="#1w47aa"/></g><g><use fill="#0195a1" xlink:href="#1w47ab"/></g><g><use fill="#0195a1" xlink:href="#1w47ac"/></g><g><use fill="#0195a1" xlink:href="#1w47ad"/></g><g><use fill="#0195a1" xlink:href="#1w47ae"/></g><g><use fill="#d08c66" xlink:href="#1w47af"/></g><g><use fill="#9a4d8c" xlink:href="#1w47ag"/></g><g><use fill="#0195a1" xlink:href="#1w47ah"/></g><g><use fill="#949a4d" xlink:href="#1w47ai"/></g><g><use fill="#0195a1" xlink:href="#1w47aj"/></g><g><use fill="#0195a1" xlink:href="#1w47ak"/></g><g><use fill="#9a4d8c" xlink:href="#1w47al"/></g><g><use fill="#0195a1" xlink:href="#1w47am"/></g><g><use fill="#d08c66" xlink:href="#1w47an"/></g><g><use fill="#0195a1" xlink:href="#1w47ao"/></g><g><use fill="#0195a1" xlink:href="#1w47ap"/></g><g><use fill="#949a4d" xlink:href="#1w47aq"/></g></g><g><use fill="#fff" xlink:href="#1w47ar"/></g><g><g><use fill="#0195a1" xlink:href="#1w47as"/></g><g><use fill="#0195a1" xlink:href="#1w47at"/></g><g><use fill="#0195a1" xlink:href="#1w47au"/></g><g><use fill="#0195a1" xlink:href="#1w47av"/></g><g><use fill="#0195a1" xlink:href="#1w47aw"/></g><g><use fill="#949a4d" xlink:href="#1w47ax"/></g><g><use fill="#9a4d8c" xlink:href="#1w47ay"/></g><g><use fill="#0195a1" xlink:href="#1w47az"/></g><g><use fill="#0195a1" xlink:href="#1w47aA"/></g><g><use fill="#d08c66" xlink:href="#1w47aB"/></g><g><use fill="#0195a1" xlink:href="#1w47aC"/></g><g><use fill="#9a4d8c" xlink:href="#1w47aD"/></g><g><use fill="#9a4d8c" xlink:href="#1w47aE"/></g><g><use fill="#d08c66" xlink:href="#1w47aF"/></g><g><use fill="#949a4d" xlink:href="#1w47aG"/></g><g><use fill="#949a4d" xlink:href="#1w47aH"/></g><g><use fill="#949a4d" xlink:href="#1w47aI"/></g><g><use fill="#9a4d8c" xlink:href="#1w47aJ"/></g><g><use fill="#d08c66" xlink:href="#1w47aK"/></g><g><use fill="#0195a1" xlink:href="#1w47aL"/></g><g><use fill="#9a4d8c" xlink:href="#1w47aM"/></g><g><use fill="#d08c66" xlink:href="#1w47aN"/></g><g><use fill="#0195a1" xlink:href="#1w47aO"/></g><g><use fill="#0195a1" xlink:href="#1w47aP"/></g><g><use fill="#949a4d" xlink:href="#1w47aQ"/></g><g><use fill="#0195a1" xlink:href="#1w47aR"/></g><g><use fill="#0195a1" xlink:href="#1w47aS"/></g><g><use fill="#949a4d" xlink:href="#1w47aT"/></g><g><use fill="#9a4d8c" xlink:href="#1w47aU"/></g><g><use fill="#0195a1" xlink:href="#1w47aV"/></g><g><use fill="#d08c66" xlink:href="#1w47aW"/></g><g><use fill="#d08c66" xlink:href="#1w47aX"/></g><g><use fill="#0195a1" xlink:href="#1w47aY"/></g><g><use fill="#d08c66" xlink:href="#1w47aZ"/></g><g><use fill="#9a4d8c" xlink:href="#1w47ba"/></g><g><use fill="#0195a1" xlink:href="#1w47bb"/></g><g><use fill="#0195a1" xlink:href="#1w47bc"/></g><g><use fill="#0195a1" xlink:href="#1w47bd"/></g><g><use fill="#0195a1" xlink:href="#1w47be"/></g><g><use fill="#0195a1" xlink:href="#1w47bf"/></g><g><use fill="#0195a1" xlink:href="#1w47bg"/></g><g><use fill="#9a4d8c" xlink:href="#1w47bh"/></g><g><use fill="#949a4d" xlink:href="#1w47bi"/></g><g><use fill="#949a4d" xlink:href="#1w47bj"/></g><g><use fill="#0195a1" xlink:href="#1w47bk"/></g><g><use fill="#d08c66" xlink:href="#1w47bl"/></g><g><use fill="#9a4d8c" xlink:href="#1w47bm"/></g><g><use fill="#949a4d" xlink:href="#1w47bn"/></g></g></g><g><use fill="#fff" xlink:href="#1w47bo"/><use fill="#fff" fill-opacity="0" stroke="#64a1c8" stroke-miterlimit="50" stroke-width="2.31" xlink:href="#1w47bo"/></g><g><use fill="#fff" xlink:href="#1w47bp"/><use fill="#fff" fill-opacity="0" stroke="#64a1c8" stroke-miterlimit="50" stroke-width="2.31" xlink:href="#1w47bp"/></g><g><use fill="#fff" xlink:href="#1w47bo"/><use fill="#fff" fill-opacity="0" stroke="#64a1c8" stroke-miterlimit="50" stroke-width="2.31" xlink:href="#1w47bo"/></g><g><use fill="#fff" xlink:href="#1w47bp"/><use fill="#fff" fill-opacity="0" stroke="#0195a1" stroke-miterlimit="50" stroke-width="2.31" xlink:href="#1w47bp"/></g><g><g><use fill="#0195a1" xlink:href="#1w47bq"/></g><g><use fill="#fff" xlink:href="#1w47br"/><use fill="#fff" fill-opacity="0" stroke="#0195a1" stroke-miterlimit="50" stroke-width="1.16" xlink:href="#1w47br"/></g><g><use fill="#fff" xlink:href="#1w47bs"/><use fill="#fff" fill-opacity="0" stroke="#0195a1" stroke-miterlimit="50" stroke-width=".99" xlink:href="#1w47bs"/></g><g><g><g><use fill="#0195a1" xlink:href="#1w47bt"/></g><g><use fill="#0195a1" xlink:href="#1w47bu"/></g><g><use fill="#0195a1" xlink:href="#1w47bv"/></g></g></g></g><g><g><use fill="#fff" xlink:href="#1w47bw"/></g><g><use fill="#0195a1" xlink:href="#1w47bx"/></g></g><g><use fill="url(#1w47bz)" xlink:href="#1w47by"/></g></g></g></svg>