<svg xmlns="http://www.w3.org/2000/svg" xmlns:xlink="http://www.w3.org/1999/xlink" width="521" height="522" viewBox="0 0 521 522"><defs><path id="6939b" d="M993 5114.15c0-143.68 116.19-260.15 259.51-260.15 143.33 0 259.52 116.47 259.52 260.14 0 143.68-116.19 260.15-259.52 260.15-143.32 0-259.51-116.47-259.51-260.14z"/><path id="6939a" d="M993 5024.9c0-94.39 76.9-170.9 171.74-170.9 94.85 0 171.74 76.51 171.74 170.9s-76.9 170.9-171.74 170.9c-94.85 0-171.74-76.51-171.74-170.9z"/><path id="6939d" d="M1180.06 5235.63c-53.68-53.67-53.78-140.59-.24-194.13 53.54-53.54 140.45-53.43 194.12.24 53.68 53.67 53.78 140.59.24 194.13-53.54 53.54-140.45 53.43-194.12-.24z"/><clipPath id="6939c"><use xlink:href="#6939a"/></clipPath></defs><g><g opacity=".2" transform="translate(-992 -4853)"><g opacity=".2"><use fill="#fff" fill-opacity="0" stroke="#201a2b" stroke-miterlimit="50" stroke-width="1.13" xlink:href="#6939b"/></g><g opacity=".2"><use fill="#fff" fill-opacity="0" stroke="#201a2b" stroke-miterlimit="50" stroke-width="1.13" xlink:href="#6939a"/></g><g clip-path="url(#6939c)" opacity=".2"><use fill="#201a2b" xlink:href="#6939d"/><use fill="#fff" fill-opacity="0" stroke="#201a2b" stroke-miterlimit="50" stroke-width="2.25" xlink:href="#6939d"/></g></g></g></svg>