<?xml version="1.0" encoding="UTF-8"?>
<svg width="197px" height="55px" viewBox="0 0 197 55" version="1.1" xmlns="http://www.w3.org/2000/svg" xmlns:xlink="http://www.w3.org/1999/xlink">
    <!-- Generator: Sketch 51.1 (57501) - http://www.bohemiancoding.com/sketch -->
    <title>Logo</title>
    <desc>Created with Sketch.</desc>
    <defs>
        <path d="M26.5,25.328484 C34.2159826,16.9929815 41.1355459,0 26.5,0 C11.8644541,0 0,11.8644541 0,26.5 C0,41.1355459 18.7840174,33.6639864 26.5,25.328484 Z" id="path-1"></path>
    </defs>
    <g id="Page-1" stroke="none" stroke-width="1" fill="none" fill-rule="evenodd">
        <g id="basecoreStyleGuide" transform="translate(-119.000000, -15.000000)">
            <g id="main">
                <g id="header" transform="translate(120.000000, 16.000000)">
                    <g id="Logo">
                        <path d="M70.6796875,34 L65.3574219,34 L65.3574219,19.9082031 L70.6992188,19.9082031 C71.9036519,19.9082031 72.878577,20.2304655 73.6240234,20.875 C74.3694699,21.5195345 74.7421875,22.3691354 74.7421875,23.4238281 C74.7421875,24.1529984 74.5061873,24.8170543 74.0341797,25.4160156 C73.5621721,26.014977 72.9876336,26.3763015 72.3105469,26.5 L72.3105469,26.578125 C73.2675829,26.7018235 74.0309216,27.0761688 74.6005859,27.7011719 C75.1702502,28.326175 75.4550781,29.1074172 75.4550781,30.0449219 C75.4550781,31.2819072 75.0335329,32.250322 74.1904297,32.9501953 C73.3473265,33.6500686 72.1770908,34 70.6796875,34 Z M67.1152344,21.4609375 L67.1152344,25.9824219 L69.7519531,25.9824219 C70.793625,25.9824219 71.5895155,25.780601 72.1396484,25.3769531 C72.6897814,24.9733053 72.9648438,24.3906288 72.9648438,23.6289062 C72.9648438,22.9322882 72.7337263,22.3968118 72.2714844,22.0224609 C71.8092425,21.6481101 71.151697,21.4609375 70.2988281,21.4609375 L67.1152344,21.4609375 Z M67.1152344,32.4472656 L70.4160156,32.4472656 C71.4772188,32.4472656 72.2812473,32.2356792 72.828125,31.8125 C73.3750027,31.3893208 73.6484375,30.7708374 73.6484375,29.9570312 C73.6484375,29.1432251 73.3636096,28.5296245 72.7939453,28.1162109 C72.224281,27.7027974 71.3763077,27.4960938 70.25,27.4960938 L67.1152344,27.4960938 L67.1152344,32.4472656 Z M91.4316406,34 L91.2167969,33.3896484 C91.073567,32.9827454 90.9091806,32.514 90.7236328,31.9833984 C90.538085,31.4527968 90.3736986,30.9840515 90.2304688,30.5771484 L90.015625,29.9667969 L84.4101562,29.9667969 L82.9941406,34 L81.1484375,34 L86.34375,19.9082031 L88.0820312,19.9082031 L93.2773438,34 L91.4316406,34 Z M87.1835938,22.046875 L86.9541016,22.6962891 C86.801106,23.1292339 86.6139334,23.6647104 86.3925781,24.3027344 C86.1712229,24.9407584 85.9482433,25.5787729 85.7236328,26.2167969 C85.4990223,26.8548209 85.3102221,27.3902973 85.1572266,27.8232422 L84.9277344,28.4726562 L89.4980469,28.4726562 L87.2421875,22.046875 L87.1835938,22.046875 Z M99.0390625,30.2207031 L100.796875,30.2207031 C100.901042,30.9759152 101.28027,31.5699848 101.93457,32.0029297 C102.58887,32.4358746 103.420568,32.6523438 104.429688,32.6523438 C105.386724,32.6523438 106.176104,32.426109 106.797852,31.9736328 C107.419599,31.5211566 107.730469,30.9498732 107.730469,30.2597656 C107.730469,29.6673147 107.518882,29.1741556 107.095703,28.7802734 C106.672524,28.3863913 105.972661,28.0820323 104.996094,27.8671875 L103.433594,27.5253906 C102.020826,27.2193995 100.993818,26.7441438 100.352539,26.0996094 C99.7112598,25.4550749 99.390625,24.6315154 99.390625,23.6289062 C99.390625,22.4635358 99.8544875,21.5130245 100.782227,20.7773438 C101.709966,20.041663 102.902987,19.6738281 104.361328,19.6738281 C105.767585,19.6738281 106.929683,20.0530561 107.847656,20.8115234 C108.76563,21.5699908 109.24414,22.5481711 109.283203,23.7460938 L107.525391,23.7460938 C107.447265,22.9713503 107.121748,22.3626324 106.548828,21.9199219 C105.975909,21.4772113 105.230473,21.2558594 104.3125,21.2558594 C103.433589,21.2558594 102.694664,21.4593079 102.095703,21.8662109 C101.496742,22.273114 101.197266,22.8346318 101.197266,23.5507812 C101.197266,24.1041694 101.402342,24.5729147 101.8125,24.9570312 C102.222658,25.3411478 102.9095,25.6373688 103.873047,25.8457031 L105.435547,26.1875 C106.906908,26.506512 107.95833,26.9720021 108.589844,27.5839844 C109.221357,28.1959666 109.537109,28.999995 109.537109,29.9960938 C109.537109,31.2981836 109.063481,32.3300743 108.116211,33.0917969 C107.168941,33.8535194 105.90756,34.234375 104.332031,34.234375 C102.795565,34.234375 101.55046,33.8697953 100.59668,33.140625 C99.6428989,32.4114547 99.1236983,31.4381571 99.0390625,30.2207031 Z M125.142578,32.4179688 L125.142578,34 L116.412109,34 L116.412109,19.9082031 L125.142578,19.9082031 L125.142578,21.4902344 L118.169922,21.4902344 L118.169922,26.0117188 L124.78125,26.0117188 L124.78125,27.5742188 L118.169922,27.5742188 L118.169922,32.4179688 L125.142578,32.4179688 Z M138.082031,34.234375 C136.141917,34.234375 134.598964,33.5784571 133.453125,32.2666016 C132.307286,30.954746 131.734375,29.1823028 131.734375,26.9492188 C131.734375,24.735666 132.310541,22.9697332 133.462891,21.6513672 C134.61524,20.3330012 136.154938,19.6738281 138.082031,19.6738281 C139.618497,19.6738281 140.922195,20.1018837 141.993164,20.9580078 C143.064133,21.8141319 143.710285,22.9453055 143.931641,24.3515625 L142.154297,24.3515625 C141.932942,23.4270787 141.451176,22.6865262 140.708984,22.1298828 C139.966793,21.5732394 139.091151,21.2949219 138.082031,21.2949219 C136.708326,21.2949219 135.608077,21.8092396 134.78125,22.8378906 C133.954423,23.8665416 133.541016,25.2369706 133.541016,26.9492188 C133.541016,28.6744878 133.951168,30.0497996 134.771484,31.0751953 C135.591801,32.1005911 136.698561,32.6132812 138.091797,32.6132812 C139.126958,32.6132812 139.999345,32.3756534 140.708984,31.9003906 C141.418623,31.4251278 141.900389,30.7578168 142.154297,29.8984375 L143.931641,29.8984375 C143.612629,31.2916736 142.946945,32.3626265 141.93457,33.1113281 C140.922195,33.8600298 139.638029,34.234375 138.082031,34.234375 Z M156.773438,19.6738281 C158.772145,19.6738281 160.354161,20.3281185 161.519531,21.6367188 C162.684902,22.945319 163.267578,24.7193898 163.267578,26.9589844 C163.267578,29.1920685 162.684902,30.9628841 161.519531,32.2714844 C160.354161,33.5800847 158.772145,34.234375 156.773438,34.234375 C154.77473,34.234375 153.192714,33.5800847 152.027344,32.2714844 C150.861973,30.9628841 150.279297,29.1920685 150.279297,26.9589844 C150.279297,24.7193898 150.861973,22.945319 152.027344,21.6367188 C153.192714,20.3281185 154.77473,19.6738281 156.773438,19.6738281 Z M156.773438,21.2949219 C155.334628,21.2949219 154.193689,21.8043569 153.350586,22.8232422 C152.507483,23.8421275 152.085938,25.2206944 152.085938,26.9589844 C152.085938,28.6907639 152.507483,30.0660756 153.350586,31.0849609 C154.193689,32.1038462 155.334628,32.6132812 156.773438,32.6132812 C158.212247,32.6132812 159.353186,32.1038462 160.196289,31.0849609 C161.039392,30.0660756 161.460938,28.6907639 161.460938,26.9589844 C161.460938,25.2206944 161.039392,23.8421275 160.196289,22.8232422 C159.353186,21.8043569 158.212247,21.2949219 156.773438,21.2949219 Z M172.037109,21.4707031 L172.037109,26.8710938 L175.40625,26.8710938 C176.311202,26.8710938 177.009438,26.6367211 177.500977,26.1679688 C177.992515,25.6992164 178.238281,25.0319054 178.238281,24.1660156 C178.238281,23.3196572 177.981122,22.6588565 177.466797,22.1835938 C176.952471,21.708331 176.239588,21.4707031 175.328125,21.4707031 L172.037109,21.4707031 Z M172.037109,28.4238281 L172.037109,34 L170.279297,34 L170.279297,19.9082031 L175.5625,19.9082031 C176.923184,19.9082031 178.01204,20.2906863 178.829102,21.0556641 C179.646163,21.8206418 180.054688,22.8378843 180.054688,24.1074219 C180.054688,25.0904997 179.804039,25.9401006 179.302734,26.65625 C178.80143,27.3723994 178.108077,27.8704413 177.222656,28.1503906 L180.484375,34 L178.423828,34 L175.40625,28.4238281 L172.037109,28.4238281 Z M195.816406,32.4179688 C195.816406,32.4179688 195.816406,32.4977206 195.816406,32.6572266 C195.816406,32.8167326 195.816406,33.00065 195.816406,33.2089844 C195.816406,33.4173187 195.816406,33.6012362 195.816406,33.7607422 C195.816406,33.9202482 195.816406,34 195.816406,34 L187.085938,34 L187.085938,19.9082031 L195.816406,19.9082031 L195.816406,21.4902344 L188.84375,21.4902344 L188.84375,26.0117188 L195.455078,26.0117188 L195.455078,27.5742188 L188.84375,27.5742188 L188.84375,32.4179688 L195.816406,32.4179688 Z" id="B-A-S-E-C-O-R-E-Copy-2" fill="#0195A1"></path>
                        <g id="logo-icon-">
                            <circle id="Oval" stroke="#0195A1" cx="26.5" cy="26.5" r="26.5"></circle>
                            <mask id="mask-2" fill="white">
                                <use xlink:href="#path-1"></use>
                            </mask>
                            <use id="Mask" stroke="#0195A1" stroke-width="0.5" fill="#E9EBED" xlink:href="#path-1"></use>
                            <circle id="Oval-4" fill="#0195A1" mask="url(#mask-2)" transform="translate(29.000000, 29.000000) rotate(-45.000000) translate(-29.000000, -29.000000) " cx="29" cy="29" r="14"></circle>
                        </g>
                    </g>
                </g>
            </g>
        </g>
    </g>
</svg>