<svg xmlns="http://www.w3.org/2000/svg" xmlns:xlink="http://www.w3.org/1999/xlink" width="355" height="355" viewBox="0 0 355 355"><defs><path id="w4pka" d="M677 1390v-129h129v129zm64.5-13a51.5 51.5 0 1 0 0-103 51.5 51.5 0 0 0 0 103z"/><path id="w4pkb" d="M659 1325.5a82.5 82.5 0 1 1 165 0 82.5 82.5 0 0 1-165 0z"/><path id="w4pkc" d="M647 1325a94 94 0 1 1 188 0 94 94 0 0 1-188 0z"/><path id="w4pkd" d="M636 1325.5c0-58.27 47.23-105.5 105.5-105.5S847 1267.23 847 1325.5 799.77 1431 741.5 1431 636 1383.77 636 1325.5z"/><path id="w4pke" d="M624 1326c0-65.17 52.83-118 118-118s118 52.83 118 118-52.83 118-118 118-118-52.83-118-118z"/><path id="w4pkf" d="M613 1326.5c0-71.52 57.98-129.5 129.5-129.5 71.52 0 129.5 57.98 129.5 129.5 0 71.52-57.98 129.5-129.5 129.5-71.52 0-129.5-57.98-129.5-129.5z"/><path id="w4pkg" d="M600 1325c0-77.87 63.13-141 141-141s141 63.13 141 141-63.13 141-141 141-141-63.13-141-141z"/><path id="w4pkh" d="M588 1324.5c0-84.22 68.28-152.5 152.5-152.5S893 1240.28 893 1324.5 824.72 1477 740.5 1477 588 1408.72 588 1324.5z"/><path id="w4pki" d="M577 1326c0-91.13 73.87-165 165-165s165 73.87 165 165-73.87 165-165 165-165-73.87-165-165z"/><path id="w4pkj" d="M565 1325.5c0-97.48 79.02-176.5 176.5-176.5S918 1228.02 918 1325.5 838.98 1502 741.5 1502 565 1422.98 565 1325.5z"/><path id="w4pkl" d="M690 1325.5a51.5 51.5 0 1 1 103 0 51.5 51.5 0 0 1-103 0z"/><path id="w4pkn" d="M688 1325.5a53.5 53.5 0 1 1 107 0 53.5 53.5 0 0 1-107 0z"/><path id="w4pko" d="M729 1348.11v-45.56l34.49 22.78z"/><clipPath id="w4pkm"><use fill="#fff" xlink:href="#w4pka"/></clipPath><filter id="w4pkk" width="204%" height="204%" x="-42%" y="-42%" filterUnits="objectBoundingBox"><feGaussianBlur in="SourceGraphic" result="FeGaussianBlur1119Out" stdDeviation="16.66015625 16.66015625"/></filter></defs><g><g transform="translate(-564 -1148)"><g><g opacity=".9"><use fill="#fff" fill-opacity="0" stroke="#0195a1" stroke-dasharray="1 1" stroke-miterlimit="50" xlink:href="#w4pkb"/></g><g opacity=".8"><use fill="#fff" fill-opacity="0" stroke="#0195a1" stroke-dasharray="1 1" stroke-miterlimit="50" xlink:href="#w4pkc"/></g><g opacity=".7"><use fill="#fff" fill-opacity="0" stroke="#0195a1" stroke-dasharray="1 1" stroke-miterlimit="50" xlink:href="#w4pkd"/></g><g opacity=".6"><use fill="#fff" fill-opacity="0" stroke="#0195a1" stroke-dasharray="1 1" stroke-miterlimit="50" xlink:href="#w4pke"/></g><g opacity=".5"><use fill="#fff" fill-opacity="0" stroke="#0195a1" stroke-dasharray="1 1" stroke-miterlimit="50" xlink:href="#w4pkf"/></g><g opacity=".4"><use fill="#fff" fill-opacity="0" stroke="#0195a1" stroke-dasharray="1 1" stroke-miterlimit="50" xlink:href="#w4pkg"/></g><g opacity=".3"><use fill="#fff" fill-opacity="0" stroke="#0195a1" stroke-dasharray="1 1" stroke-miterlimit="50" xlink:href="#w4pkh"/></g><g opacity=".2"><use fill="#fff" fill-opacity="0" stroke="#0195a1" stroke-dasharray="1 1" stroke-miterlimit="50" xlink:href="#w4pki"/></g><g opacity=".1"><use fill="#fff" fill-opacity="0" stroke="#0195a1" stroke-dasharray="1 1" stroke-miterlimit="50" xlink:href="#w4pkj"/></g></g><g><g filter="url(#w4pkk)" opacity=".73"><use fill="#fff" fill-opacity="0" stroke="#0195a1" stroke-miterlimit="50" stroke-width="26" clip-path="url(&quot;#w4pkm&quot;)" xlink:href="#w4pkl"/></g><g><use fill="#fff" fill-opacity="0" stroke="#fff" stroke-miterlimit="50" xlink:href="#w4pkn"/></g><g><use fill="#fff" xlink:href="#w4pko"/><use fill="#fff" fill-opacity="0" stroke="#fff" stroke-miterlimit="50" xlink:href="#w4pko"/></g></g></g></g></svg>