<svg xmlns="http://www.w3.org/2000/svg" xmlns:xlink="http://www.w3.org/1999/xlink" width="90" height="75" viewBox="0 0 90 75"><defs><path id="ffe0a" d="M994.46 2303.3c-.79-13.5-11.92-24.3-25.33-24.3-8.15 0-16.04 4-20.92 10.51l-.35-.15a13.66 13.66 0 0 0-2.33-.88c-.18-.04-.36-.1-.54-.13-.33-.08-.67-.14-1-.19l-.48-.07a13.52 13.52 0 0 0-14.99 13.98 20.74 20.74 0 0 0-10.52 17.66 19.29 19.29 0 0 0 19.27 19.27H945a1.5 1.5 0 1 0 0-3h-7.73c-8.97 0-16.27-7.3-16.27-16.27 0-6.23 4.06-12.7 9.65-15.38l.85-.4v-.95l.02-.56.02-.26-.02-.3-.02-.38a10.51 10.51 0 0 1 11.88-10.4l.35.05c.4.07.8.16 1.18.27l.16.04c.43.13.84.3 1.25.48l.31.15a10.5 10.5 0 0 1 5.87 9.41 1.5 1.5 0 1 0 3 0c0-4.13-1.87-7.83-4.8-10.3a23.76 23.76 0 0 1 18.43-9.2c11.61 0 21.26 9.2 22.27 20.83-1.53-.1-3.83-.16-6.13.19a1.5 1.5 0 1 0 .46 2.96c3.33-.5 6.81-.03 7.02 0 6.99 1.33 12.25 7.76 12.25 14.98 0 8.3-6.75 15.04-15.04 15.04H984a1.5 1.5 0 1 0 0 3h5.96c9.95 0 18.04-8.1 18.04-18.04 0-8.24-5.74-15.62-13.54-17.67z"/><path id="ffe0b" d="M979.5 2336c-.83 0-1.5.67-1.5 1.5 0 7.44-6.06 13.5-13.5 13.5s-13.5-6.06-13.5-13.5 6.06-13.5 13.5-13.5c4.5 0 8.52 2.26 10.97 6H966a1.5 1.5 0 1 0 0 3h12c.11 0 .22-.04.32-.06.1-.03.19-.03.27-.06h.01l.13-.1c.12-.07.25-.14.34-.23.07-.07.1-.16.16-.24.05-.08.12-.15.16-.25.05-.12.06-.26.08-.4 0-.05.03-.1.03-.16v-12a1.5 1.5 0 1 0-3 0v6.9a15.9 15.9 0 0 0-12-5.4c-9.1 0-16.5 7.4-16.5 16.5s7.4 16.5 16.5 16.5 16.5-7.4 16.5-16.5c0-.83-.67-1.5-1.5-1.5z"/></defs><g><g transform="translate(-918 -2279)"><g><use fill="#0195a1" xlink:href="#ffe0a"/></g><g><use fill="#0195a1" xlink:href="#ffe0b"/></g></g></g></svg>