<svg xmlns="http://www.w3.org/2000/svg" xmlns:xlink="http://www.w3.org/1999/xlink" width="90" height="90" viewBox="0 0 90 90"><defs><path id="6kawa" d="M718.62 2326.15v-10.7l-10.6 4.58z"/><path id="6kawb" d="M718.62 2314.7v-12.56l-10.25 17z"/><path id="6kawc" d="M719.3 2302.14v12.57l10.4 4.5z"/><path id="6kawd" d="M719.3 2315.45v10.7l10.6-6.12z"/><path id="6kawe" d="M718.63 2336.9v-8.6l-10.53-6.08z"/><path id="6kawf" d="M719.3 2336.9l10.53-14.68-10.53 6.08z"/><path id="6kawg" d="M738.39 2338.39h-38.92v-38.92h38.92zm20.95-1.5a1.5 1.5 0 1 1 0 3 1.5 1.5 0 0 1 0-3zm-19.46 20.96a1.5 1.5 0 1 1 0 2.99 1.5 1.5 0 0 1 0-3zm-20.95 2.99a1.5 1.5 0 1 1 0-3 1.5 1.5 0 0 1 0 3zm-20.96 0a1.5 1.5 0 1 1 0-3 1.5 1.5 0 0 1 0 3zm-19.45-20.96a1.5 1.5 0 1 1 0-3 1.5 1.5 0 0 1 0 3zm0-20.94a1.5 1.5 0 1 1 0-3 1.5 1.5 0 0 1 0 3zm0-20.97a1.5 1.5 0 1 1 0-3 1.5 1.5 0 0 1 0 3zm19.45-17.95a1.5 1.5 0 1 1 0-3 1.5 1.5 0 0 1 0 3zm20.96-3a1.5 1.5 0 1 1 0 3 1.5 1.5 0 0 1 0-3zm20.95 0a1.5 1.5 0 1 1 0 3 1.5 1.5 0 0 1 0-3zm19.46 17.96a1.5 1.5 0 1 1 0 2.99 1.5 1.5 0 0 1 0-3zm0 20.95a1.5 1.5 0 1 1 0 3 1.5 1.5 0 0 1 0-3zm-4.21 3a4.49 4.49 0 1 0 0-3h-13.75v-10.48h11.1l4.94-4.94a4.5 4.5 0 1 0-2.12-2.12l-4.06 4.07h-9.86v-5.99h-7.48v-9.86l4.06-4.06a4.5 4.5 0 1 0-2.12-2.12l-4.94 4.95v11.1h-10.48v-13.75a4.49 4.49 0 1 0-3 0v13.74h-10.47v-11.1l-4.94-4.93a4.5 4.5 0 1 0-2.12 2.12l4.07 4.05v9.86h-7.49v6h-9.86l-4.06-4.07a4.5 4.5 0 1 0-2.12 2.12l4.94 4.93h11.1v10.48h-13.74a4.49 4.49 0 1 0 0 3h13.74v10.47h-11.1l-4.93 4.94a4.5 4.5 0 1 0 2.12 2.12l4.05-4.06h9.86v8.98h7.49v9.86l-4.07 4.06a4.5 4.5 0 1 0 2.12 2.12l4.94-4.94v-11.1h10.48v13.75a4.49 4.49 0 1 0 3 0v-13.75h10.47v11.1l4.94 4.94a4.5 4.5 0 1 0 2.12-2.12l-4.06-4.06v-9.86h7.48v-8.98h9.86l4.06 4.06a4.5 4.5 0 1 0 2.12-2.12l-4.94-4.94h-11.1v-10.47z"/></defs><g><g transform="translate(-674 -2274)"><g><g><use fill="#0195a1" xlink:href="#6kawa"/></g><g><use fill="#0195a1" xlink:href="#6kawb"/></g><g><use fill="#0195a1" xlink:href="#6kawc"/></g><g><use fill="#0195a1" xlink:href="#6kawd"/></g><g><use fill="#0195a1" xlink:href="#6kawe"/></g><g><use fill="#0195a1" xlink:href="#6kawf"/></g></g><g><use fill="#0195a1" xlink:href="#6kawg"/></g></g></g></svg>