<svg xmlns="http://www.w3.org/2000/svg" xmlns:xlink="http://www.w3.org/1999/xlink" width="80" height="80" viewBox="0 0 80 80"><defs><path id="mttba" d="M450 2297a3.33 3.33 0 1 1 0-6.67 3.33 3.33 0 0 1 0 6.66zm0-9.33a6 6 0 1 0 .01 12.01 6 6 0 0 0-.01-12.01z"/><path id="mttbb" d="M501.33 2291.66a1.34 1.34 0 1 1 2.67 0 1.34 1.34 0 0 1-2.67 0z"/><path id="mttbc" d="M496 2291.66a1.34 1.34 0 1 1 2.67 0 1.34 1.34 0 0 1-2.67 0z"/><path id="mttbd" d="M504 2295.66a1.34 1.34 0 1 1 2.67 0 1.34 1.34 0 0 1-2.67 0z"/><path id="mttbe" d="M498.67 2295.66a1.33 1.33 0 1 1 2.67 0 1.33 1.33 0 0 1-2.67 0z"/><path id="mttbf" d="M490.67 2291.66a1.33 1.33 0 1 1 2.67 0 1.33 1.33 0 0 1-2.67 0z"/><path id="mttbg" d="M493.33 2295.66a1.34 1.34 0 1 1 2.67 0 1.34 1.34 0 0 1-2.67 0z"/><path id="mttbh" d="M485.33 2291.66a1.34 1.34 0 1 1 2.67 0 1.34 1.34 0 0 1-2.67 0z"/><path id="mttbi" d="M488 2295.66a1.34 1.34 0 1 1 2.67 0 1.34 1.34 0 0 1-2.67 0z"/><path id="mttbj" d="M480 2291.66a1.34 1.34 0 1 1 2.67 0 1.34 1.34 0 0 1-2.67 0z"/><path id="mttbk" d="M482.67 2295.66a1.33 1.33 0 1 1 2.67 0 1.33 1.33 0 0 1-2.67 0z"/><path id="mttbl" d="M442.14 2305a3.48 3.48 0 0 1-3.47-3.48v-15.7a3.48 3.48 0 0 1 3.47-3.48h67.7a3.48 3.48 0 0 1 3.48 3.47v15.71a3.48 3.48 0 0 1-3.47 3.48h-67.7zm71.18 6.14v15.72a3.48 3.48 0 0 1-3.47 3.48h-67.7a3.48 3.48 0 0 1-3.48-3.48v-15.72a3.48 3.48 0 0 1 3.47-3.47h67.7a3.48 3.48 0 0 1 3.48 3.47zm0 25.33v15.72a3.48 3.48 0 0 1-3.47 3.48h-67.7a3.48 3.48 0 0 1-3.48-3.48v-15.72a3.48 3.48 0 0 1 3.47-3.47h67.7a3.48 3.48 0 0 1 3.48 3.47zm2.68-34.94v-15.72a6.15 6.15 0 0 0-6.14-6.14h-67.72a6.15 6.15 0 0 0-6.14 6.14v15.71a6.1 6.1 0 0 0 2.37 4.82 6.11 6.11 0 0 0-2.37 4.8v15.72a6.1 6.1 0 0 0 2.37 4.8 6.11 6.11 0 0 0-2.37 4.82v15.71a6.15 6.15 0 0 0 6.14 6.15h67.71a6.15 6.15 0 0 0 6.15-6.15v-15.7a6.1 6.1 0 0 0-2.37-4.82 6.1 6.1 0 0 0 2.37-4.81v-15.71a6.1 6.1 0 0 0-2.37-4.81 6.11 6.11 0 0 0 2.37-4.81z"/><path id="mttbm" d="M450 2315.67a3.33 3.33 0 1 1-.01 6.66 3.33 3.33 0 0 1 0-6.66zm0 9.33a6 6 0 1 0-.01-12.01A6 6 0 0 0 450 2325z"/><path id="mttbn" d="M501.33 2317a1.33 1.33 0 1 1 2.67 0 1.33 1.33 0 0 1-2.67 0z"/><path id="mttbo" d="M496 2317a1.33 1.33 0 1 1 2.67 0 1.33 1.33 0 0 1-2.67 0z"/><path id="mttbp" d="M504 2321a1.33 1.33 0 1 1 2.67 0 1.33 1.33 0 0 1-2.67 0z"/><path id="mttbq" d="M498.67 2321a1.33 1.33 0 1 1 2.67 0 1.33 1.33 0 0 1-2.67 0z"/><path id="mttbr" d="M490.67 2317a1.33 1.33 0 1 1 2.67 0 1.33 1.33 0 0 1-2.67 0z"/><path id="mttbs" d="M493.33 2321a1.33 1.33 0 1 1 2.67 0 1.33 1.33 0 0 1-2.67 0z"/><path id="mttbt" d="M485.33 2317a1.33 1.33 0 1 1 2.67 0 1.33 1.33 0 0 1-2.67 0z"/><path id="mttbu" d="M488 2321a1.33 1.33 0 1 1 2.67 0 1.33 1.33 0 0 1-2.67 0z"/><path id="mttbv" d="M480 2317a1.33 1.33 0 1 1 2.67 0 1.33 1.33 0 0 1-2.67 0z"/><path id="mttbw" d="M482.67 2321a1.33 1.33 0 1 1 2.67 0 1.33 1.33 0 0 1-2.67 0z"/><path id="mttbx" d="M450 2341a3.33 3.33 0 1 1-.01 6.66 3.33 3.33 0 0 1 0-6.66zm0 9.33a6 6 0 1 0-.01-12.01 6 6 0 0 0 .01 12.01z"/><path id="mttby" d="M501.33 2342.34a1.34 1.34 0 1 1 2.67 0 1.34 1.34 0 0 1-2.67 0z"/><path id="mttbz" d="M496 2342.34a1.34 1.34 0 1 1 2.67 0 1.34 1.34 0 0 1-2.67 0z"/><path id="mttbA" d="M504 2346.34a1.34 1.34 0 1 1 2.67 0 1.34 1.34 0 0 1-2.67 0z"/><path id="mttbB" d="M498.67 2346.34a1.33 1.33 0 1 1 2.67 0 1.33 1.33 0 0 1-2.67 0z"/><path id="mttbC" d="M490.67 2342.34a1.33 1.33 0 1 1 2.67 0 1.33 1.33 0 0 1-2.67 0z"/><path id="mttbD" d="M493.33 2346.34a1.34 1.34 0 1 1 2.67 0 1.34 1.34 0 0 1-2.67 0z"/><path id="mttbE" d="M485.33 2342.34a1.34 1.34 0 1 1 2.67 0 1.34 1.34 0 0 1-2.67 0z"/><path id="mttbF" d="M488 2346.34a1.34 1.34 0 1 1 2.67 0 1.34 1.34 0 0 1-2.67 0z"/><path id="mttbG" d="M480 2342.34a1.34 1.34 0 1 1 2.67 0 1.34 1.34 0 0 1-2.67 0z"/><path id="mttbH" d="M482.67 2346.34a1.33 1.33 0 1 1 2.67 0 1.33 1.33 0 0 1-2.67 0z"/></defs><g><g transform="translate(-436 -2279)"><g><use fill="#0195a1" xlink:href="#mttba"/></g><g><use fill="#0195a1" xlink:href="#mttbb"/></g><g><use fill="#0195a1" xlink:href="#mttbc"/></g><g><use fill="#0195a1" xlink:href="#mttbd"/></g><g><use fill="#0195a1" xlink:href="#mttbe"/></g><g><use fill="#0195a1" xlink:href="#mttbf"/></g><g><use fill="#0195a1" xlink:href="#mttbg"/></g><g><use fill="#0195a1" xlink:href="#mttbh"/></g><g><use fill="#0195a1" xlink:href="#mttbi"/></g><g><use fill="#0195a1" xlink:href="#mttbj"/></g><g><use fill="#0195a1" xlink:href="#mttbk"/></g><g><use fill="#0195a1" xlink:href="#mttbl"/></g><g><use fill="#0195a1" xlink:href="#mttbm"/></g><g><use fill="#0195a1" xlink:href="#mttbn"/></g><g><use fill="#0195a1" xlink:href="#mttbo"/></g><g><use fill="#0195a1" xlink:href="#mttbp"/></g><g><use fill="#0195a1" xlink:href="#mttbq"/></g><g><use fill="#0195a1" xlink:href="#mttbr"/></g><g><use fill="#0195a1" xlink:href="#mttbs"/></g><g><use fill="#0195a1" xlink:href="#mttbt"/></g><g><use fill="#0195a1" xlink:href="#mttbu"/></g><g><use fill="#0195a1" xlink:href="#mttbv"/></g><g><use fill="#0195a1" xlink:href="#mttbw"/></g><g><use fill="#0195a1" xlink:href="#mttbx"/></g><g><use fill="#0195a1" xlink:href="#mttby"/></g><g><use fill="#0195a1" xlink:href="#mttbz"/></g><g><use fill="#0195a1" xlink:href="#mttbA"/></g><g><use fill="#0195a1" xlink:href="#mttbB"/></g><g><use fill="#0195a1" xlink:href="#mttbC"/></g><g><use fill="#0195a1" xlink:href="#mttbD"/></g><g><use fill="#0195a1" xlink:href="#mttbE"/></g><g><use fill="#0195a1" xlink:href="#mttbF"/></g><g><use fill="#0195a1" xlink:href="#mttbG"/></g><g><use fill="#0195a1" xlink:href="#mttbH"/></g></g></g></svg>