<?xml version="1.0" encoding="UTF-8"?>
<svg width="146px" height="48px" viewBox="0 0 146 48" version="1.1" xmlns="http://www.w3.org/2000/svg" xmlns:xlink="http://www.w3.org/1999/xlink">
    <!-- Generator: Sketch 51.1 (57501) - http://www.bohemiancoding.com/sketch -->
    <title>Group 2</title>
    <desc>Created with Sketch.</desc>
    <defs></defs>
    <g id="Page-1" stroke="none" stroke-width="1" fill="none" fill-rule="evenodd">
        <g id="Group-2" fill-rule="nonzero">
            <g id="sprite-dark" transform="translate(0.000000, 29.000000)">
                <g id="Group">
                    <g transform="translate(126.000000, 1.000000)" fill="#0195A1" id="tk79a-link">
                        <g>
                            <path d="M19.92,3.08 L13.89,0.07 C13.8003317,0.0237854444 13.7008768,-0.00022091676 13.6,-7.20257166e-15 C13.34,-7.20257166e-15 13.14,0.1 13.02,0.31 L9.4,6.19 L13.75,13.27 L17.11,7.82 C19.01,4.72 19.97,3.17 19.97,3.14 C19.97,3.11 19.95,3.09 19.92,3.08 Z M13.98,14.27 L18.88,16.72 C19.05,16.82 19.23,16.87 19.41,16.87 C19.59,16.87 19.73,16.81 19.83,16.69 C19.94,16.59 19.99,16.43 19.99,16.24 L19.99,4.48 L13.98,14.27 Z M7.38,10.98 L13.34,13.94 L7.38,4.28 L7.38,10.98 Z M6.64,3.1 L0.94,0.24 C0.786840135,0.149459013 0.616606719,0.0915796511 0.44,0.07 C0.29,0.07 0.19,0.12 0.11,0.23 C0.0341230713,0.341871473 -0.0043837859,0.474895162 4.54677908e-13,0.61 L4.54677908e-13,13.33 C4.54677908e-13,13.51 0.06,13.68 0.17,13.86 C0.27,14.03 0.41,14.16 0.57,14.23 L5.75,16.83 C5.87,16.89 5.99,16.92 6.12,16.92 C6.29,16.92 6.43,16.86 6.52,16.72 C6.62,16.59 6.66,16.44 6.66,16.25 L6.66,3.15 L6.64,3.1 Z" id="tk79a"></path>
                        </g>
                    </g>
                    <g transform="translate(88.000000, 0.000000)" id="tk79b-link">
                        <g fill="#0195A1">
                            <path d="M9.99,13.06 L9.98,13.66 L9.98,16.78 C9.98,16.94 9.95,17 9.78,17 L6.06,17 C5.9,17 5.85,16.95 5.86,16.79 L5.86,15.06 C5.86,15.01 5.92,14.91 5.78,14.9 L5.7,14.9 C5.65,14.88 5.6,14.89 5.57,14.95 C5.07,15 4.57,15.04 4.07,14.91 C3.2211847,14.7080104 2.51931589,14.1138358 2.18,13.31 C1.92741766,12.7606814 1.604732,12.2464011 1.22,11.78 C1.1,11.63 0.91,11.58 0.78,11.42 C0.73,11.37 0.65,11.32 0.68,11.24 C0.7,11.14 0.8,11.15 0.88,11.14 C1.68,11.07 2.26,11.47 2.65,12.14 C3.02,12.76 3.5,13.22 4.19,13.4 C4.69,13.53 5.17,13.5 5.66,13.35 C5.76,13.31 5.83,13.27 5.84,13.13 C5.88,12.61 5.98,12.13 6.33,11.69 L5.98,11.62 C5.13232471,11.5043134 4.32934526,11.1700258 3.65,10.65 C2.88661255,10.0689546 2.38347712,9.21003054 2.25,8.26 C2.14174329,7.40268753 2.15183775,6.53456341 2.28,5.68 C2.36,5.01 2.55,4.38 3.01,3.89 C3.18,3.72 3.19,3.58 3.11,3.36 C2.89391049,2.63978884 2.91141364,1.86965034 3.16,1.16 C3.2,1.02 3.26,0.98 3.41,1.02 C3.95,1.15 4.37,1.48 4.75,1.87 C4.93,2.07 5.09,2.27 5.25,2.49 C5.29,2.55 5.32,2.59 5.39,2.52 C5.69,2.29 6.03,2.22 6.39,2.16 C7.39,2.01 8.42,2.01 9.43,2.16 C9.77,2.21 10.11,2.26 10.39,2.49 C10.52,2.59 10.58,2.53 10.65,2.42 C10.92,2.02 11.25,1.67 11.64,1.39 C11.88,1.21 12.15,1.09 12.45,1.01 C12.58,0.98 12.63,1.01 12.67,1.13 C12.95,1.93 12.99,2.72 12.68,3.51 C12.65,3.61 12.62,3.68 12.71,3.76 C13.21,4.24 13.44,4.85 13.53,5.52 C13.65,6.34 13.72,7.15 13.63,7.98 C13.5230189,9.28880249 12.7478823,10.4496168 11.58,11.05 C11.54,11.05 11.5,11.05 11.48,11.1 L11.39,11.15 C11.2914945,11.1565446 11.1988887,11.1992857 11.13,11.27 L11.03,11.3 C10.98,11.29 10.95,11.3 10.93,11.35 L10.86,11.37 C10.7,11.39 10.54,11.41 10.4,11.51 L10.34,11.52 C10.22,11.52 10.11,11.52 10.01,11.6 L9.74,11.64 C9.68,11.64 9.6,11.64 9.54,11.66 C9.47,11.69 9.5,11.73 9.56,11.75 C9.56,11.81 9.6,11.85 9.65,11.87 L9.75,12.06 C9.75,12.15 9.77,12.23 9.85,12.29 L9.86,12.39 C9.88,12.51 9.88,12.62 9.95,12.73 L9.96,12.8 C9.94,12.85 9.95,12.9 9.99,12.93 L9.99,13.06 Z" id="tk79b"></path>
                        </g>
                        <g fill="#FFFFFF" fill-opacity="0" stroke="#0095A2">
                            <path d="M9.99,13.06 L9.98,13.66 L9.98,16.78 C9.98,16.94 9.95,17 9.78,17 L6.06,17 C5.9,17 5.85,16.95 5.86,16.79 L5.86,15.06 C5.86,15.01 5.92,14.91 5.78,14.9 L5.7,14.9 C5.65,14.88 5.6,14.89 5.57,14.95 C5.07,15 4.57,15.04 4.07,14.91 C3.2211847,14.7080104 2.51931589,14.1138358 2.18,13.31 C1.92741766,12.7606814 1.604732,12.2464011 1.22,11.78 C1.1,11.63 0.91,11.58 0.78,11.42 C0.73,11.37 0.65,11.32 0.68,11.24 C0.7,11.14 0.8,11.15 0.88,11.14 C1.68,11.07 2.26,11.47 2.65,12.14 C3.02,12.76 3.5,13.22 4.19,13.4 C4.69,13.53 5.17,13.5 5.66,13.35 C5.76,13.31 5.83,13.27 5.84,13.13 C5.88,12.61 5.98,12.13 6.33,11.69 L5.98,11.62 C5.13232471,11.5043134 4.32934526,11.1700258 3.65,10.65 C2.88661255,10.0689546 2.38347712,9.21003054 2.25,8.26 C2.14174329,7.40268753 2.15183775,6.53456341 2.28,5.68 C2.36,5.01 2.55,4.38 3.01,3.89 C3.18,3.72 3.19,3.58 3.11,3.36 C2.89391049,2.63978884 2.91141364,1.86965034 3.16,1.16 C3.2,1.02 3.26,0.98 3.41,1.02 C3.95,1.15 4.37,1.48 4.75,1.87 C4.93,2.07 5.09,2.27 5.25,2.49 C5.29,2.55 5.32,2.59 5.39,2.52 C5.69,2.29 6.03,2.22 6.39,2.16 C7.39,2.01 8.42,2.01 9.43,2.16 C9.77,2.21 10.11,2.26 10.39,2.49 C10.52,2.59 10.58,2.53 10.65,2.42 C10.92,2.02 11.25,1.67 11.64,1.39 C11.88,1.21 12.15,1.09 12.45,1.01 C12.58,0.98 12.63,1.01 12.67,1.13 C12.95,1.93 12.99,2.72 12.68,3.51 C12.65,3.61 12.62,3.68 12.71,3.76 C13.21,4.24 13.44,4.85 13.53,5.52 C13.65,6.34 13.72,7.15 13.63,7.98 C13.5230189,9.28880249 12.7478823,10.4496168 11.58,11.05 C11.54,11.05 11.5,11.05 11.48,11.1 L11.39,11.15 C11.2914945,11.1565446 11.1988887,11.1992857 11.13,11.27 L11.03,11.3 C10.98,11.29 10.95,11.3 10.93,11.35 L10.86,11.37 C10.7,11.39 10.54,11.41 10.4,11.51 L10.34,11.52 C10.22,11.52 10.11,11.52 10.01,11.6 L9.74,11.64 C9.68,11.64 9.6,11.64 9.54,11.66 C9.47,11.69 9.5,11.73 9.56,11.75 C9.56,11.81 9.6,11.85 9.65,11.87 L9.75,12.06 C9.75,12.15 9.77,12.23 9.85,12.29 L9.86,12.39 C9.88,12.51 9.88,12.62 9.95,12.73 L9.96,12.8 C9.94,12.85 9.95,12.9 9.99,12.93 L9.99,13.06 Z" id="tk79b"></path>
                        </g>
                    </g>
                    <g transform="translate(44.000000, 1.000000)" fill="#0195A1" id="tk79c-link">
                        <g>
                            <path d="M7.8,15.06 L7.86,15.05 L7.88,14.93 C7.98,13.95 8.07,12.96 8.15,11.98 C8.17,11.77 8.25,11.61 8.41,11.46 L12.31,7.94 L16.64,4.04 C16.74,3.96 16.77,3.82 16.84,3.71 C16.69,3.69 16.55,3.64 16.43,3.67 C16.26,3.71 16.1,3.81 15.95,3.91 L6.4,9.91 C6.22,10.03 6.19,10.12 6.26,10.32 L6.93,12.36 L7.81,15.06 L7.8,15.06 Z M11,13.76 L8.71,15.97 C8.45,16.23 8.16,16.37 7.78,16.35 C7.52,16.35 7.38,16.23 7.29,15.99 L5.56,10.62 C5.52483336,10.4600736 5.39992645,10.3351666 5.24,10.3 C3.89,9.9 2.53,9.47 1.18,9.04 C0.97,8.97 0.76,8.89 0.58,8.76 C0.29,8.57 0.26,8.26 0.51,8.04 C0.74,7.84 1.01,7.66 1.31,7.54 C2.96,6.89 4.63,6.25 6.31,5.61 L18.99,0.71 C19.8,0.4 20.42,0.84 20.33,1.71 C20.28,2.27 20.13,2.81 20.02,3.37 L17.26,16.39 C17.04,17.42 16.31,17.69 15.46,17.06 L11.21,13.92 L10.99,13.75 L11,13.76 Z" id="tk79c"></path>
                        </g>
                    </g>
                    <g transform="translate(0.000000, 1.000000)" id="tk79d-link">
                        <g fill="#0195A1">
                            <path d="M20.01,1.9 C19.27,2.22 18.48,2.43 17.65,2.53 C18.5,2.03 19.15,1.23 19.46,0.3 C18.66,0.76 17.79,1.1 16.86,1.28 C15.7043396,0.0828205057 13.9431061,-0.303900135 12.3921982,0.298988026 C10.8412902,0.901876186 9.80366235,2.37660492 9.76,4.04 C9.76,4.35 9.79,4.66 9.86,4.96 C6.56966547,4.80389146 3.4962774,3.27264026 1.39,0.74 C0.276938379,2.58625719 0.84070824,4.98338888 2.66,6.14 C1.99,6.11 1.36,5.93 0.8,5.63 L0.8,5.68 C0.8,7.64 2.22,9.27 4.1,9.64 C3.49273944,9.80015189 2.8575802,9.82405573 2.24,9.71 C2.79338716,11.3656493 4.33443852,12.4893326 6.08,12.51 C4.3524068,13.8463352 2.16861696,14.4497508 4.54747351e-13,14.19 C1.88601572,15.3782227 4.07089857,16.005943 6.3,16 C9.46630625,16.0470675 12.5119026,14.7864228 14.7186614,12.515316 C16.9254202,10.2442092 18.0980305,7.16364634 17.96,4 C18.76,3.42 19.46,2.71 20.01,1.9 Z" id="tk79d"></path>
                        </g>
                        <g fill="#FFFFFF" fill-opacity="0" stroke="#0195A1">
                            <path d="M20.01,1.9 C19.27,2.22 18.48,2.43 17.65,2.53 C18.5,2.03 19.15,1.23 19.46,0.3 C18.66,0.76 17.79,1.1 16.86,1.28 C15.7043396,0.0828205057 13.9431061,-0.303900135 12.3921982,0.298988026 C10.8412902,0.901876186 9.80366235,2.37660492 9.76,4.04 C9.76,4.35 9.79,4.66 9.86,4.96 C6.56966547,4.80389146 3.4962774,3.27264026 1.39,0.74 C0.276938379,2.58625719 0.84070824,4.98338888 2.66,6.14 C1.99,6.11 1.36,5.93 0.8,5.63 L0.8,5.68 C0.8,7.64 2.22,9.27 4.1,9.64 C3.49273944,9.80015189 2.8575802,9.82405573 2.24,9.71 C2.79338716,11.3656493 4.33443852,12.4893326 6.08,12.51 C4.3524068,13.8463352 2.16861696,14.4497508 4.54747351e-13,14.19 C1.88601572,15.3782227 4.07089857,16.005943 6.3,16 C9.46630625,16.0470675 12.5119026,14.7864228 14.7186614,12.515316 C16.9254202,10.2442092 18.0980305,7.16364634 17.96,4 C18.76,3.42 19.46,2.71 20.01,1.9 Z" id="tk79d"></path>
                        </g>
                    </g>
                </g>
                <g id="Group" fill="#FFFFFF">
                    <g transform="translate(126.000000, 1.000000)" id="tk79a-link">
                        <g>
                            <path d="M19.92,3.08 L13.89,0.07 C13.8003317,0.0237854444 13.7008768,-0.00022091676 13.6,-7.20257166e-15 C13.34,-7.20257166e-15 13.14,0.1 13.02,0.31 L9.4,6.19 L13.75,13.27 L17.11,7.82 C19.01,4.72 19.97,3.17 19.97,3.14 C19.97,3.11 19.95,3.09 19.92,3.08 Z M13.98,14.27 L18.88,16.72 C19.05,16.82 19.23,16.87 19.41,16.87 C19.59,16.87 19.73,16.81 19.83,16.69 C19.94,16.59 19.99,16.43 19.99,16.24 L19.99,4.48 L13.98,14.27 Z M7.38,10.98 L13.34,13.94 L7.38,4.28 L7.38,10.98 Z M6.64,3.1 L0.94,0.24 C0.786840135,0.149459013 0.616606719,0.0915796511 0.44,0.07 C0.29,0.07 0.19,0.12 0.11,0.23 C0.0341230713,0.341871473 -0.0043837859,0.474895162 4.54677908e-13,0.61 L4.54677908e-13,13.33 C4.54677908e-13,13.51 0.06,13.68 0.17,13.86 C0.27,14.03 0.41,14.16 0.57,14.23 L5.75,16.83 C5.87,16.89 5.99,16.92 6.12,16.92 C6.29,16.92 6.43,16.86 6.52,16.72 C6.62,16.59 6.66,16.44 6.66,16.25 L6.66,3.15 L6.64,3.1 Z" id="tk79a"></path>
                        </g>
                    </g>
                    <g transform="translate(88.000000, 0.000000)" id="tk79b-link">
                        <g>
                            <path d="M9.99,13.06 L9.98,13.66 L9.98,16.78 C9.98,16.94 9.95,17 9.78,17 L6.06,17 C5.9,17 5.85,16.95 5.86,16.79 L5.86,15.06 C5.86,15.01 5.92,14.91 5.78,14.9 L5.7,14.9 C5.65,14.88 5.6,14.89 5.57,14.95 C5.07,15 4.57,15.04 4.07,14.91 C3.2211847,14.7080104 2.51931589,14.1138358 2.18,13.31 C1.92741766,12.7606814 1.604732,12.2464011 1.22,11.78 C1.1,11.63 0.91,11.58 0.78,11.42 C0.73,11.37 0.65,11.32 0.68,11.24 C0.7,11.14 0.8,11.15 0.88,11.14 C1.68,11.07 2.26,11.47 2.65,12.14 C3.02,12.76 3.5,13.22 4.19,13.4 C4.69,13.53 5.17,13.5 5.66,13.35 C5.76,13.31 5.83,13.27 5.84,13.13 C5.88,12.61 5.98,12.13 6.33,11.69 L5.98,11.62 C5.13232471,11.5043134 4.32934526,11.1700258 3.65,10.65 C2.88661255,10.0689546 2.38347712,9.21003054 2.25,8.26 C2.14174329,7.40268753 2.15183775,6.53456341 2.28,5.68 C2.36,5.01 2.55,4.38 3.01,3.89 C3.18,3.72 3.19,3.58 3.11,3.36 C2.89391049,2.63978884 2.91141364,1.86965034 3.16,1.16 C3.2,1.02 3.26,0.98 3.41,1.02 C3.95,1.15 4.37,1.48 4.75,1.87 C4.93,2.07 5.09,2.27 5.25,2.49 C5.29,2.55 5.32,2.59 5.39,2.52 C5.69,2.29 6.03,2.22 6.39,2.16 C7.39,2.01 8.42,2.01 9.43,2.16 C9.77,2.21 10.11,2.26 10.39,2.49 C10.52,2.59 10.58,2.53 10.65,2.42 C10.92,2.02 11.25,1.67 11.64,1.39 C11.88,1.21 12.15,1.09 12.45,1.01 C12.58,0.98 12.63,1.01 12.67,1.13 C12.95,1.93 12.99,2.72 12.68,3.51 C12.65,3.61 12.62,3.68 12.71,3.76 C13.21,4.24 13.44,4.85 13.53,5.52 C13.65,6.34 13.72,7.15 13.63,7.98 C13.5230189,9.28880249 12.7478823,10.4496168 11.58,11.05 C11.54,11.05 11.5,11.05 11.48,11.1 L11.39,11.15 C11.2914945,11.1565446 11.1988887,11.1992857 11.13,11.27 L11.03,11.3 C10.98,11.29 10.95,11.3 10.93,11.35 L10.86,11.37 C10.7,11.39 10.54,11.41 10.4,11.51 L10.34,11.52 C10.22,11.52 10.11,11.52 10.01,11.6 L9.74,11.64 C9.68,11.64 9.6,11.64 9.54,11.66 C9.47,11.69 9.5,11.73 9.56,11.75 C9.56,11.81 9.6,11.85 9.65,11.87 L9.75,12.06 C9.75,12.15 9.77,12.23 9.85,12.29 L9.86,12.39 C9.88,12.51 9.88,12.62 9.95,12.73 L9.96,12.8 C9.94,12.85 9.95,12.9 9.99,12.93 L9.99,13.06 Z" id="tk79b"></path>
                        </g>
                        <g fill-opacity="0" stroke="#FFFFFF">
                            <path d="M9.99,13.06 L9.98,13.66 L9.98,16.78 C9.98,16.94 9.95,17 9.78,17 L6.06,17 C5.9,17 5.85,16.95 5.86,16.79 L5.86,15.06 C5.86,15.01 5.92,14.91 5.78,14.9 L5.7,14.9 C5.65,14.88 5.6,14.89 5.57,14.95 C5.07,15 4.57,15.04 4.07,14.91 C3.2211847,14.7080104 2.51931589,14.1138358 2.18,13.31 C1.92741766,12.7606814 1.604732,12.2464011 1.22,11.78 C1.1,11.63 0.91,11.58 0.78,11.42 C0.73,11.37 0.65,11.32 0.68,11.24 C0.7,11.14 0.8,11.15 0.88,11.14 C1.68,11.07 2.26,11.47 2.65,12.14 C3.02,12.76 3.5,13.22 4.19,13.4 C4.69,13.53 5.17,13.5 5.66,13.35 C5.76,13.31 5.83,13.27 5.84,13.13 C5.88,12.61 5.98,12.13 6.33,11.69 L5.98,11.62 C5.13232471,11.5043134 4.32934526,11.1700258 3.65,10.65 C2.88661255,10.0689546 2.38347712,9.21003054 2.25,8.26 C2.14174329,7.40268753 2.15183775,6.53456341 2.28,5.68 C2.36,5.01 2.55,4.38 3.01,3.89 C3.18,3.72 3.19,3.58 3.11,3.36 C2.89391049,2.63978884 2.91141364,1.86965034 3.16,1.16 C3.2,1.02 3.26,0.98 3.41,1.02 C3.95,1.15 4.37,1.48 4.75,1.87 C4.93,2.07 5.09,2.27 5.25,2.49 C5.29,2.55 5.32,2.59 5.39,2.52 C5.69,2.29 6.03,2.22 6.39,2.16 C7.39,2.01 8.42,2.01 9.43,2.16 C9.77,2.21 10.11,2.26 10.39,2.49 C10.52,2.59 10.58,2.53 10.65,2.42 C10.92,2.02 11.25,1.67 11.64,1.39 C11.88,1.21 12.15,1.09 12.45,1.01 C12.58,0.98 12.63,1.01 12.67,1.13 C12.95,1.93 12.99,2.72 12.68,3.51 C12.65,3.61 12.62,3.68 12.71,3.76 C13.21,4.24 13.44,4.85 13.53,5.52 C13.65,6.34 13.72,7.15 13.63,7.98 C13.5230189,9.28880249 12.7478823,10.4496168 11.58,11.05 C11.54,11.05 11.5,11.05 11.48,11.1 L11.39,11.15 C11.2914945,11.1565446 11.1988887,11.1992857 11.13,11.27 L11.03,11.3 C10.98,11.29 10.95,11.3 10.93,11.35 L10.86,11.37 C10.7,11.39 10.54,11.41 10.4,11.51 L10.34,11.52 C10.22,11.52 10.11,11.52 10.01,11.6 L9.74,11.64 C9.68,11.64 9.6,11.64 9.54,11.66 C9.47,11.69 9.5,11.73 9.56,11.75 C9.56,11.81 9.6,11.85 9.65,11.87 L9.75,12.06 C9.75,12.15 9.77,12.23 9.85,12.29 L9.86,12.39 C9.88,12.51 9.88,12.62 9.95,12.73 L9.96,12.8 C9.94,12.85 9.95,12.9 9.99,12.93 L9.99,13.06 Z" id="tk79b"></path>
                        </g>
                    </g>
                    <g transform="translate(44.000000, 1.000000)" id="tk79e-link">
                        <g>
                            <path d="M7.88,15.06 L7.93,15.05 L7.95,14.93 C8.05,13.95 8.14,12.96 8.22,11.98 C8.24,11.77 8.32,11.61 8.48,11.46 L12.38,7.94 L16.71,4.04 C16.81,3.96 16.84,3.82 16.91,3.71 C16.76,3.69 16.62,3.64 16.5,3.67 C16.33,3.71 16.17,3.81 16.02,3.91 L6.47,9.91 C6.29,10.03 6.26,10.12 6.33,10.32 L7,12.36 L7.88,15.06 Z M11.06,13.76 L8.78,15.97 C8.52,16.23 8.23,16.37 7.85,16.35 C7.59,16.35 7.45,16.23 7.36,15.99 L5.63,10.62 C5.59483336,10.4600736 5.46992645,10.3351666 5.31,10.3 C3.96,9.9 2.6,9.47 1.25,9.04 C1.04,8.97 0.83,8.89 0.65,8.76 C0.36,8.57 0.33,8.26 0.58,8.04 C0.81,7.84 1.08,7.66 1.38,7.54 C3.03,6.89 4.7,6.25 6.38,5.61 L19.06,0.71 C19.87,0.4 20.49,0.84 20.4,1.71 C20.35,2.27 20.2,2.81 20.09,3.37 L17.33,16.39 C17.11,17.42 16.38,17.69 15.53,17.06 L11.28,13.92 L11.06,13.75 L11.06,13.76 Z" id="tk79e"></path>
                        </g>
                    </g>
                    <g transform="translate(0.000000, 1.000000)" id="tk79d-link">
                        <g>
                            <path d="M20.01,1.9 C19.27,2.22 18.48,2.43 17.65,2.53 C18.5,2.03 19.15,1.23 19.46,0.3 C18.66,0.76 17.79,1.1 16.86,1.28 C15.7043396,0.0828205057 13.9431061,-0.303900135 12.3921982,0.298988026 C10.8412902,0.901876186 9.80366235,2.37660492 9.76,4.04 C9.76,4.35 9.79,4.66 9.86,4.96 C6.56966547,4.80389146 3.4962774,3.27264026 1.39,0.74 C0.276938379,2.58625719 0.84070824,4.98338888 2.66,6.14 C1.99,6.11 1.36,5.93 0.8,5.63 L0.8,5.68 C0.8,7.64 2.22,9.27 4.1,9.64 C3.49273944,9.80015189 2.8575802,9.82405573 2.24,9.71 C2.79338716,11.3656493 4.33443852,12.4893326 6.08,12.51 C4.3524068,13.8463352 2.16861696,14.4497508 4.54747351e-13,14.19 C1.88601572,15.3782227 4.07089857,16.005943 6.3,16 C9.46630625,16.0470675 12.5119026,14.7864228 14.7186614,12.515316 C16.9254202,10.2442092 18.0980305,7.16364634 17.96,4 C18.76,3.42 19.46,2.71 20.01,1.9 Z" id="tk79d"></path>
                        </g>
                        <g fill-opacity="0" stroke="#FFFFFF">
                            <path d="M20.01,1.9 C19.27,2.22 18.48,2.43 17.65,2.53 C18.5,2.03 19.15,1.23 19.46,0.3 C18.66,0.76 17.79,1.1 16.86,1.28 C15.7043396,0.0828205057 13.9431061,-0.303900135 12.3921982,0.298988026 C10.8412902,0.901876186 9.80366235,2.37660492 9.76,4.04 C9.76,4.35 9.79,4.66 9.86,4.96 C6.56966547,4.80389146 3.4962774,3.27264026 1.39,0.74 C0.276938379,2.58625719 0.84070824,4.98338888 2.66,6.14 C1.99,6.11 1.36,5.93 0.8,5.63 L0.8,5.68 C0.8,7.64 2.22,9.27 4.1,9.64 C3.49273944,9.80015189 2.8575802,9.82405573 2.24,9.71 C2.79338716,11.3656493 4.33443852,12.4893326 6.08,12.51 C4.3524068,13.8463352 2.16861696,14.4497508 4.54747351e-13,14.19 C1.88601572,15.3782227 4.07089857,16.005943 6.3,16 C9.46630625,16.0470675 12.5119026,14.7864228 14.7186614,12.515316 C16.9254202,10.2442092 18.0980305,7.16364634 17.96,4 C18.76,3.42 19.46,2.71 20.01,1.9 Z" id="tk79d"></path>
                        </g>
                    </g>
                </g>
            </g>
            <g id="social">
                <g id="Group" transform="translate(126.000000, 1.000000)" fill="#0195A1">
                    <g id="9fz5a-link">
                        <path d="M19.92,3.08 L13.89,0.07 C13.8003317,0.0237854444 13.7008768,-0.00022091676 13.6,-7.20257166e-15 C13.34,-7.20257166e-15 13.14,0.1 13.02,0.31 L9.4,6.19 L13.75,13.27 L17.11,7.82 C19.01,4.72 19.97,3.17 19.97,3.14 C19.97,3.11 19.95,3.09 19.92,3.08 Z M13.98,14.27 L18.88,16.72 C19.05,16.82 19.23,16.87 19.41,16.87 C19.59,16.87 19.73,16.81 19.83,16.69 C19.94,16.59 19.99,16.43 19.99,16.24 L19.99,4.48 L13.98,14.27 Z M7.38,10.98 L13.34,13.94 L7.38,4.28 L7.38,10.98 Z M6.64,3.1 L0.94,0.24 C0.786840135,0.149459013 0.616606719,0.0915796511 0.44,0.07 C0.29,0.07 0.19,0.12 0.11,0.23 C0.0341230713,0.341871473 -0.0043837859,0.474895162 4.54677908e-13,0.61 L4.54677908e-13,13.33 C4.54677908e-13,13.51 0.06,13.68 0.17,13.86 C0.27,14.03 0.41,14.16 0.57,14.23 L5.75,16.83 C5.87,16.89 5.99,16.92 6.12,16.92 C6.29,16.92 6.43,16.86 6.52,16.72 C6.62,16.59 6.66,16.44 6.66,16.25 L6.66,3.15 L6.64,3.1 Z" id="9fz5a"></path>
                    </g>
                </g>
                <g id="Group" transform="translate(88.000000, 0.000000)">
                    <g id="9fz5b-link" fill="#0195A1">
                        <path d="M9.99,13.06 L9.98,13.66 L9.98,16.78 C9.98,16.94 9.95,17 9.78,17 L6.06,17 C5.9,17 5.85,16.95 5.86,16.79 L5.86,15.06 C5.86,15.01 5.92,14.91 5.78,14.9 L5.7,14.9 C5.65,14.88 5.6,14.89 5.57,14.95 C5.07,15 4.57,15.04 4.07,14.91 C3.2211847,14.7080104 2.51931589,14.1138358 2.18,13.31 C1.92741766,12.7606814 1.604732,12.2464011 1.22,11.78 C1.1,11.63 0.91,11.58 0.78,11.42 C0.73,11.37 0.65,11.32 0.68,11.24 C0.7,11.14 0.8,11.15 0.88,11.14 C1.68,11.07 2.26,11.47 2.65,12.14 C3.02,12.76 3.5,13.22 4.19,13.4 C4.69,13.53 5.17,13.5 5.66,13.35 C5.76,13.31 5.83,13.27 5.84,13.13 C5.88,12.61 5.98,12.13 6.33,11.69 L5.98,11.62 C5.13232471,11.5043134 4.32934526,11.1700258 3.65,10.65 C2.88661255,10.0689546 2.38347712,9.21003054 2.25,8.26 C2.14174329,7.40268753 2.15183775,6.53456341 2.28,5.68 C2.36,5.01 2.55,4.38 3.01,3.89 C3.18,3.72 3.19,3.58 3.11,3.36 C2.89391049,2.63978884 2.91141364,1.86965034 3.16,1.16 C3.2,1.02 3.26,0.98 3.41,1.02 C3.95,1.15 4.37,1.48 4.75,1.87 C4.93,2.07 5.09,2.27 5.25,2.49 C5.29,2.55 5.32,2.59 5.39,2.52 C5.69,2.29 6.03,2.22 6.39,2.16 C7.39,2.01 8.42,2.01 9.43,2.16 C9.77,2.21 10.11,2.26 10.39,2.49 C10.52,2.59 10.58,2.53 10.65,2.42 C10.92,2.02 11.25,1.67 11.64,1.39 C11.88,1.21 12.15,1.09 12.45,1.01 C12.58,0.98 12.63,1.01 12.67,1.13 C12.95,1.93 12.99,2.72 12.68,3.51 C12.65,3.61 12.62,3.68 12.71,3.76 C13.21,4.24 13.44,4.85 13.53,5.52 C13.65,6.34 13.72,7.15 13.63,7.98 C13.5230189,9.28880249 12.7478823,10.4496168 11.58,11.05 C11.54,11.05 11.5,11.05 11.48,11.1 L11.39,11.15 C11.2914945,11.1565446 11.1988887,11.1992857 11.13,11.27 L11.03,11.3 C10.98,11.29 10.95,11.3 10.93,11.35 L10.86,11.37 C10.7,11.39 10.54,11.41 10.4,11.51 L10.34,11.52 C10.22,11.52 10.11,11.52 10.01,11.6 L9.74,11.64 C9.68,11.64 9.6,11.64 9.54,11.66 C9.47,11.69 9.5,11.73 9.56,11.75 C9.56,11.81 9.6,11.85 9.65,11.87 L9.75,12.06 C9.75,12.15 9.77,12.23 9.85,12.29 L9.86,12.39 C9.88,12.51 9.88,12.62 9.95,12.73 L9.96,12.8 C9.94,12.85 9.95,12.9 9.99,12.93 L9.99,13.06 Z" id="9fz5b"></path>
                    </g>
                    <g id="9fz5b-link" fill="#FFFFFF" fill-opacity="0" stroke="#0095A2">
                        <path d="M9.99,13.06 L9.98,13.66 L9.98,16.78 C9.98,16.94 9.95,17 9.78,17 L6.06,17 C5.9,17 5.85,16.95 5.86,16.79 L5.86,15.06 C5.86,15.01 5.92,14.91 5.78,14.9 L5.7,14.9 C5.65,14.88 5.6,14.89 5.57,14.95 C5.07,15 4.57,15.04 4.07,14.91 C3.2211847,14.7080104 2.51931589,14.1138358 2.18,13.31 C1.92741766,12.7606814 1.604732,12.2464011 1.22,11.78 C1.1,11.63 0.91,11.58 0.78,11.42 C0.73,11.37 0.65,11.32 0.68,11.24 C0.7,11.14 0.8,11.15 0.88,11.14 C1.68,11.07 2.26,11.47 2.65,12.14 C3.02,12.76 3.5,13.22 4.19,13.4 C4.69,13.53 5.17,13.5 5.66,13.35 C5.76,13.31 5.83,13.27 5.84,13.13 C5.88,12.61 5.98,12.13 6.33,11.69 L5.98,11.62 C5.13232471,11.5043134 4.32934526,11.1700258 3.65,10.65 C2.88661255,10.0689546 2.38347712,9.21003054 2.25,8.26 C2.14174329,7.40268753 2.15183775,6.53456341 2.28,5.68 C2.36,5.01 2.55,4.38 3.01,3.89 C3.18,3.72 3.19,3.58 3.11,3.36 C2.89391049,2.63978884 2.91141364,1.86965034 3.16,1.16 C3.2,1.02 3.26,0.98 3.41,1.02 C3.95,1.15 4.37,1.48 4.75,1.87 C4.93,2.07 5.09,2.27 5.25,2.49 C5.29,2.55 5.32,2.59 5.39,2.52 C5.69,2.29 6.03,2.22 6.39,2.16 C7.39,2.01 8.42,2.01 9.43,2.16 C9.77,2.21 10.11,2.26 10.39,2.49 C10.52,2.59 10.58,2.53 10.65,2.42 C10.92,2.02 11.25,1.67 11.64,1.39 C11.88,1.21 12.15,1.09 12.45,1.01 C12.58,0.98 12.63,1.01 12.67,1.13 C12.95,1.93 12.99,2.72 12.68,3.51 C12.65,3.61 12.62,3.68 12.71,3.76 C13.21,4.24 13.44,4.85 13.53,5.52 C13.65,6.34 13.72,7.15 13.63,7.98 C13.5230189,9.28880249 12.7478823,10.4496168 11.58,11.05 C11.54,11.05 11.5,11.05 11.48,11.1 L11.39,11.15 C11.2914945,11.1565446 11.1988887,11.1992857 11.13,11.27 L11.03,11.3 C10.98,11.29 10.95,11.3 10.93,11.35 L10.86,11.37 C10.7,11.39 10.54,11.41 10.4,11.51 L10.34,11.52 C10.22,11.52 10.11,11.52 10.01,11.6 L9.74,11.64 C9.68,11.64 9.6,11.64 9.54,11.66 C9.47,11.69 9.5,11.73 9.56,11.75 C9.56,11.81 9.6,11.85 9.65,11.87 L9.75,12.06 C9.75,12.15 9.77,12.23 9.85,12.29 L9.86,12.39 C9.88,12.51 9.88,12.62 9.95,12.73 L9.96,12.8 C9.94,12.85 9.95,12.9 9.99,12.93 L9.99,13.06 Z" id="9fz5b"></path>
                    </g>
                </g>
                <g id="Group" transform="translate(44.000000, 1.000000)" fill="#0195A1">
                    <g id="9fz5c-link">
                        <path d="M7.8,15.06 L7.86,15.05 L7.88,14.93 C7.98,13.95 8.07,12.96 8.15,11.98 C8.17,11.77 8.25,11.61 8.41,11.46 L12.31,7.94 L16.64,4.04 C16.74,3.96 16.77,3.82 16.84,3.71 C16.69,3.69 16.55,3.64 16.43,3.67 C16.26,3.71 16.1,3.81 15.95,3.91 L6.4,9.91 C6.22,10.03 6.19,10.12 6.26,10.32 L6.93,12.36 L7.81,15.06 L7.8,15.06 Z M11,13.76 L8.71,15.97 C8.45,16.23 8.16,16.37 7.78,16.35 C7.52,16.35 7.38,16.23 7.29,15.99 L5.56,10.62 C5.52483336,10.4600736 5.39992645,10.3351666 5.24,10.3 C3.89,9.9 2.53,9.47 1.18,9.04 C0.97,8.97 0.76,8.89 0.58,8.76 C0.29,8.57 0.26,8.26 0.51,8.04 C0.74,7.84 1.01,7.66 1.31,7.54 C2.96,6.89 4.63,6.25 6.31,5.61 L18.99,0.71 C19.8,0.4 20.42,0.84 20.33,1.71 C20.28,2.27 20.13,2.81 20.02,3.37 L17.26,16.39 C17.04,17.42 16.31,17.69 15.46,17.06 L11.21,13.92 L10.99,13.75 L11,13.76 Z" id="9fz5c"></path>
                    </g>
                </g>
                <g id="Group" transform="translate(0.000000, 1.000000)">
                    <g id="9fz5d-link" fill="#0195A1">
                        <path d="M20.01,1.9 C19.27,2.22 18.48,2.43 17.65,2.53 C18.5,2.03 19.15,1.23 19.46,0.3 C18.66,0.76 17.79,1.1 16.86,1.28 C15.7043396,0.0828205057 13.9431061,-0.303900135 12.3921982,0.298988026 C10.8412902,0.901876186 9.80366235,2.37660492 9.76,4.04 C9.76,4.35 9.79,4.66 9.86,4.96 C6.56966547,4.80389146 3.4962774,3.27264026 1.39,0.74 C0.276938379,2.58625719 0.84070824,4.98338888 2.66,6.14 C1.99,6.11 1.36,5.93 0.8,5.63 L0.8,5.68 C0.8,7.64 2.22,9.27 4.1,9.64 C3.49273944,9.80015189 2.8575802,9.82405573 2.24,9.71 C2.79338716,11.3656493 4.33443852,12.4893326 6.08,12.51 C4.3524068,13.8463352 2.16861696,14.4497508 4.54747351e-13,14.19 C1.88601572,15.3782227 4.07089857,16.005943 6.3,16 C9.46630625,16.0470675 12.5119026,14.7864228 14.7186614,12.515316 C16.9254202,10.2442092 18.0980305,7.16364634 17.96,4 C18.76,3.42 19.46,2.71 20.01,1.9 Z" id="9fz5d"></path>
                    </g>
                    <g id="9fz5d-link" fill="#FFFFFF" fill-opacity="0" stroke="#0195A1">
                        <path d="M20.01,1.9 C19.27,2.22 18.48,2.43 17.65,2.53 C18.5,2.03 19.15,1.23 19.46,0.3 C18.66,0.76 17.79,1.1 16.86,1.28 C15.7043396,0.0828205057 13.9431061,-0.303900135 12.3921982,0.298988026 C10.8412902,0.901876186 9.80366235,2.37660492 9.76,4.04 C9.76,4.35 9.79,4.66 9.86,4.96 C6.56966547,4.80389146 3.4962774,3.27264026 1.39,0.74 C0.276938379,2.58625719 0.84070824,4.98338888 2.66,6.14 C1.99,6.11 1.36,5.93 0.8,5.63 L0.8,5.68 C0.8,7.64 2.22,9.27 4.1,9.64 C3.49273944,9.80015189 2.8575802,9.82405573 2.24,9.71 C2.79338716,11.3656493 4.33443852,12.4893326 6.08,12.51 C4.3524068,13.8463352 2.16861696,14.4497508 4.54747351e-13,14.19 C1.88601572,15.3782227 4.07089857,16.005943 6.3,16 C9.46630625,16.0470675 12.5119026,14.7864228 14.7186614,12.515316 C16.9254202,10.2442092 18.0980305,7.16364634 17.96,4 C18.76,3.42 19.46,2.71 20.01,1.9 Z" id="9fz5d"></path>
                    </g>
                </g>
            </g>
        </g>
    </g>
</svg>